<?xml version="1.0" encoding="utf-8"?>
<!-- Generator: Adobe Illustrator 25.1.0, SVG Export Plug-In . SVG Version: 6.00 Build 0)  -->
<svg version="1.1" id="Layer_1" xmlns="http://www.w3.org/2000/svg" xmlns:xlink="http://www.w3.org/1999/xlink" x="0px" y="0px"
	 viewBox="0 0 70.7 56.9" style="enable-background:new 0 0 70.7 56.9;" xml:space="preserve">
<style type="text/css">
	.st0{fill:none;stroke:#F8AF7C;stroke-width:1.5734;stroke-linecap:round;stroke-linejoin:round;stroke-miterlimit:10;}
	.st1{fill:none;stroke:#681648;stroke-width:1.5734;stroke-linecap:round;stroke-linejoin:round;stroke-miterlimit:10;}
	.st2{fill:#990033;stroke:#990033;stroke-miterlimit:10;}
	.st3{fill:#F47B26;}
	.st4{fill:#7EB341;stroke:#7EB341;stroke-width:2;stroke-linecap:round;stroke-miterlimit:10;}
	.st5{fill:none;stroke:#F47B26;stroke-width:1.5734;stroke-linecap:round;stroke-linejoin:round;stroke-miterlimit:10;}
</style>
<g>
	<g>
		<path class="st0" d="M14.9,8.5c4.6-4.4,10.7-7.2,17.5-7.6c8.4-0.5,17.3,0.5,23.9,11.4"/>
		<path class="st0" d="M53.4,8.3c5.2,0.3,9.6,3.5,11.8,8.1c0.9,1.9,1.4,4,1.4,6.3v2.2"/>
		<path class="st0" d="M28.7,16.4c-2.3-4.7-7.1-8.6-12.6-7.9c-6.3,0.8-12.1,6-14,14v2.1"/>
		<path class="st0" d="M65.1,45.8v2c0,4.7-3.8,8.3-8.4,8.3h-45c-4.7,0-8.4-3.8-8.4-8.4v-3.1"/>
		<path class="st1" d="M63.3,45.6c2.7,0,4.9-1.7,4.9-3.7s-2.2-3.7-4.9-3.7H6.6c-2.7,0-4.9,1.7-4.9,3.7s2.2,3.7,4.9,3.7H63.3z"/>
		<path class="st1" d="M63.2,36.2c2.7,0,4.9-1.7,4.9-3.8s-2.2-3.8-4.9-3.8H6.5c-2.7,0-4.9,1.7-4.9,3.8s2.2,3.8,4.9,3.8H63.2z"/>
		<path class="st2" d="M65.4,37.7c2.6,0,2.8-0.4,2.8-0.9s-0.2-0.9-2.8-0.9H5.9c-2.6,0-3.3,0.4-3.3,0.9s0.7,0.9,3.3,0.9H65.4z"/>
		<path class="st3" d="M67.3,25.1c0.8,0.5,1.2,3.7,0.8,4.6c-0.6,1.1-1.9,2.6-4.6,2.4c-4.6-0.4-3.7-4.2-7.3-4.2
			c-3.7,0-3.7,4.2-7.3,4.2c-3.7,0-3.7-4.2-7.3-4.2c-3.7,0-3.7,4.2-7.3,4.2l0,0c-3.7,0-3.7-4.2-7.3-4.2c-3.7,0-3.7,4.2-7.3,4.2
			c-3.7,0-3.7-4.2-7.3-4.2c-3.7,0-2.7,3.9-7.3,4.2c-2.7,0.2-4-1.3-4.6-2.4c-0.5-0.9,0-4.4,1-4.6"/>
		<path class="st4" d="M69.7,35.4c0.1,1,0,0.1-0.5,1c-0.6,1.1-1.9,2.6-4.6,2.4c-4.6-0.4-3.7-4.2-7.3-4.2c-3.7,0-3.7,4.2-7.3,4.2
			c-3.7,0-3.7-4.2-7.3-4.2c-3.7,0-3.7,4.2-7.3,4.2l0,0c-3.7,0-3.7-4.2-7.3-4.2c-3.7,0-3.7,4.2-7.3,4.2c-3.7,0-3.7-4.2-7.3-4.2
			c-3.7,0-2.7,3.9-7.3,4.2c-2.7,0.2-4-1.3-4.6-2.4c-0.5-0.9-0.6,0-0.5-1"/>
	</g>
	<path class="st5" d="M11.5,17.3c0-0.2-0.2-0.4-0.4-0.4s-0.4,0.2-0.4,0.4c0,0.2,0.2,0.4,0.4,0.4C11.3,17.7,11.5,17.6,11.5,17.3z"/>
	<path class="st5" d="M16.7,13.2c0-0.2-0.2-0.4-0.4-0.4c-0.2,0-0.4,0.2-0.4,0.4s0.2,0.4,0.4,0.4C16.5,13.6,16.7,13.4,16.7,13.2z"/>
	<path class="st5" d="M21.5,17.3c0-0.2-0.2-0.4-0.4-0.4s-0.4,0.2-0.4,0.4c0,0.2,0.2,0.4,0.4,0.4S21.5,17.6,21.5,17.3z"/>
	<path class="st5" d="M27.7,7c0-0.2-0.2-0.4-0.4-0.4c-0.2,0-0.4,0.2-0.4,0.4s0.2,0.4,0.4,0.4C27.6,7.4,27.7,7.2,27.7,7z"/>
	<path class="st5" d="M36.4,11.7c0-0.2-0.2-0.4-0.4-0.4s-0.4,0.2-0.4,0.4s0.2,0.4,0.4,0.4C36.2,12.1,36.4,11.9,36.4,11.7z"/>
	<path class="st5" d="M60.3,15.4c0-0.2-0.2-0.4-0.4-0.4s-0.4,0.2-0.4,0.4s0.2,0.4,0.4,0.4S60.3,15.6,60.3,15.4z"/>
	<line class="st0" x1="2.1" y1="24.9" x2="66.1" y2="24.9"/>
	<path class="st5" d="M35.3,4.6c0-0.2-0.2-0.4-0.4-0.4s-0.4,0.2-0.4,0.4c0,0.2,0.2,0.4,0.4,0.4S35.3,4.8,35.3,4.6z"/>
	<path class="st5" d="M50.9,10.4c0-0.2-0.2-0.4-0.4-0.4s-0.4,0.2-0.4,0.4s0.2,0.4,0.4,0.4S50.9,10.6,50.9,10.4z"/>
	<path class="st5" d="M46,13.6c0-0.2-0.2-0.4-0.4-0.4s-0.4,0.2-0.4,0.4s0.2,0.4,0.4,0.4S46,13.8,46,13.6z"/>
	<path class="st5" d="M43.7,6.2c0-0.2-0.2-0.4-0.4-0.4S42.9,6,42.9,6.2c0,0.2,0.2,0.4,0.4,0.4C43.6,6.6,43.7,6.4,43.7,6.2z"/>
</g>
</svg>
