<?xml version="1.0" encoding="utf-8"?>
<!-- Generator: Adobe Illustrator 25.2.0, SVG Export Plug-In . SVG Version: 6.00 Build 0)  -->
<svg version="1.1" id="Layer_1" xmlns="http://www.w3.org/2000/svg" xmlns:xlink="http://www.w3.org/1999/xlink" x="0px" y="0px"
	 viewBox="0 0 76.5 69.8" style="enable-background:new 0 0 76.5 69.8;" xml:space="preserve">
<style type="text/css">
	.st0{fill:#681648;}
	.st1{fill:none;stroke:#4E1036;stroke-width:1.5734;stroke-linecap:round;stroke-linejoin:round;stroke-miterlimit:10;}
	.st2{fill:#F8AF7C;}
	.st3{fill:#FFFFFF;stroke:#4E1036;stroke-width:1.5734;stroke-linecap:round;stroke-linejoin:round;stroke-miterlimit:10;}
	.st4{fill:#FFFFFF;stroke:#990033;stroke-width:1.5734;stroke-linecap:round;stroke-linejoin:round;stroke-miterlimit:10;}
	.st5{fill:none;stroke:#990033;stroke-width:1.5734;stroke-linecap:round;stroke-linejoin:round;stroke-miterlimit:10;}
	.st6{fill:#CC0033;}
	.st7{fill:none;stroke:#F47B26;stroke-width:1.5734;stroke-linecap:round;stroke-linejoin:round;stroke-miterlimit:10;}
</style>
<g>
	<g>
		<g>
			<g>
				<g>
					<g>
						<path class="st0" d="M11.4,30c1.5-1.5,4.1-1.2,5.5-0.9c2.3,0.5,4.8,1.9,7,3.7c-1.2-0.6-2.5-1.1-3.7-1.3
							c-1.6-0.4-4.5-0.7-6.3,1c-1.8,1.8-1.4,4.7-1,6.3c0.3,1.3,0.8,2.6,1.4,3.8c-1.9-2.3-3.3-4.8-3.8-7.2
							C10.1,34.1,9.8,31.5,11.4,30z"/>
					</g>
					<path class="st1" d="M33.7,45.8c1-3.8,0.1-8.9-2.7-13.7c-4.3-7.4-11.6-11.2-16.3-8.5c-1.1,0.6-1.9,1.6-2.5,2.7"/>
					<path class="st2" d="M30.2,35.4c-0.4-1.2-1.1-2.9-1.8-4.1c-3.2-5.5-8.7-8.4-12.1-6.3c-0.4,0.2-0.7,0.5-1,0.8l7.5,2.2L30.2,35.4
						z"/>
					<path class="st1" d="M33.2,46c0.6-4.1-1.6-9.5-6-13.9C21.2,26,13.2,24.2,9.4,28s-2,11.8,4.1,17.9c0.1,0.1,0.1,0.1,0.2,0.2"/>
				</g>
				<g>
					<g>
						<path class="st0" d="M72.2,34c-1.4-1.4-3.6-1.1-4.9-0.8c-2.1,0.5-4.3,1.6-6.2,3.3c1.1-0.5,2.2-1,3.3-1.2
							c1.4-0.3,4-0.6,5.6,0.9c1.6,1.6,1.2,4.2,0.9,5.6c-0.3,1.1-0.7,2.3-1.3,3.4c1.7-2,2.9-4.3,3.4-6.4C73.2,37.6,73.5,35.3,72.2,34
							z"/>
					</g>
					<path class="st1" d="M52.3,48c-0.9-3.3-0.1-7.9,2.4-12.1c3.8-6.6,10.3-9.9,14.4-7.5c1,0.6,1.7,1.4,2.3,2.4"/>
					<path class="st2" d="M55.4,38.8c0.3-1,1-2.6,1.6-3.6c2.9-4.9,7.7-7.4,10.8-5.6c0.3,0.2,0.6,0.4,0.9,0.7l-6.7,2L55.4,38.8z"/>
					<path class="st1" d="M52.7,48.1c-0.5-3.6,1.4-8.4,5.3-12.3c5.4-5.4,12.5-7,15.9-3.6c3.4,3.4,1.8,10.5-3.6,15.9
						c-0.1,0.1-0.1,0.1-0.2,0.2"/>
				</g>
				<g>
					<path class="st3" d="M25.1,45c0.4-4.2,3.1-9,7.7-12.8c7.1-5.9,15.9-7.1,19.6-2.6c0.9,1,1.4,2.3,1.6,3.7"/>
					<path class="st2" d="M32.3,35.8c0.8-1,2.2-2.5,3.3-3.4c5.3-4.4,11.8-5.3,14.6-1.9c0.3,0.4,0.6,0.8,0.7,1.2l-8.4-0.5L32.3,35.8z
						"/>
					<path class="st3" d="M25.5,45.4c0.9-4.4,5.1-9,11.1-11.9c8.4-3.9,17.1-2.8,19.6,2.4c1.4,2.9,0.5,6.5-2,9.8"/>
					<g>
						<path class="st0" d="M49.7,46.2c1.1-1,2-2,2.7-3.1c0.8-1.3,2.1-3.8,1.1-5.9c-1-2.1-3.7-2.7-5.2-2.9c-2.5-0.3-5.5,0.1-8.5,1.2
							c1.5-0.2,2.9-0.2,4.2,0c1.7,0.2,4.8,0.9,6,3.4c1.1,2.4-0.3,5.3-1.3,6.7c-0.2,0.2-0.3,0.5-0.5,0.7L49.7,46.2z"/>
					</g>
				</g>
			</g>
			<path class="st4" d="M49.5,64.2h4.6c7.5,0,13.9-5.7,14.6-13.1c0.1-0.6,0.1-0.9,0.1-0.9h3.6c1.1,0,2.1-0.9,2.1-2.1l0,0
				c0-1.1-0.9-2.1-2.1-2.1h-3.6H11H7.4c-1.1,0-2.1,0.9-2.1,2.1l0,0c0,1.1,0.9,2.1,2.1,2.1H11c0,0,0,0.3,0.1,0.9
				c0.7,7.5,7.1,13.1,14.6,13.1h4.6H49.5z"/>
			<path class="st5" d="M56.2,64v2.1c0,1.6-1.3,2.9-2.9,2.9H26.5c-1.6,0-2.9-1.3-2.9-2.9V64"/>
			<path class="st6" d="M23.8,50.2h-9.6c0,0.1,0,0.3,0,0.6C14.8,56.6,19.7,61,25.7,61h2C23.4,57.2,23.8,50.2,23.8,50.2z"/>
		</g>
	</g>
	<path class="st7" d="M52,26.9l-2.9-10c-0.5-1.5,0.4-3.1,2-3.6l1.5-0.4c1.5-0.5,3.1,0.4,3.6,2l0,0"/>
	<path class="st7" d="M23.6,21.4l0.6-12.5c0.1-1.6,1.4-2.8,3-2.8l1.6,0.2c1.6,0.1,2.8,1.4,2.8,3l-0.9,18.1"/>
	<path class="st7" d="M5.5,35.7l-4.1-5.1c-1-1.2-0.8-3.1,0.4-4.1l1.4-1.3c1.2-1,3.1-0.8,4.1,0.4l0,0"/>
	<path class="st7" d="M68,24.8l4.5-11.7c0.6-1.5-0.2-3.2-1.7-3.7l-1.3-0.6c-1.5-0.6-3.2,0.2-3.7,1.7l-6.4,16.9"/>
	<path class="st7" d="M67.4,5.8l0.2-1.2c0.2-1.6-0.9-3-2.5-3.3l-2-0.5c-1.6-0.2-3,0.9-3.3,2.5l-3.6,26.4"/>
	<path class="st7" d="M33.7,16l3.1-3.2c1-1.2,2.9-1.3,4.1-0.3l1.5,1.1c1.2,1,1.3,2.9,0.3,4.1L32,30.1"/>
</g>
</svg>
