<?xml version="1.0" encoding="utf-8"?>
<!-- Generator: Adobe Illustrator 25.1.0, SVG Export Plug-In . SVG Version: 6.00 Build 0)  -->
<svg version="1.1" id="Layer_1" xmlns="http://www.w3.org/2000/svg" xmlns:xlink="http://www.w3.org/1999/xlink" x="0px" y="0px"
	 viewBox="0 0 68.7 61.2" style="enable-background:new 0 0 68.7 61.2;" xml:space="preserve">
<style type="text/css">
	.st0{fill:none;stroke:#CC0033;stroke-width:1.5734;stroke-linecap:round;stroke-linejoin:round;stroke-miterlimit:10;}
	.st1{fill:#CC0033;}
	.st2{fill:none;stroke:#681648;stroke-width:1.5734;stroke-linecap:round;stroke-linejoin:round;stroke-miterlimit:10;}
	.st3{fill:none;stroke:#F47B26;stroke-width:1.5734;stroke-linecap:round;stroke-linejoin:round;stroke-miterlimit:10;}
</style>
<g id="coffee_machine_2_">
	<line id="XMLID_220_" class="st0" x1="58.5" y1="11.7" x2="62.4" y2="15.6"/>
	<path id="XMLID_67_" class="st1" d="M20.4,38.1c0,2.4-2,4.4-4.4,4.4s-4.4-2-4.4-4.4c0-2.4,2-4.4,4.4-4.4S20.4,35.7,20.4,38.1z"/>
	<path id="XMLID_66_" class="st2" d="M23,5.9H9.2C7.8,5.9,6.7,7,6.7,8.4v5.5h18.8V8.4C25.5,7,24.4,5.9,23,5.9z"/>
	<g id="XMLID_229_">
		<line id="XMLID_61_" class="st2" x1="5.9" y1="18.7" x2="7.5" y2="18.7"/>
		<line id="XMLID_55_" class="st2" x1="10.5" y1="18.7" x2="12.1" y2="18.7"/>
		<line id="XMLID_50_" class="st2" x1="5.9" y1="22.7" x2="7.5" y2="22.7"/>
		<line id="XMLID_45_" class="st2" x1="10.5" y1="22.7" x2="12.1" y2="22.7"/>
	</g>
	<g id="XMLID_224_">
		<line id="XMLID_228_" class="st2" x1="20.1" y1="18.7" x2="21.7" y2="18.7"/>
		<line id="XMLID_227_" class="st2" x1="24.7" y1="18.7" x2="26.3" y2="18.7"/>
		<line id="XMLID_226_" class="st2" x1="20.1" y1="22.7" x2="21.7" y2="22.7"/>
		<line id="XMLID_225_" class="st2" x1="24.7" y1="22.7" x2="26.3" y2="22.7"/>
	</g>
	<path id="XMLID_223_" class="st2" d="M30.9,60.4H0.8V6.7c0-3.3,2.6-5.9,5.9-5.9h24.2V60.4z"/>
	<path id="XMLID_222_" class="st2" d="M58.5,11.7H30.9V0.8h23.9c2,0,3.7,1.6,3.7,3.7V11.7z"/>
	<path id="XMLID_221_" class="st2" d="M58.5,60.4H30.9V49.5h23.9c2,0,3.7,1.6,3.7,3.7V60.4z"/>
	<path id="XMLID_219_" class="st0" d="M67.9,17.9c0-1.8-1.4-3.2-3.2-3.2c-1.8,0-3.2,1.4-3.2,3.2c0,1.8,1.4,3.2,3.2,3.2
		C66.5,21.1,67.9,19.7,67.9,17.9z"/>
	<path id="XMLID_218_" class="st2" d="M45,11.7v5.7c0,0.8,0.6,1.4,1.4,1.4h4.3c0.8,0,1.4-0.6,1.4-1.4v-5.7"/>
	<g>
		<path class="st3" d="M61.2,35.5c4.2-2.2,7.9,2.5,5.3,5.9c-0.9,1.2-2.4,1.4-3.8,1.6c-0.2,0-0.4,0-0.6,0.1"/>
		<path class="st3" d="M61.6,31.8c0,0-0.2,10.6-6.7,17.7l-12.7,0c-6.4-7.2-6.7-17.7-6.7-17.7H61.6z"/>
	</g>
	<line id="XMLID_217_" class="st2" x1="5.9" y1="53.9" x2="25.8" y2="53.9"/>
</g>
</svg>
