<?xml version="1.0" encoding="utf-8"?>
<!-- Generator: Adobe Illustrator 25.2.0, SVG Export Plug-In . SVG Version: 6.00 Build 0)  -->
<svg version="1.1" id="Layer_1" xmlns="http://www.w3.org/2000/svg" xmlns:xlink="http://www.w3.org/1999/xlink" x="0px" y="0px"
	 viewBox="0 0 80.9 80.9" style="enable-background:new 0 0 80.9 80.9;" xml:space="preserve">
<style type="text/css">
	.st0{fill:none;stroke:#F8AF7C;stroke-width:1.5734;stroke-linecap:round;stroke-linejoin:round;stroke-miterlimit:10;}
	.st1{fill:#F47B26;}
	.st2{fill:#4E1036;}
	.st3{fill:#FFFFFF;stroke:#990033;stroke-width:0.5;stroke-linecap:round;stroke-linejoin:round;stroke-miterlimit:10;}
	.st4{fill:#990033;}
</style>
<g>
	<g>
		<path class="st0" d="M67.5,57.3l-2.3,12.4c-0.6,3-2.8,5.3-5.7,6.3c-2.4,0.7-5.2,1.3-8,1.7c-9,1.3-18.1,1.3-27.1,0
			c-2.8-0.4-5.7-1-8-1.7c-2.9-0.9-5.2-3.3-5.7-6.3L8.3,58.2"/>
		<path class="st0" d="M73.1,54.9L73.1,54.9c-0.4,0.6-1.1,2.8-4.7,2.4c-1.3-0.1-3.8-0.1-5.7,0.2c-0.9-1.2-4.6-2.1-9-2.1
			c-3.4,0-6.4,0.5-8,1.3c-1.2-1.1-4.7-1.8-8.9-1.8l0,0c-4.1,0-7.7,0.7-8.9,1.8c-1.6-0.7-4.6-1.3-8-1.3c-4.5,0-7.8,0.5-9,2.1l0,0
			c0,0-1.1,0.9-4.7,0.4c-2.4-0.2-3.8-3-3.8-4.3l0,0c-0.5-2.7,0.9-4.9,3.9-5.5c1.3-0.2,3.8-0.2,5.7,0.7l0,0c0.9-3.3,4.6-5.7,9-5.7
			c3.4,0,6.4,1.5,8,3.6c1.2-2.9,4.7-5.1,8.9-5.1l0,0c4.1,0,7.7,2.2,8.9,5.1c1.6-2.2,4.6-3.6,8-3.6c4.5,0,8.1,2.4,9,5.7
			c1.9-1,4.4-1,5.7-0.7C72.9,49,74.6,52.1,73.1,54.9z"/>
		<path class="st1" d="M71.4,53.4L71.4,53.4C71,53.7,71,55.1,67.6,55c-1.2,0-2.3,0-4,0.5c-0.9-0.5-7.1-1.8-11.2-1.8
			c-3.2,0-5.2,0.5-6.7,0.9c-1-0.9-2.8-2.1-8.8-2.1l0,0c-3.9,0-8,1.7-9.1,2.2c-1.6-0.9-4.5-2.2-7.5-2.1c-4.1,0.2-10.8,3-12.9,2.7
			C5.2,54.9,5,53.2,5,52.8c0,0,0.6-1.8,3.5-1.7c1.2,0.1,2.8,0.5,4.6,1l0.6-1c0.9-1.3,3-3.6,7.2-3.6c3.2,0,6.8,1.9,8.4,2.9
			c1.1-1.2,4.9-4,8.6-4l0,0c3.9,0,7.1,2.7,8.1,3.9c1.5-0.9,5.3-3.8,9.4-3.3c4.4,0.5,6.2,3.5,7.1,4.9c1.8-0.4,3.5-1.1,4.7-1
			C70.5,50.9,71.7,52.2,71.4,53.4z"/>
	</g>
	<g>
		<g>
			<path class="st2" d="M35.7,50.3c0,0-0.2,0.2-0.6,0.1S34.5,50,34.5,50l16.3-38.7l1.1,0.5L35.7,50.3z"/>
		</g>
		<g>
			<g>
				<polygon class="st3" points="69.7,46.6 42.1,32.1 51.5,10 79,24.5 				"/>
				<polygon class="st4" points="49.7,36 42.1,32 51.5,9.9 59.1,13.9 				"/>
				<polygon class="st4" points="69.7,46.6 61.8,42.5 71.1,20.3 79,24.5 				"/>
			</g>
			<path class="st4" d="M62,24.2l-1.3,1.1c-0.1,0.1-0.2,0-0.4-0.1l-0.4-0.6L59.3,27c-0.1,0.5-0.4,0.4-0.4,0.1l-0.4-1.6l-0.4,0.5
				c0,0.1-0.1,0.1-0.2,0l-1-0.9l-0.2,1.3c0,0.2,0,0.5-0.2,0.4H56l1.1,2.8c0,0.1,0,0.2,0,0.4l-0.5,0.5c0.7,0.2,1.3,0.4,1.9,0.7
				l0.1,0.2l-1.1,2.3L58,34l1-2.3c0-0.1,0.1-0.1,0.2-0.1c0.6,0.4,1.1,0.9,1.7,1.3l0.1-0.7c0-0.1,0.1-0.2,0.2-0.2l2.7-0.9l-0.2-0.4
				c-0.1-0.1,0-0.2,0.1-0.5l0.9-1.1l-1.2-0.2c-0.1,0-0.1-0.1-0.1-0.2l0.1-0.6l-1.3,0.7c-0.2,0.1-0.5,0-0.2-0.4l1.3-2.1h-0.6
				c-0.1,0-0.4,0-0.4-0.2L62,24.2z"/>
		</g>
	</g>
</g>
</svg>
