<?xml version="1.0" encoding="utf-8"?>
<!-- Generator: Adobe Illustrator 25.1.0, SVG Export Plug-In . SVG Version: 6.00 Build 0)  -->
<svg version="1.1" id="Layer_1" xmlns="http://www.w3.org/2000/svg" xmlns:xlink="http://www.w3.org/1999/xlink" x="0px" y="0px"
	 viewBox="0 0 80.9 80.9" style="enable-background:new 0 0 80.9 80.9;" xml:space="preserve">
<style type="text/css">
	.st0{fill:none;stroke:#344154;stroke-width:0.5;stroke-linecap:round;stroke-linejoin:round;stroke-miterlimit:10;}
	.st1{fill:none;stroke:#F8AF7C;stroke-width:1.5734;stroke-linecap:round;stroke-linejoin:round;stroke-miterlimit:10;}
	.st2{fill:none;stroke:#344154;stroke-width:1.5734;stroke-linecap:round;stroke-linejoin:round;stroke-miterlimit:10;}
	.st3{fill:#F47B26;}
	.st4{fill:#4E1036;}
	.st5{fill:#FFFFFF;stroke:#990033;stroke-width:0.5;stroke-linecap:round;stroke-linejoin:round;stroke-miterlimit:10;}
	.st6{fill:#990033;}
</style>
<rect x="0.2" y="0.2" class="st0" width="80.4" height="80.4"/>
<g>
	<g>
		<path class="st1" d="M62.7,57l-1.9,10.2c-0.5,2.5-2.3,4.4-4.7,5.2c-2,0.6-4.3,1.1-6.6,1.4c-7.4,1.1-14.9,1.1-22.3,0
			c-2.3-0.3-4.7-0.8-6.6-1.4c-2.4-0.7-4.3-2.7-4.7-5.2L14,57.7"/>
		<path class="st1" d="M67.3,55C67.3,55,67.3,55,67.3,55c-0.3,0.5-0.9,2.3-3.9,2c-1.1-0.1-3.1-0.1-4.7,0.2c-0.7-1-3.8-1.7-7.4-1.7
			c-2.8,0-5.3,0.4-6.6,1.1c-1-0.9-3.9-1.5-7.3-1.5h0c-3.4,0-6.3,0.6-7.3,1.5c-1.3-0.6-3.8-1.1-6.6-1.1c-3.7,0-6.4,0.4-7.4,1.7l0,0
			c0,0-0.9,0.7-3.9,0.3c-2-0.2-3.1-2.5-3.1-3.5l0,0c-0.4-2.2,0.7-4,3.2-4.5c1.1-0.2,3.1-0.2,4.7,0.6l0,0c0.7-2.7,3.8-4.7,7.4-4.7
			c2.8,0,5.3,1.2,6.6,3c1-2.4,3.9-4.2,7.3-4.2h0c3.4,0,6.3,1.8,7.3,4.2c1.3-1.8,3.8-3,6.6-3c3.7,0,6.7,2,7.4,4.7
			c1.6-0.8,3.6-0.8,4.7-0.6C67.2,50.2,68.6,52.7,67.3,55z"/>
		<path class="st3" d="M65.9,53.8C65.9,53.8,65.9,53.8,65.9,53.8c-0.3,0.2-0.3,1.4-3.1,1.3c-1,0-1.9,0-3.3,0.4
			c-0.7-0.4-5.8-1.5-9.2-1.5c-2.6,0-4.3,0.4-5.5,0.7c-0.8-0.7-2.3-1.7-7.2-1.7l0,0c-3.2,0-6.6,1.4-7.5,1.8c-1.3-0.7-3.7-1.8-6.2-1.7
			c-3.4,0.2-8.9,2.5-10.6,2.2c-1.8-0.3-2-1.7-2-2c0,0,0.5-1.5,2.9-1.4c1,0.1,2.3,0.4,3.8,0.8l0.5-0.8c0.7-1.1,2.5-3,5.9-3
			c2.6,0,5.6,1.6,6.9,2.4c0.9-1,4-3.3,7.1-3.3l0,0c3.2,0,5.8,2.2,6.7,3.2c1.2-0.7,4.4-3.1,7.7-2.7c3.6,0.4,5.1,2.9,5.8,4
			c1.5-0.3,2.9-0.9,3.9-0.8C65.2,51.7,66.2,52.8,65.9,53.8z"/>
	</g>
	<g>
		<g>
			<path class="st4" d="M36.6,51.2c0,0-0.2,0.2-0.5,0.1S35.6,51,35.6,51L49,19.2l0.9,0.4L36.6,51.2z"/>
		</g>
		<g>
			<g>
				<polygon class="st5" points="64.5,48.2 41.8,36.3 49.6,18.1 72.2,30 				"/>
				<polygon class="st6" points="48.1,39.5 41.8,36.2 49.6,18 55.8,21.3 				"/>
				<polygon class="st6" points="64.5,48.2 58,44.8 65.7,26.6 72.2,30 				"/>
			</g>
			<path class="st6" d="M58.2,29.8l-1.1,0.9c-0.1,0.1-0.2,0-0.3-0.1l-0.3-0.5l-0.5,2c-0.1,0.4-0.3,0.3-0.3,0.1l-0.3-1.3l-0.3,0.4
				c0,0.1-0.1,0.1-0.2,0l-0.8-0.7l-0.2,1.1c0,0.2,0,0.4-0.2,0.3l-0.4,0l0.9,2.3c0,0.1,0,0.2,0,0.3l-0.4,0.4c0.6,0.2,1.1,0.3,1.6,0.6
				c0,0,0.1,0.2,0.1,0.2l-0.9,1.9l0.3,0.1l0.8-1.9c0-0.1,0.1-0.1,0.2-0.1c0.5,0.3,0.9,0.7,1.4,1.1l0.1-0.6c0-0.1,0.1-0.2,0.2-0.2
				l2.2-0.7l-0.2-0.3c-0.1-0.1,0-0.2,0.1-0.4l0.7-0.9l-1-0.2c-0.1,0-0.1-0.1-0.1-0.2l0.1-0.5l-1.1,0.6c-0.2,0.1-0.4,0-0.2-0.3
				l1.1-1.7l-0.5,0c-0.1,0-0.3,0-0.3-0.2L58.2,29.8z"/>
		</g>
	</g>
</g>
</svg>
