<?xml version="1.0" encoding="utf-8"?>
<!-- Generator: Adobe Illustrator 25.1.0, SVG Export Plug-In . SVG Version: 6.00 Build 0)  -->
<svg version="1.1" id="Layer_1" xmlns="http://www.w3.org/2000/svg" xmlns:xlink="http://www.w3.org/1999/xlink" x="0px" y="0px"
	 viewBox="0 0 68.7 61.2" style="enable-background:new 0 0 68.7 61.2;" xml:space="preserve">
<style type="text/css">
	.st0{fill:none;stroke:#990033;stroke-width:1.5734;stroke-linecap:round;stroke-linejoin:round;stroke-miterlimit:10;}
	.st1{fill:none;stroke:#F47B26;stroke-width:1.5734;stroke-linecap:round;stroke-linejoin:round;stroke-miterlimit:10;}
	.st2{fill:none;stroke:#681648;stroke-width:1.5734;stroke-linecap:round;stroke-linejoin:round;stroke-miterlimit:10;}
	.st3{fill:#F8AF7C;}
</style>
<g>
	<path class="st0" d="M58.1,46c1.5,0.1,3,0.2,4.4,0.3c3.4,0.3,6.2,2,6.2,3.9l0,0c0,1.8-2.8,3.6-6.2,3.9c-18.3,1.3-36.9,1.3-55.2,0
		c-3.4-0.3-6.2-2-6.2-3.9l0,0c0-1.8,2.8-3.6,6.2-3.9c1.4-0.1,2.9-0.2,4.3-0.3"/>
	<path class="st0" d="M59.5,54.6c0,3.6-4.1,6.6-9.2,6.6H19.5c-5.1,0-9.2-2.9-9.2-6.6"/>
	<path class="st1" d="M52.5,52.1c3,0,5.5-1.8,5.5-3.9l0.1-26.7"/>
	<path class="st1" d="M11.7,22.3v25.9c0,2.2,2.4,3.9,5.5,3.9"/>
	<path class="st2" d="M34.9,6.6c0,0,0.6-6.2,8.5-6.2"/>
	<path class="st3" d="M18.9,47.3h31.8c2.1,0,3.7-1.2,3.7-2.7l0-0.6c0-1.5-1.7-2.7-3.7-2.7H18.9c-2.1,0-3.7,1.2-3.7,2.7l0,0.6
		C15.2,46.1,16.9,47.3,18.9,47.3z"/>
	<path class="st3" d="M50.8,29.9H19c-2.1,0-3.7,1.2-3.7,2.7l0,0c0,1.5,1.7,2.7,3.7,2.7h31.8c2.1,0,3.7-1.2,3.7-2.7l0,0
		C54.5,31.1,52.9,29.9,50.8,29.9z"/>
	<path class="st2" d="M28,15c-30.6,2.1-10.7,20-0.8,7.9c1.2,2.2,4.2,3.7,7.6,3.7c3.5,0,6.4-1.5,7.6-3.7C52.5,35,72.4,17,41.8,15"/>
	<path class="st0" d="M31.8,6.4c0.6-0.2,1.2-0.1,1.7,0c0.3,0.1,0.8,0.2,1.4,0.2c0.6,0,1.1-0.1,1.4-0.2c0.5-0.2,1.2-0.2,1.7-0.1
		c2.3,0.6,3.8,2.1,3.8,5.5c0,0.3,0,0.6-0.1,0.8c-0.5,2.9-3.5,4.9-6.9,4.9l0,0c-3.4,0-6.4-2.1-6.9-4.9c0-0.3-0.1-0.5-0.1-0.8
		C28,8.5,29.5,7,31.8,6.4z"/>
</g>
</svg>
