<?xml version="1.0" encoding="utf-8"?>
<!-- Generator: Adobe Illustrator 25.2.0, SVG Export Plug-In . SVG Version: 6.00 Build 0)  -->
<svg version="1.1" id="Layer_1" xmlns="http://www.w3.org/2000/svg" xmlns:xlink="http://www.w3.org/1999/xlink" x="0px" y="0px"
	 viewBox="0 0 65 65" style="enable-background:new 0 0 65 65;" xml:space="preserve">
<style type="text/css">
	.st0{fill:#F8AF7C;stroke:#F8AF7C;stroke-width:1.573;stroke-linecap:round;stroke-linejoin:round;stroke-miterlimit:10;}
	.st1{fill:none;stroke:#4E1036;stroke-width:1.573;stroke-linecap:round;stroke-linejoin:round;stroke-miterlimit:10;}
	.st2{fill:#FF6D3B;}
	.st3{fill:none;stroke:#990033;stroke-width:1.573;stroke-linecap:round;stroke-linejoin:round;stroke-miterlimit:10;}
	.st4{fill:#FFFFFF;stroke:#FFFFFF;stroke-linecap:round;stroke-linejoin:round;stroke-miterlimit:10;}
	.st5{fill:none;stroke:#F8AF7C;stroke-linecap:round;stroke-linejoin:round;stroke-miterlimit:10;}
</style>
<path class="st0" d="M46.5,49.4c0,0-0.9-3.1,1.1-3.4c1.7-0.3,3.4-1.5,4-2.9c0.9-2.2,1.1-6-1-7.7c-1.5-1.2-3-1.7-5-0.8
	c-1.6,0.7-1.6-0.4-2.1-1.8c0,0-1.9,5.6-3.6,8.4c0.5,1,2.3,5,2.3,5C43.1,46.2,45.7,46.8,46.5,49.4z"/>
<g>
	<path class="st1" d="M13,25.8c0.1,0.1,0.2,0.2,0.3,0.2c-1-0.1-1.9,0.2-2.7,0.9c-1.4,1.3-1.5,3.5-0.2,4.9c0.2,0.3,0.5,0.5,0.8,0.6
		c-0.6,0.1-1.1,0.4-1.6,0.8c-1.4,1.3-1.5,3.5-0.2,4.9c0.6,0.7,1.5,1.1,2.4,1.1c-0.2,0.1-0.3,0.2-0.5,0.4c-1.4,1.3-1.5,3.5-0.2,4.9
		c0.9,1,2.2,1.3,3.4,1c-1,1.3-0.9,3.2,0.2,4.4c1.1,1.3,3,1.5,4.4,0.6c-0.4,1.2-0.2,2.5,0.7,3.5c1.3,1.4,3.5,1.5,4.9,0.2
		c0.1-0.1,0.3-0.3,0.4-0.4c0,0.9,0.3,1.8,0.9,2.5c1.3,1.4,3.5,1.5,4.9,0.2c0.5-0.4,0.8-1,1-1.5c0.1,0.3,0.3,0.6,0.6,0.8
		c1.3,1.4,3.5,1.5,4.9,0.2c0.8-0.7,1.1-1.6,1.1-2.6c0.1,0.1,0.1,0.2,0.2,0.3c1.3,1.4,3.5,1.5,4.9,0.2c1.4-1.3,1.5-3.5,0.2-4.9
		c-0.8-0.9-2.1-1.3-3.2-1.1c-1.5-2.8-3.9-8.1-8.9-13.6c-5-5.5-10.1-8.5-12.7-10.2c0.3-1.1,0.1-2.4-0.8-3.3c-1.3-1.4-3.5-1.5-4.9-0.2
		C11.8,22.2,11.7,24.4,13,25.8z"/>
	<path class="st1" d="M38.4,53.7c0,0-0.3-2.5-3.1-3.1"/>
	<path class="st1" d="M31.8,55.3c0,0,0.4-2.7-2.1-3.7"/>
	<g>
		<path class="st1" d="M45.2,8.1c1.5,0.8,2.3,2.6,1.7,4.2c-0.4,1.2-1.4,2-2.5,2.3c-0.2,3.2-0.3,9-2.6,16.1c-1.1,3.3-2.4,6.1-3.7,8.4
			"/>
	</g>
	<path class="st2" d="M16.5,29.1c0,0-3.7,7,1.4,14.2c-1.5-6,4.1-8.8,9.4-6.5c-4-3.8-7.9-6-10.5-7.5C16.8,29.2,16.6,29.1,16.5,29.1z"
		/>
	<path class="st1" d="M36.2,36.7c0.7-1.5,1.3-3.3,1.9-5.2"/>
	<path class="st1" d="M38.1,31.5c0.3-1.1,0.7-2.3,0.9-3.5c1.7-7.3,1.2-13.1,1.1-16.3c1.1-0.4,2-1.3,2.3-2.5c0.4-1.9-0.8-3.7-2.6-4.2
		c-1.9-0.4-3.7,0.8-4.2,2.6c0,0.1,0,0.2-0.1,0.3c-0.5-0.8-1.3-1.5-2.3-1.7c-1.9-0.4-3.7,0.8-4.2,2.6C29,9.3,29,9.6,29,9.9
		c-0.4-0.4-1-0.7-1.6-0.9c-1.9-0.4-3.7,0.8-4.2,2.6c-0.2,0.9,0,1.8,0.4,2.6c-0.2-0.1-0.4-0.1-0.6-0.2c-1.9-0.4-3.7,0.8-4.2,2.6
		c-0.3,1.3,0.2,2.6,1.1,3.4"/>
	<path class="st2" d="M35.6,12.5c0,0-7.9,0.7-11.2,8.8c4.2-4.5,9.6-1.3,10.5,4.5C36,20.4,35.8,16,35.6,13
		C35.6,12.8,35.6,12.7,35.6,12.5z"/>
</g>
<circle class="st3" cx="32.5" cy="32.5" r="31.7"/>
<path class="st4" d="M46.4,43.7l-3.7-1.5c-0.4-0.2-0.7-0.7-0.5-1.1l1.6-4c0.1-0.3,0.5-0.5,0.8-0.4l3.9,1.6c0.5,0.2,0.7,0.7,0.5,1.2
	l-1.5,3.7C47.3,43.7,46.8,43.9,46.4,43.7z"/>
<path class="st5" d="M47.7,40.3l-0.8,1.8c-0.1,0.3-0.5,0.5-0.9,0.4l-1.7-0.7"/>
</svg>
