<?xml version="1.0" encoding="utf-8"?>
<!-- Generator: Adobe Illustrator 25.2.0, SVG Export Plug-In . SVG Version: 6.00 Build 0)  -->
<svg version="1.1" id="Layer_1" xmlns="http://www.w3.org/2000/svg" xmlns:xlink="http://www.w3.org/1999/xlink" x="0px" y="0px"
	 viewBox="0 0 74.8 71.8" style="enable-background:new 0 0 74.8 71.8;" xml:space="preserve">
<style type="text/css">
	.st0{fill:none;stroke:#4E1036;stroke-width:1.573;stroke-linecap:round;stroke-linejoin:round;stroke-miterlimit:10;}
	.st1{fill:none;stroke:#990033;stroke-width:1.5734;stroke-linecap:round;stroke-linejoin:round;stroke-miterlimit:10;}
	.st2{fill:none;stroke:#CC0033;stroke-width:1.5734;stroke-linecap:round;stroke-linejoin:round;stroke-miterlimit:10;}
	.st3{fill:#990033;}
	.st4{fill:none;stroke:#7EB341;stroke-linecap:round;stroke-linejoin:round;stroke-miterlimit:10;}
	.st5{fill:none;stroke:#F47B26;stroke-linecap:round;stroke-linejoin:round;stroke-miterlimit:10;}
	.st6{fill:#F8AF7C;}
</style>
<g>
	<path class="st0" d="M70.9,46.5c0.5-1.6,0.9-3.2,1.1-4.8"/>
	<g>
		<g>
			<path id="XMLID_2814_" class="st1" d="M45.2,31.9c0,0,7.9-9.7,3.4-18.9"/>
			<path id="XMLID_2813_" class="st1" d="M49.1,35c0,0,3-1.8,5-5.5"/>
			<path id="XMLID_2812_" class="st1" d="M34,46.5c0,0-7.2,10.2-17.3,8.2"/>
			<path id="XMLID_2811_" class="st1" d="M38,49.5c0,0-2.5,8.7-12.3,10.6"/>
			<path id="XMLID_2808_" class="st1" d="M54.3,56.3c-0.9,1.7-1.4,3.9-0.7,6.5c0.5,1.9,2.7,3.6,4.7,3.4c1.1-0.1,2.1-0.6,2.5-2.3
				c0.2-0.7,0.7-1.1,1.5-1.2c1.2-0.1,2.7-0.7,2.6-3c-0.1-0.9,0.5-1.6,1.4-1.8c2.3-0.4,2.4-2.1,2.2-3.3c-0.1-0.8,0.1-1.4,0.7-1.8
				c1.5-0.9,1.8-2,1.6-3c-0.4-1.9-2.5-3.6-4.5-3.6c-2.7,0-4.7,1.1-6.1,2.4"/>
			<path id="XMLID_210_" class="st2" d="M31.9,12.2c0,0-6.1-6.4-11.7-6.6c0,0,7.3-7.6,15.8-0.7c2.6,2.1,4.5,5,5.5,8.2l0,0
				c1.6,5.3,1.6,11-0.1,16.2l0,0"/>
			<path id="XMLID_168_" class="st2" d="M36.1,27.2l1-3.9c0.6-2.2-0.9-4.5-3.1-4.8c-3.6-0.6-8.6-3.9-9.5-8.7"/>
			<path id="XMLID_212_" class="st2" d="M11.7,38.7c0,0-7.8-4.2-9.4-9.5c0,0-5.4,9,3.5,15.4c2.8,2,6,3,9.4,3.1l0,0
				c5.5,0.2,10.9-1.3,15.5-4.3"/>
			<path id="XMLID_211_" class="st2" d="M27.1,38.9l-3.3,1.9c-2,1.2-4.5,0.3-5.5-1.7c-1.5-3.3-6-7.2-10.9-6.8"/>
			<path id="XMLID_2805_" class="st1" d="M27.2,34.9c-0.7-0.5-0.8-1.5-0.3-2.3c0.5-0.7,1.5-0.8,2.3-0.3"/>
			<path id="XMLID_2804_" class="st1" d="M30.2,30.8c-0.7-0.5-0.8-1.5-0.3-2.3s1.5-0.8,2.3-0.3"/>
			<path id="XMLID_2803_" class="st2" d="M45.6,52.6c1.9-4.4,4.8-8.2,8.6-11.2"/>
			<path id="XMLID_2802_" class="st2" d="M50.8,55.2c1.8-3.6,4.2-6.9,7.3-9.6"/>
			<path id="XMLID_2801_" class="st1" d="M26.2,26.4c0,0-9.3-8.4-9.9-20.3"/>
			<path id="XMLID_2800_" class="st1" d="M23.8,29.6c0,0-10.6-6.7-22.2-4.2"/>
			<path class="st3" d="M39,46.2c1.4-3.8,4-7.1,7.2-9.5c-1.3-1.1-3.1-2.5-5.1-3.7c-3.6,1.9-6.1,5.4-6.9,9.4
				C35.9,43.9,37.6,45.2,39,46.2z"/>
			<path id="XMLID_2810_" class="st2" d="M23.8,27.1c-1.2,14.4,17,24,17,24l0.8-2.6c1.2-4.1,3.9-7.6,7.6-9.9l2.3-1.4
				C51.4,37.1,37.4,22.2,23.8,27.1z"/>
			<path id="XMLID_2809_" class="st2" d="M41.2,49.6c7.9,6.1,13.9,7.3,17.4,7.3c2.1,0,3.7-2,3.1-4.1C60.8,49.4,58.1,44,50.1,38"/>
		</g>
		<path class="st0" d="M3,45.4c4.1,14.9,17.9,25.9,34.1,25.9c6.1,0,11.9-1.6,17-4.3"/>
		<path class="st0" d="M14.7,8.5c-4.3,3.5-7.7,8-9.9,13.1"/>
		<path class="st0" d="M68.6,19.7C62.8,8.3,50.9,0.5,37.2,0.5c-1.7,0-3.3,0.1-5,0.3"/>
		<path id="XMLID_5_" class="st4" d="M71.9,28.8c1.5,0.6,0.9,2.8-0.7,2.5c-0.6-0.1-1.6,0.5-2.7,1.2c0,0,1.2,1.3,3.1,0.7
			c3-1,2.6,2.7,0.4,2.7c0,0,0.4,0.1,1.2,0.7c0.9,0.6,1,1.7,0.8,2c-0.2,0.3-1.1,0.8-2.1,0.4c-0.9-0.4-1.2-0.6-1.2-0.6
			c1.2,1.9-1.7,4.2-2.5,1.1c-0.5-2-2.3-2.3-2.3-2.3c0,1.3,0,2.5,0.5,2.9c1.1,1.2-0.4,2.9-1.8,1.9c-1.1-0.8-1.2-2-1.2-2
			c-1.6,1.1-3.6-0.2-3.3-1.9c0.3-2.2-0.1-4.5-0.6-6"/>
		<g>
			<path class="st5" d="M73.4,23.3c-0.6,2.1-1.9,4-3.7,5.5c-4.6,3.5-11.1,2.6-14.5-2c-1.7-2.3-2.4-5.1-2-7.7"/>
			<path class="st6" d="M71.4,23.2c-0.4,1.1-1,2.1-1.8,3c-0.3,0.3-0.9,0.3-1.2-0.1L66,22.9c-0.4-0.5,0-1.3,0.7-1.2l4.1,0.6
				C71.2,22.3,71.5,22.7,71.4,23.2z"/>
			<path class="st6" d="M62.3,23.8l-0.6,4.1c-0.1,0.5-0.5,0.8-1,0.6c-1.1-0.4-2.1-1-3-1.8c-0.3-0.3-0.3-0.9,0.1-1.2l3.3-2.5
				C61.6,22.7,62.4,23.2,62.3,23.8z"/>
			<path class="st6" d="M67.2,28.1c-1.1,0.5-2.2,0.8-3.4,0.9c-0.5,0-0.8-0.4-0.8-0.9l0.6-4.1c0.1-0.7,1-0.9,1.4-0.4l2.5,3.3
				C67.7,27.3,67.6,27.8,67.2,28.1z"/>
			<path class="st6" d="M60.3,22.1L57,24.6c-0.4,0.3-0.9,0.2-1.1-0.2c-0.5-1.1-0.8-2.2-0.9-3.4c0-0.5,0.4-0.8,0.9-0.8l4.1,0.6
				C60.6,20.8,60.8,21.7,60.3,22.1z"/>
		</g>
	</g>
</g>
</svg>
