<?xml version="1.0" encoding="utf-8"?>
<!-- Generator: Adobe Illustrator 25.1.0, SVG Export Plug-In . SVG Version: 6.00 Build 0)  -->
<svg version="1.1" id="Layer_1" xmlns="http://www.w3.org/2000/svg" xmlns:xlink="http://www.w3.org/1999/xlink" x="0px" y="0px"
	 viewBox="0 0 68.7 61.2" style="enable-background:new 0 0 68.7 61.2;" xml:space="preserve">
<style type="text/css">
	.st0{fill:none;stroke:#F8AF7C;stroke-width:1.5734;stroke-linecap:round;stroke-linejoin:round;stroke-miterlimit:10;}
	.st1{fill:none;stroke:#990033;stroke-width:1.5734;stroke-linecap:round;stroke-linejoin:round;stroke-miterlimit:10;}
	.st2{fill:#F47B26;}
</style>
<g>
	<path class="st0" d="M12.1,17.9l-1.3-7.4c-0.3-1.5,0.5-3,1.7-3.3l1.9-0.5"/>
	<path class="st0" d="M18.2,15L17,4.7c-0.2-1.5,0.7-3,1.9-3.2L21.7,1c1.2-0.2,2.4,0.8,2.6,2.4l0,0"/>
	<path class="st0" d="M24.9,24.7L24.6,9.9c0-1.5,1-2.8,2.2-2.9l2.8-0.1c1.2,0,2.3,1.2,2.3,2.7l0.5,23.5"/>
	<path class="st0" d="M40.6,9.2l2.8,0.4c1.2,0.2,2.1,1.6,2,3.1l-1.2,11.7"/>
	<path class="st0" d="M30.1,4V2.8c0-1.5,1-2.8,2.3-2.8h2.9c1.2,0,2.3,1.3,2.3,2.8v25.8"/>
	<path class="st0" d="M55.5,17.9l1.3-7.4c0.3-1.5-0.5-3-1.7-3.3l-1.9-0.5"/>
	<path class="st0" d="M49.4,15.4l1.3-10.8c0.2-1.5-0.7-3-1.9-3.2L46,1c-1.2-0.2-2.4,0.8-2.6,2.4l0,0"/>
	<path class="st1" d="M51.8,17.9c-1.3,0-2.4,1.1-2.8,2.6c-1.7,7.3-7.6,12.7-14.7,12.7c-7,0-13-5.4-14.7-12.7
		c-0.4-1.5-1.5-2.6-2.8-2.6H11c-1.8,0-3,2-2.6,4.2l7.1,36c0.3,1.6,1.5,2.7,2.8,2.7h16h16c1.3,0,2.5-1.1,2.8-2.7l7.1-36
		c0.4-2.1-0.9-4.2-2.6-4.2H51.8z"/>
	<path class="st1" d="M52.2,60.1l-4.5-6.3c-0.7-1-1.7-1.5-2.7-1.5H34.4H23.8c-1,0-2,0.6-2.7,1.5l-4.5,6.3"/>
	<path class="st2" d="M34.4,40h-8.6c-2.9,0-5.6-1.6-7.4-4.4l-6.1-9.5l5.3,27l1.3-1.8c1.3-1.7,3.1-2.7,4.9-2.7h21.2
		c1.9,0,3.7,1,4.9,2.8l1.3,1.8l5.3-27l-6.1,9.5C48.6,38.4,45.8,40,43,40H34.4z"/>
</g>
</svg>
