<?xml version="1.0" encoding="utf-8"?>
<!-- Generator: Adobe Illustrator 25.1.0, SVG Export Plug-In . SVG Version: 6.00 Build 0)  -->
<svg version="1.1" id="Layer_1" xmlns="http://www.w3.org/2000/svg" xmlns:xlink="http://www.w3.org/1999/xlink" x="0px" y="0px"
	 viewBox="0 0 68.7 61.2" style="enable-background:new 0 0 68.7 61.2;" xml:space="preserve">
<style type="text/css">
	.st0{fill:none;stroke:#681648;stroke-width:1.5734;stroke-linecap:round;stroke-linejoin:round;stroke-miterlimit:10;}
	.st1{fill:#8D5075;}
	.st2{fill:none;stroke:#F8AF7C;stroke-width:1.5734;stroke-linecap:round;stroke-linejoin:round;stroke-miterlimit:10;}
</style>
<g>
	<path class="st0" d="M64.9,41c0-14-10.8-28-30.6-28S3.8,26.9,3.8,41H64.9z"/>
	<path class="st0" d="M38.3,13.1c0.3-0.6,0.5-1.3,0.5-2.1c0-2.5-2-4.5-4.5-4.5c-2.5,0-4.5,2-4.5,4.5c0,0.8,0.2,1.5,0.5,2.1"/>
	<path class="st1" d="M36.2,15.9c6.9,5.9,12.2,13.7,15.2,22.2h10.5C60.6,27,51.8,16.6,36.2,15.9z"/>
	<g>
		<path class="st2" d="M57.7,41h9c1.2,0,2.1,0.8,2.1,1.7l0,0c0,1-1,1.7-2.1,1.7h-3.6c0,0,0.2,6.6-10.7,6.6H34.3H16.2
			c-10.9,0-10.7-6.6-10.7-6.6H1.9c-1.2,0-2.1-0.8-2.1-1.7l0,0c0-1,1-1.7,2.1-1.7h9.2L57.7,41z"/>
		<path class="st2" d="M49.5,55.4H19.2c-1.7,0-3-1.2-3-2.5v-1.8h36.4v1.8C52.6,54.2,51.3,55.4,49.5,55.4z"/>
	</g>
</g>
</svg>
