<?xml version="1.0" encoding="utf-8"?>
<!-- Generator: Adobe Illustrator 25.1.0, SVG Export Plug-In . SVG Version: 6.00 Build 0)  -->
<svg version="1.1" id="Layer_1" xmlns="http://www.w3.org/2000/svg" xmlns:xlink="http://www.w3.org/1999/xlink" x="0px" y="0px"
	 viewBox="0 0 68.2 68.2" style="enable-background:new 0 0 68.2 68.2;" xml:space="preserve">
<style type="text/css">
	.st0{fill:none;stroke:#4E1036;stroke-width:1.5734;stroke-linecap:round;stroke-linejoin:round;stroke-miterlimit:10;}
	.st1{fill:none;stroke:#F8AF7C;stroke-width:1.5734;stroke-linecap:round;stroke-linejoin:round;stroke-miterlimit:10;}
	.st2{fill:#F8AF7C;}
	.st3{fill:none;stroke:#F47B26;stroke-width:1.5734;stroke-linecap:round;stroke-linejoin:round;stroke-miterlimit:10;}
</style>
<g>
	<path class="st0" d="M53.2,15.6c0-0.4-0.3-0.7-0.7-0.7c-0.4,0-0.7,0.3-0.7,0.7c0,0.4,0.3,0.7,0.7,0.7C52.9,16.3,53.2,16,53.2,15.6z
		"/>
	<circle class="st0" cx="60.3" cy="23.4" r="0.7"/>
	<path class="st0" d="M45.6,15.5c0-0.4-0.3-0.7-0.7-0.7c-0.4,0-0.7,0.3-0.7,0.7c0,0.4,0.3,0.7,0.7,0.7
		C45.3,16.2,45.6,15.9,45.6,15.5z"/>
	<path class="st0" d="M53.3,23.2c0-0.4-0.3-0.7-0.7-0.7c-0.4,0-0.7,0.3-0.7,0.7c0,0.4,0.3,0.7,0.7,0.7C53,23.9,53.3,23.6,53.3,23.2z
		"/>
	<line class="st1" x1="44.1" y1="7.2" x2="45.5" y2="8.6"/>
	<g>
		<path class="st2" d="M49.3,67.2c-1.4-0.5-2.5-1.9-2.1-3.7c0.7-2.8,1.3-6.3,0.9-9.8l5.3,0C52.6,60.8,50,65.9,49.3,67.2z"/>
		<path class="st2" d="M14.4,20.1c-3.5-0.4-6.9,0.1-9.8,0.9c-1.7,0.4-3.2-0.6-3.7-2.1c1.3-0.7,6.5-3.3,13.4-4.1L14.4,20.1z"/>
		<path class="st2" d="M28,25.8c-3.8-1.9-8.6-2.7-11.4-3c-1.3-0.1-2.3-1.2-2.3-2.5l0-0.1l0-5.3c5.2-0.6,11.5-0.2,17.9,2.8L28,25.8z"
			/>
		<path class="st2" d="M50.6,35.9l-8.2,4.2L40.8,41c-0.8,0.4-1.8,0.3-2.5-0.4L27.6,29.8c-0.7-0.7-0.8-1.7-0.4-2.5l0.8-1.6l4.2-8.2
			c3.6,1.7,7.2,4.1,10.7,7.6C46.5,28.7,49,32.4,50.6,35.9z"/>
		<path class="st2" d="M53.4,53.8l-5.3,0l-0.1,0c-1.3,0-2.4-1-2.5-2.3c-0.3-2.8-1.1-7.6-3-11.4l8.2-4.2C53.6,42.3,54,48.6,53.4,53.8
			z"/>
	</g>
	<g>
		<path class="st3" d="M40,2.5c-2.3-0.5-12.6-2.6-24,1.5c-1,0.4-1.7,1.3-1.7,2.4l0,13.9c0,1.3,1,2.4,2.3,2.5c2.8,0.3,7.6,1.1,11.4,3
			"/>
		<path class="st3" d="M58,10.2c0,0-5.6-5.4-12.2-8.9c-2.2-1.2-5-0.3-6.2,2L27.2,27.3c-0.4,0.8-0.3,1.8,0.4,2.5l5.4,5.4l5.4,5.4
			c0.7,0.7,1.7,0.8,2.5,0.4l24.1-12.4c2.2-1.2,3.1-3.9,2-6.2C63.4,15.8,58,10.2,58,10.2z"/>
		<path class="st3" d="M14.4,7.1c0,0-8.1,3.3-12.9,8.9c-1.9,2.3,0.3,5.7,3.1,4.9c2.8-0.7,6.3-1.2,9.8-0.9"/>
		<path class="st3" d="M65.7,28.2c0.5,2.3,2.6,12.6-1.5,24c-0.4,1-1.3,1.7-2.4,1.7l-13.9,0c-1.3,0-2.4-1-2.5-2.3
			c-0.3-2.8-1.1-7.6-3-11.4"/>
		<path class="st3" d="M61.1,53.8c0,0-3.3,8.1-8.9,12.9c-2.3,1.9-5.7-0.3-4.9-3.1c0.7-2.8,1.2-6.3,0.9-9.8"/>
	</g>
	<path class="st0" d="M45.5,7.9c0-0.4-0.3-0.7-0.7-0.7c-0.4,0-0.7,0.3-0.7,0.7c0,0.4,0.3,0.7,0.7,0.7C45.2,8.6,45.5,8.3,45.5,7.9z"
		/>
</g>
</svg>
