<?xml version="1.0" encoding="utf-8"?>
<!-- Generator: Adobe Illustrator 25.1.0, SVG Export Plug-In . SVG Version: 6.00 Build 0)  -->
<svg version="1.1" id="Layer_1" xmlns="http://www.w3.org/2000/svg" xmlns:xlink="http://www.w3.org/1999/xlink" x="0px" y="0px"
	 viewBox="0 0 65.2 68.7" style="enable-background:new 0 0 65.2 68.7;" xml:space="preserve">
<style type="text/css">
	.st0{fill:none;stroke:#681648;stroke-width:1.5734;stroke-linecap:round;stroke-linejoin:round;stroke-miterlimit:10;}
	.st1{fill:none;stroke:#990033;stroke-width:1.5734;stroke-linecap:round;stroke-linejoin:round;stroke-miterlimit:10;}
	.st2{fill:#FF6D3B;}
	.st3{fill:none;stroke:#F47B26;stroke-width:1.5734;stroke-linecap:round;stroke-linejoin:round;stroke-miterlimit:10;}
	.st4{fill:none;stroke:#F8AF7C;stroke-width:1.5734;stroke-linecap:round;stroke-linejoin:round;stroke-miterlimit:10;}
	.st5{fill:#F8AF7C;}
</style>
<g>
	<g>
		<path class="st0" d="M54.2,52h8.3c1.1,0,1.9,0.9,1.9,1.9l0,0c0,1.1-0.9,1.9-1.9,1.9h-3.3c0,0,0.2,7.3-9.9,7.3H32.6H15.9
			C5.8,63.1,6,55.8,6,55.8H2.7c-1.1,0-1.9-0.9-1.9-1.9l0,0c0-1.1,0.9-1.9,1.9-1.9h8.5"/>
		<path class="st0" d="M46.7,67.9h-28c-1.6,0-2.8-1.3-2.8-2.8v-2h33.6v2C49.5,66.6,48.3,67.9,46.7,67.9z"/>
	</g>
	<g>
		<path class="st1" d="M11.6,43.5L7,42.8c-0.2,0-0.4-0.2-0.5-0.4s0-0.5,0.1-0.7l2.9-3.2l2.9-3.2c0.2-0.2,0.4-0.3,0.6-0.2
			c0.2,0.1,0.4,0.2,0.5,0.5l1.3,4.5"/>
		<g>
			<path class="st1" d="M47.7,44c0,0,1.3,0.9,1.6,2.6"/>
		</g>
		<g>
			<path class="st1" d="M44.3,46.6c0,0,1.1,1.1,1.2,2.9"/>
		</g>
		<g>
			<path class="st1" d="M40.7,48.7c0,0,0.9,1.2,0.6,3"/>
		</g>
		<path class="st1" d="M13,49.2c10.6,10.9,28.6,10.9,39.3,0c2.6-2.6,2-7-1.2-8.8c0,0-0.1,0-0.1-0.1c-2.2-1.3-5-0.9-6.8,1
			c-6.3,6.4-16.8,6.4-23.1,0c-1.8-1.8-4.6-2.2-6.8-1c0,0-0.1,0-0.1,0.1C11,42.2,10.4,46.5,13,49.2z"/>
		<path class="st1" d="M53.6,43.5l4.6-0.7c0.2,0,0.4-0.2,0.5-0.4s0-0.5-0.1-0.7l-2.9-3.2l-2.9-3.2c-0.2-0.2-0.4-0.3-0.6-0.2
			c-0.2,0.1-0.4,0.2-0.5,0.5l-1.3,4.5"/>
		<path class="st2" d="M28.6,49.4c-3.9-0.8-7.4-2.7-10.2-5.5c-0.4-0.4-0.9-0.6-1.4-0.6c-0.3,0-0.7,0.1-1,0.3h-0.1
			C15.2,44,15,44.6,15,45c-0.1,0.4,0,1,0.5,1.6c2.8,2.8,6.1,4.9,9.9,6C26.4,51.1,27.5,50.1,28.6,49.4z"/>
	</g>
	<g>
		<path class="st3" d="M0.8,39.3v-4v-4.6c0-4.2,3.4-7.6,7.6-7.6h2.8"/>
		<line class="st3" x1="11.2" y1="29.4" x2="11.2" y2="19.2"/>
		<line class="st3" x1="40.8" y1="18" x2="40.8" y2="37.3"/>
		<path class="st4" d="M35,16.3c2.2,3.3,5.8,1.6,5.8,1.6c1.9-0.9,3.5-3,3.5-5.2c0-3.1-2.5-5.6-5.6-5.6c-0.2,0-0.3,0-0.5,0
			c-0.4-3.6-3.5-6.3-7.2-6.3c-2.7,0-5,1.4-6.2,3.6c-1-1-2.3-1.7-3.9-1.7c-2.9,0-5.3,2.4-5.3,5.3c0,0.1,0,0.1,0,0.2
			c-0.5-0.1-1-0.2-1.5-0.2c-3.3,0-6,2.7-6,6c0,2.3,1.2,4.2,3.1,5.2c0,0,3.3,1.6,5.3-1.5"/>
		<path class="st4" d="M24.8,4.3c0,0,2.5,2.8,0.2,5.7"/>
		<path class="st4" d="M38.2,7.1c0,0-1.9,0.2-2.8,1.9"/>
		<path class="st5" d="M34.9,40.8V25.7c0-1-0.8-1.7-1.7-1.7c-1,0-1.7,0.8-1.7,1.7V41c0.4,0,0.8,0.1,1.2,0.1
			C33.4,41,34.2,41,34.9,40.8z"/>
		<path class="st5" d="M27.7,25.7c0-1-0.8-1.7-1.7-1.7c-1,0-1.7,0.8-1.7,1.7V38c1,0.9,2.2,1.5,3.5,2L27.7,25.7L27.7,25.7z"/>
		<path class="st5" d="M20.5,25.7c0-1-0.8-1.7-1.7-1.7l0,0c-1,0-1.7,0.8-1.7,1.7v8.8c1.2,0,2.4,0.3,3.5,0.8L20.5,25.7L20.5,25.7z"/>
	</g>
</g>
</svg>
