<?xml version="1.0" encoding="utf-8"?>
<!-- Generator: Adobe Illustrator 25.1.0, SVG Export Plug-In . SVG Version: 6.00 Build 0)  -->
<svg version="1.1" id="Layer_1" xmlns="http://www.w3.org/2000/svg" xmlns:xlink="http://www.w3.org/1999/xlink" x="0px" y="0px"
	 viewBox="0 0 76.5 66" style="enable-background:new 0 0 76.5 66;" xml:space="preserve">
<style type="text/css">
	.st0{fill:none;stroke:#990033;stroke-width:1.5734;stroke-linecap:round;stroke-linejoin:round;stroke-miterlimit:10;}
	.st1{fill:none;stroke:#681648;stroke-width:1.5734;stroke-linecap:round;stroke-linejoin:round;stroke-miterlimit:10;}
	.st2{fill:none;stroke:#6A941B;stroke-width:1.5734;stroke-linecap:round;stroke-linejoin:round;stroke-miterlimit:10;}
	.st3{fill:none;stroke:#7EB341;stroke-width:1.5734;stroke-linecap:round;stroke-linejoin:round;stroke-miterlimit:10;}
	.st4{fill:none;stroke:#7EB341;stroke-width:1.5734;stroke-linecap:round;stroke-linejoin:round;stroke-miterlimit:9.9997;}
	.st5{fill:none;stroke:#A81E33;stroke-width:1.5734;stroke-linecap:round;stroke-linejoin:round;stroke-miterlimit:10;}
	.st6{fill:none;stroke:#F47B26;stroke-width:1.5734;stroke-linecap:round;stroke-linejoin:round;stroke-miterlimit:10;}
	.st7{fill:#F8AF7C;}
</style>
<g>
	<g>
		<g>
			<path class="st0" d="M7.1,40.3c0-5.3,4.3-9.6,9.6-9.6s9.6,4.3,9.6,9.6"/>
			<line class="st1" x1="16.7" y1="34.5" x2="16.7" y2="35.6"/>
			<line class="st1" x1="12.6" y1="36.2" x2="13.4" y2="37"/>
			<line class="st1" x1="20.9" y1="36.2" x2="20.1" y2="37"/>
		</g>
		<g>
			<path class="st0" d="M44.6,40.3c0-5.3,4.3-9.6,9.6-9.6s9.6,4.3,9.6,9.6"/>
			<line class="st1" x1="54.3" y1="34.5" x2="54.3" y2="35.6"/>
			<line class="st1" x1="50.1" y1="36.2" x2="50.9" y2="37"/>
			<line class="st1" x1="58.4" y1="36.2" x2="57.6" y2="37"/>
		</g>
		<path class="st2" d="M30.2,15.9c0,0-4.2-9,2.2-15.1c0,0,4.1,2.4,5.9,7"/>
		<g>
			<path class="st3" d="M25.3,21.4c0,0,1.4-4.7-0.7-8.4c0,0-3.3,1.8-5.4,5.7c0,0-1.8-5.1-3.5-7.6c-1,1.3-2.7,1.6-4.1,0.9l-1.4-0.7
				C10.1,12,10.1,12.5,10,13c-0.2,1.5-1.4,2.7-2.9,2.9c1,2.1,4.1,7,4.1,7c-4,0-7.1,1.7-7.1,1.7c1.5,2.7,4.4,4.1,5.9,4.7"/>
		</g>
		<path class="st2" d="M26.1,30.2c1,1.6,3.2,2.1,4.9,1.1c1.6-1,2.1-3.2,1.1-4.9l8.1-5.1c1.9,3.1,2.5,6.6,1.7,9.9
			c-0.4,1.7-1.1,3.4-2.2,4.9"/>
		<path class="st2" d="M70.2,32l-3.8-6.8c-1.7,1-3.8,0.4-4.8-1.3c-1-1.7-0.4-3.8,1.3-4.8l-4.8-8.3c-3.1,1.8-5.3,4.7-6.1,7.9
			c-0.8,2.8-0.6,5.9,0.7,8.8"/>
		<line class="st2" x1="15.5" y1="21.3" x2="18.1" y2="26.6"/>
		<g>
			<line class="st1" x1="37.5" y1="14.6" x2="30.6" y2="19.1"/>
			<ellipse transform="matrix(0.8502 -0.5264 0.5264 0.8502 0.909 24.6015)" class="st4" cx="43.7" cy="10.7" rx="7.3" ry="5.8"/>
			<path class="st5" d="M50.3,11.3c-1.7,0.4-3.5-0.4-4.5-1.9c-1-1.6-0.8-3.5,0.3-4.9"/>
		</g>
	</g>
	<g>
		<path class="st6" d="M48.7,60h5c8.1,0,15-6.1,15.8-14.2c0.1-0.6,0.1-1,0.1-1h3.9c1.2,0,2.2-1,2.2-2.2l0,0c0-1.2-1-2.2-2.2-2.2
			h-3.9H6.9H3c-1.2,0-2.2,1-2.2,2.2l0,0c0,1.2,1,2.2,2.2,2.2h3.9c0,0,0,0.4,0.1,1C7.8,53.9,14.7,60,22.8,60h5H48.7z"/>
		<path class="st6" d="M55.9,59.8V62c0,1.7-1.4,3.2-3.2,3.2h-29c-1.7,0-3.2-1.4-3.2-3.2v-2.2"/>
		<path class="st7" d="M58.9,44.8c0,2.5-0.7,7.7-4.6,11.9c7.7-0.3,10.5-5.9,11.5-9.3c0.2-0.8,0.4-1.7,0.5-2.6H58.9z"/>
	</g>
</g>
</svg>
