<?xml version="1.0" encoding="utf-8"?>
<!-- Generator: Adobe Illustrator 25.2.0, SVG Export Plug-In . SVG Version: 6.00 Build 0)  -->
<svg version="1.1" id="Layer_1" xmlns="http://www.w3.org/2000/svg" xmlns:xlink="http://www.w3.org/1999/xlink" x="0px" y="0px"
	 viewBox="0 0 76 44.9" style="enable-background:new 0 0 76 44.9;" xml:space="preserve">
<style type="text/css">
	.st0{fill:none;stroke:#CC0033;stroke-width:1.573;stroke-linecap:round;stroke-linejoin:round;stroke-miterlimit:10;}
	.st1{fill:none;stroke:#4E1036;stroke-width:1.5734;stroke-linecap:round;stroke-linejoin:round;stroke-miterlimit:10;}
	.st2{fill:none;stroke:#F47B26;stroke-width:1.573;stroke-linecap:round;stroke-linejoin:round;stroke-miterlimit:10;}
</style>
<g>
	<g>
		<path class="st0" d="M45.6,8.7c-1.6-1-3-1.7-3.5-1.8c0.6-1.6,1.7-4-0.4-4.4s-1.4,0.8-4.4-0.2c-3.8-1.3-0.8,4.3-0.8,4.3
			c-1.3,0.4-3,1.2-4.6,2.2"/>
		<path class="st0" d="M40.8,9.5c0.4,0.2,1.5,0.9,2.5,1.6"/>
		<path class="st0" d="M36.3,9.3c-0.5,0.2-1.4,0.9-2.3,1.8"/>
		<path class="st0" d="M38.5,9.9c-0.2,1.2,0,2.8,0.2,3.4c0.2,1,0,2.9-1.4,3.8"/>
	</g>
	<g>
		<path class="st1" d="M38,39.2H18.5c-11.9,0-11.6-7.5-11.6-7.5H3c-1.2,0-2.2-0.9-2.2-2l0,0c0-1.1,1-2,2.2-2h3.9H38h31.1H73
			c1.2,0,2.2,0.9,2.2,2l0,0c0,1.1-1,2-2.2,2h-3.9c0,0,0.3,7.5-11.6,7.5H38z"/>
		<path class="st1" d="M54.9,44.1H21.4c-1.6,0-2.9-1.3-2.9-2.9v-2.1h39.3v2.1C57.8,42.8,56.5,44.1,54.9,44.1z"/>
	</g>
	<g>
		<path class="st2" d="M69.6,24.4c0.8-0.8,1.3-1.7,1.5-2.7c1.7-7.2-3.8-13.2-11.7-15.2c1.1-1,3.2-5.4,0.3-4.9s-6.9-2.1-7.2,0
			c-0.3,2,0.9,4.5,0.9,4.5c-4.9,2.2-16,10.6-9,17.9c0.3,0.3,0.6,0.6,0.9,0.9"/>
		<path class="st2" d="M60.6,9.4c2.4,1.1,3.7,4.1,3.2,6"/>
		<path class="st2" d="M55,8.1c-1.6,1-6.1,4.1-5.9,6.5"/>
		<path class="st2" d="M57.8,9.4c1.5,1.4,1.7,4.6,1,7.1"/>
	</g>
	<g>
		<path class="st2" d="M31.5,24.9c0.4-0.4,0.7-0.7,1-1.1c4.9-6.8-1.2-15.6-11.7-17.5C21,6.4,23.5,2.4,21,1.6s-2.9,2.5-6,1
			c-2.3-1.2-3.8,2.2-0.4,4.4"/>
		<path class="st2" d="M14.8,7.4C10.2,9.9,1.5,15.8,4.7,22.5c0.3,0.7,0.8,1.3,1.5,1.9"/>
		<path class="st2" d="M22.4,9.8c2.9,0.2,6.1,4.2,5.9,5.8"/>
		<path class="st2" d="M16.8,9.4c-2,1.1-4.9,5.3-4.8,7.1"/>
		<path class="st2" d="M19.3,9.9c1.6,1.5,2.4,1.8,1.8,6.4c-0.4,2.6-0.9,4.9-0.1,6.2"/>
	</g>
</g>
</svg>
