<?xml version="1.0" encoding="utf-8"?>
<!-- Generator: Adobe Illustrator 25.1.0, SVG Export Plug-In . SVG Version: 6.00 Build 0)  -->
<svg version="1.1" id="Layer_1" xmlns="http://www.w3.org/2000/svg" xmlns:xlink="http://www.w3.org/1999/xlink" x="0px" y="0px"
	 viewBox="0 0 67.9 71.3" style="enable-background:new 0 0 67.9 71.3;" xml:space="preserve">
<style type="text/css">
	.st0{fill:none;stroke:#681648;stroke-width:1.5734;stroke-linecap:round;stroke-linejoin:round;stroke-miterlimit:10;}
	.st1{fill:#990033;}
	.st2{fill:none;stroke:#7EB341;stroke-width:1.5734;stroke-linecap:round;stroke-linejoin:round;stroke-miterlimit:10;}
	.st3{fill:none;stroke:#F8AF7C;stroke-width:1.5734;stroke-linecap:round;stroke-linejoin:round;stroke-miterlimit:10;}
	.st4{fill:none;stroke:#F47B26;stroke-width:1.5734;stroke-linecap:round;stroke-linejoin:round;stroke-miterlimit:10;}
</style>
<g>
	<path class="st0" d="M49.6,62.9c8.5-5.6,14.1-15.3,14.1-26.3c0-1.8-0.1-3.5-0.4-5.2"/>
	<path id="XMLID_6_" class="st1" d="M38.3,16.3c-0.3-1,2.9-1,3.7-0.4c1.7,1.1,2.7,3.2,3.4,5.9c1,3.9,0.2,4.6,2.6,7.8
		c2.3,3.2,1.6,2.3,1.5,3.1c0,0.5-1.8,0-2,0.4l0,0c-1.6,0.4-1,1.4-3.1-0.5c-0.2-0.2-0.3-0.4-0.4-0.6L38.3,16.3z"/>
	<path id="XMLID_5_" class="st1" d="M28,58.2c-1.9-2.3-2.9-5.3-8-10.4l-4.6-5.9c3.7-1,8.4-2.3,10.5-3.2l0,0l-5.6-1.2H8.6
		c-1.6,0-5,12,4.6,15.6c3.8,1.4,4.5,0.7,7.5,3.3s5.1,2.1,5.9,2.1C27.2,58.6,27.6,58.5,28,58.2L28,58.2z"/>
	<path id="XMLID_360_" class="st0" d="M34.7,68.1c-0.8,0.1-1.6,0.1-2.4,0.1c-17.4,0-31.6-14.1-31.6-31.6c0-12.4,7.1-23.1,17.5-28.3"
		/>
	<path id="XMLID_358_" class="st0" d="M33.4,5.1c5.4,0.2,10.5,1.7,14.9,4.3"/>
	<path id="XMLID_353_" class="st2" d="M63.1,25.6c0,0,1.6,0.2,2.9-0.8c1.7-1.4-0.1-3.9-1.9-2.8c-0.7,0.4-2.1,0.1-3.9-0.3
		c0,0,0.9-2.1,3.6-2.1c4.2-0.1,2.1-4.4-0.7-3.5c0,0,0.4-0.4,1.2-1.4c0.9-1.2,0.5-2.5,0.1-2.8s-1.7-0.6-2.8,0.4
		c-0.9,0.8-1.3,1.3-1.3,1.3c0.7-2.8-3.8-4.5-3.6-0.4c0.2,2.6-1.9,3.7-1.9,3.7c-0.6-1.6-1-3.1-0.7-3.8c0.9-1.9-1.7-3.4-3-1.7
		c-1,1.4-0.6,3-0.6,3c-2.4-0.8-4.3,1.7-3.3,3.7c2.4,4.6,1.8,10.3,1.8,10.3l0,0l0,0c0,0,5.6-1,10.3,0.9C61.8,30.1,64.1,28,63.1,25.6z
		"/>
	<g id="XMLID_348_">
		<path id="XMLID_7_" class="st3" d="M37.7,15.6c-0.3-0.4-0.6-0.7-1-1.1C30.7,8.4,28.3,4,26.5,0.9c-1.7,3-4,7.4-10.3,13.7
			C10.9,20,14.7,21.3,5.6,37h4.3c6.8,0,10.3,1,13.2,1.6"/>
		<path id="XMLID_352_" class="st3" d="M45.1,32.8c-5.7-11-3.9-13.2-7.3-17.2"/>
		<path id="XMLID_351_" class="st3" d="M25.9,22.1c0-1.5,1.2-1.5,1.2-3.1c0-1.5-1.2-1.5-1.2-3.1c0-1.5,1.2-1.5,1.2-3.1
			c0-1.5-1.2-1.5-1.2-3.1"/>
		<path id="XMLID_350_" class="st3" d="M13.6,32.5c1.3-0.9,2,0.2,3.2-0.7c1.3-0.9,0.6-1.9,1.9-2.7c1.3-0.9,2,0.2,3.2-0.7
			c1.3-0.9,0.6-1.9,1.9-2.7"/>
		<path id="XMLID_349_" class="st3" d="M38.1,32.5c-1.3-0.9-2,0.2-3.2-0.7c-1.3-0.9-0.6-1.9-1.9-2.7c-1.3-0.9-2,0.2-3.2-0.7
			c-1.3-0.9-0.6-1.9-1.9-2.7"/>
		<path id="XMLID_3_" class="st4" d="M40,46.1c1.1-1.1,1.9-0.2,3-1.3s0.2-2,1.2-3c1.1-1.1,1.9-0.2,3-1.3s0.2-2,1.2-3"/>
		<path id="XMLID_2_" class="st4" d="M23.9,44.9c1.5,0.3,1.2,1.5,2.8,1.8c1.6,0.3,1.8-0.9,3.3-0.7c1.6,0.3,1.2,1.5,2.8,1.8
			c1.6,0.3,1.8-0.9,3.3-0.7"/>
		<path id="XMLID_1_" class="st4" d="M41.5,62.1c-0.3-1.5-1.6-1.2-1.8-2.8c-0.3-1.5,0.9-1.8,0.6-3.3c-0.3-1.5-1.6-1.2-1.8-2.8
			c-0.3-1.5,0.9-1.8,0.6-3.3"/>
	</g>
	<path id="XMLID_347_" class="st4" d="M43.8,70.3c4.5-17,8.1-15.2,8.1-22.6c0-8.3,1.5-13,2.4-16.2c-3.2,0.9-7.7,2.3-16.4,2.4
		c-7.3,0.1-5.6,3.5-22.5,8.1l3,3c8.2,8.2,7.2,11.6,12.6,14.9C36.8,63.3,40.3,66.9,43.8,70.3z"/>
	<path id="XMLID_4_" class="st4" d="M27.3,56.6c0.9,1.1,1.9,2.2,3.6,3.1c6,3.5,9.4,7.2,12.8,10.7c4.5-17,8.1-15.2,8.1-22.6
		c0-8.3,1.5-13,2.4-16.2c-3.2,0.9-7.7,2.3-16.4,2.4c-5.5,0-5.8,2-12.8,4.9"/>
</g>
</svg>
