<?xml version="1.0" encoding="utf-8"?>
<!-- Generator: Adobe Illustrator 25.2.0, SVG Export Plug-In . SVG Version: 6.00 Build 0)  -->
<svg version="1.1" id="Layer_1" xmlns="http://www.w3.org/2000/svg" xmlns:xlink="http://www.w3.org/1999/xlink" x="0px" y="0px"
	 viewBox="0 0 67.9 71.3" style="enable-background:new 0 0 67.9 71.3;" xml:space="preserve">
<style type="text/css">
	.st0{fill:none;stroke:#4E1036;stroke-width:1.5734;stroke-linecap:round;stroke-linejoin:round;stroke-miterlimit:10;}
	.st1{fill:none;stroke:#7EB341;stroke-width:1.5734;stroke-linecap:round;stroke-linejoin:round;stroke-miterlimit:10;}
	.st2{fill:none;stroke:#F8AF7C;stroke-width:1.5734;stroke-linecap:round;stroke-linejoin:round;stroke-miterlimit:10;}
	.st3{fill:none;stroke:#F47B26;stroke-width:1.5734;stroke-linecap:round;stroke-linejoin:round;stroke-miterlimit:10;}
</style>
<g>
	<path id="XMLID_360_" class="st0" d="M34.7,68.1c-0.8,0.1-1.6,0.1-2.4,0.1c-17.4,0-31.6-14.1-31.6-31.6c0-12.4,7.1-23.1,17.5-28.3"
		/>
	<path id="XMLID_359_" class="st0" d="M63.9,36.3c0,0.1,0,0.2,0,0.3c0,12-6.6,22.4-16.4,27.7"/>
	<path id="XMLID_358_" class="st0" d="M33.4,5.1c5.4,0.2,10.5,1.7,14.9,4.3"/>
	<path id="XMLID_353_" class="st1" d="M63.6,27.9c0,0,1.7,0.1,2.9-1.1c1.6-1.6-0.4-4-2.2-2.7c-0.7,0.5-2.2,0.3-4,0
		c0,0,0.8-2.2,3.5-2.5c4.3-0.4,1.8-4.7-1-3.5c0,0,0.4-0.4,1.1-1.5c0.8-1.3,0.3-2.6-0.1-2.9c-0.4-0.3-1.8-0.5-2.9,0.6
		c-0.9,0.9-1.2,1.4-1.2,1.4c0.5-2.9-4.3-4.3-3.7-0.1c0.4,2.7-1.6,4-1.6,4c-0.7-1.6-1.3-3.1-1-3.8c0.8-2-2-3.4-3.2-1.5
		c-0.9,1.5-0.4,3.1-0.4,3.1c-2.5-0.6-4.3,2.1-3.1,4.1c2.8,4.5,2.7,10.4,2.7,10.4l0,0v0c0,0,5.7-1.5,10.7,0.1
		C62.6,32.6,64.8,30.3,63.6,27.9z"/>
	<g id="XMLID_348_">
		<path id="XMLID_7_" class="st2" d="M37.7,15.6c-0.3-0.4-0.6-0.7-1-1.1c-6-6.1-8.4-10.5-10.2-13.6c-1.7,3-4,7.4-10.3,13.7
			c-5.3,5.4-1.5,6.7-10.6,22.4h4.3c6.8,0,10.3,1,13.2,1.6"/>
		<path id="XMLID_352_" class="st2" d="M45.1,32.8c-5.7-11-3.9-13.2-7.3-17.2"/>
		<path id="XMLID_351_" class="st2" d="M25.9,22.1c0-1.5,1.2-1.5,1.2-3.1c0-1.5-1.2-1.5-1.2-3.1c0-1.5,1.2-1.5,1.2-3.1
			c0-1.5-1.2-1.5-1.2-3.1"/>
		<path id="XMLID_350_" class="st2" d="M13.6,32.5c1.3-0.9,2,0.2,3.2-0.7c1.3-0.9,0.6-1.9,1.9-2.7c1.3-0.9,2,0.2,3.2-0.7
			c1.3-0.9,0.6-1.9,1.9-2.7"/>
		<path id="XMLID_349_" class="st2" d="M38.1,32.5c-1.3-0.9-2,0.2-3.2-0.7c-1.3-0.9-0.6-1.9-1.9-2.7c-1.3-0.9-2,0.2-3.2-0.7
			c-1.3-0.9-0.6-1.9-1.9-2.7"/>
		<path id="XMLID_3_" class="st3" d="M39.8,49.7c1-1,1.7-0.2,2.7-1.2c1-1,0.2-1.8,1.1-2.7c1-1,1.7-0.2,2.7-1.2c1-1,0.2-1.8,1.1-2.7"
			/>
		<path id="XMLID_2_" class="st3" d="M25.4,48.7c1.3,0.3,1.1,1.3,2.5,1.6c1.4,0.3,1.6-0.8,2.9-0.6c1.4,0.3,1.1,1.3,2.5,1.6
			c1.4,0.3,1.6-0.8,2.9-0.6"/>
		<path id="XMLID_1_" class="st3" d="M41.1,64c-0.3-1.3-1.4-1.1-1.6-2.5c-0.3-1.3,0.8-1.6,0.5-2.9c-0.3-1.3-1.4-1.1-1.6-2.5
			c-0.3-1.3,0.8-1.6,0.5-2.9"/>
	</g>
	<path id="XMLID_347_" class="st3" d="M42.7,70.5c4-15,7.1-13.4,7.1-19.9c0-7.3,1.3-11.4,2.1-14.3c-2.8,0.8-6.8,2-14.4,2.1
		c-6.4,0.1-4.9,3.1-19.8,7.1l2.6,2.6c7.2,7.2,6.3,10.2,11.1,13.1C36.6,64.3,39.6,67.5,42.7,70.5z"/>
	<path id="XMLID_4_" class="st3" d="M28.2,58.2c0.8,1,1.7,1.9,3.2,2.7c5.3,3.1,8.3,6.3,11.3,9.4c4-15,7.1-13.4,7.1-19.9
		c0-7.3,1.3-11.4,2.1-14.3c-2.8,0.8-6.8,2-14.4,2.1c-4.8,0-5.1,1.8-11.3,4.3"/>
</g>
</svg>
