<?xml version="1.0" encoding="utf-8"?>
<!-- Generator: Adobe Illustrator 25.1.0, SVG Export Plug-In . SVG Version: 6.00 Build 0)  -->
<svg version="1.1" id="Layer_1" xmlns="http://www.w3.org/2000/svg" xmlns:xlink="http://www.w3.org/1999/xlink" x="0px" y="0px"
	 viewBox="0 0 76.5 66" style="enable-background:new 0 0 76.5 66;" xml:space="preserve">
<style type="text/css">
	.st0{fill:#990033;}
	.st1{fill:none;stroke:#CC0033;stroke-width:1.5734;stroke-linecap:round;stroke-linejoin:round;stroke-miterlimit:10;}
	.st2{fill:none;stroke:#F8AF7C;stroke-width:1.5734;stroke-linecap:round;stroke-linejoin:round;stroke-miterlimit:10;}
	.st3{fill:none;stroke:#6A941B;stroke-width:1.5734;stroke-linecap:round;stroke-linejoin:round;stroke-miterlimit:10;}
	.st4{fill:none;stroke:#7EB341;stroke-width:1.5734;stroke-linecap:round;stroke-linejoin:round;stroke-miterlimit:10;}
	.st5{fill:none;stroke:#681648;stroke-width:1.5734;stroke-linecap:round;stroke-linejoin:round;stroke-miterlimit:10;}
	.st6{fill:#8D5075;}
</style>
<g>
	<g>
		<path class="st0" d="M65.3,34.6c-0.6,0.4-0.9,1-1,1.7c0,0.2,0,0.4,0,0.6c0.1-0.2,0.3-0.4,0.5-0.5c1-0.7,2.4-0.6,3.1,0.4
			c0.4,0.5,0.5,1.1,0.4,1.7c0,0.1,0,0.2-0.1,0.3c0,0,0.1,0,0.1-0.1c0.6-0.4,0.9-1,1-1.7s-0.1-1.4-0.5-1.9
			C68,33.9,66.4,33.7,65.3,34.6z"/>
		<path class="st1" d="M70.2,40c1.6-1.6,1.8-4.3,0.4-6.2c-1.6-2.1-4.5-2.5-6.6-0.9c-0.6,0.5-1.1,1-1.4,1.7"/>
	</g>
	<g>
		<path class="st0" d="M15,35.9c-0.1-0.3-0.2-0.5-0.4-0.8c-0.9-1.1-2.5-1.4-3.6-0.5c-0.6,0.4-0.9,1-1,1.7c0,0.2,0,0.4,0,0.6
			c0.1-0.2,0.3-0.4,0.5-0.5c1-0.7,2.4-0.6,3.1,0.4c0.1,0.2,0.3,0.4,0.3,0.6"/>
		<path class="st1" d="M16.4,34.1c-0.9-1.3-2.5-2.1-4.2-2c-2.6,0.2-4.6,2.5-4.4,5.1c0.1,1,0.4,1.9,1,2.6"/>
	</g>
	<g>
		<path class="st0" d="M49.9,25.8c0.9-0.5,2.1-0.2,2.8,0.7c0.4,0.5,0.5,1.1,0.4,1.7c0,0.1,0,0.2-0.1,0.3c0,0,0.1,0,0.1-0.1
			c0.6-0.4,0.9-1,1-1.7s-0.1-1.4-0.5-1.9c-0.9-1.1-2.5-1.4-3.6-0.5c-0.3,0.2-0.6,0.6-0.8,0.9"/>
		<path class="st1" d="M55.3,29.3c1.4-1.7,1.5-4.1,0.1-5.9c-1.6-2.1-4.5-2.5-6.6-0.9c-0.4,0.3-0.7,0.6-1,1"/>
	</g>
	<path class="st2" d="M16.9,39.9c1.2-2.9,4-4.9,7.3-4.9c3.3,0,6.2,2,7.3,4.9"/>
	<path class="st2" d="M42.6,39.9c1.3-3.9,4.9-6.7,9.2-6.7c4.4,0,8,2.9,9.2,6.8"/>
	<path class="st2" d="M46.9,40.1c0.8-2,2.7-3.3,4.9-3.3c2.2,0,4,1.3,4.8,3.2"/>
	<path class="st2" d="M38.4,39.9c1.4-6.1,6.9-10.7,13.4-10.7c6.6,0,12.1,4.6,13.5,10.8"/>
	<path class="st2" d="M26,31.4c2-4.2,6.2-7.1,11.2-7.1c4.2,0,8,2.1,10.2,5.4"/>
	<path class="st2" d="M30.3,33c1.3-2.5,3.9-4.2,6.9-4.2c2.5,0,4.7,1.1,6.1,2.9"/>
	<path class="st2" d="M27.5,23.2c2.9-2.1,6.5-3.3,10.3-3.2c6.2,0.2,11.6,3.7,14.4,8.9"/>
	<path class="st2" d="M34,36.3c0-1.6,1.3-2.9,2.9-2.9c1.6,0,2.9,1.3,2.9,2.9"/>
	<g>
		<path class="st3" d="M20,22.8c0.7-2.2,3.1-4,3.1-4s4.1,2.1,4.3,4.9c0.2,2.2-0.7,4.1-2.2,4.7"/>
		<path class="st3" d="M19.9,23.4c0-0.2,0.1-0.4,0.1-0.5"/>
		<line class="st3" x1="23.5" y1="22.8" x2="23.7" y2="25.2"/>
	</g>
	<g>
		<path class="st4" d="M24.2,30.1c-1.6,2-3.7,2.4-6,0.8S16,24.3,16,24.3s4.4-1.6,6.7,0S25.8,28.1,24.2,30.1z"/>
		<line class="st4" x1="19.3" y1="26.6" x2="22.8" y2="29.1"/>
	</g>
	<path class="st2" d="M12.7,40.1c1.5-5,6.1-8.7,11.6-8.7c5.4,0,10,3.6,11.6,8.5"/>
	<g>
		<path class="st5" d="M48.7,59.8h5c8.1,0,15-6.1,15.8-14.2c0.1-0.6,0.1-1,0.1-1h3.9c1.2,0,2.2-1,2.2-2.2l0,0c0-1.2-1-2.2-2.2-2.2
			h-3.9H6.9H3c-1.2,0-2.2,1-2.2,2.2l0,0c0,1.2,1,2.2,2.2,2.2h3.9c0,0,0,0.4,0.1,1c0.8,8.1,7.7,14.2,15.8,14.2h5H48.7z"/>
		<path class="st5" d="M55.9,59.6v2.2c0,1.7-1.4,3.2-3.2,3.2h-29c-1.7,0-3.2-1.4-3.2-3.2v-2.2"/>
		<path class="st6" d="M58.9,44.6c0,2.5-0.7,7.7-4.6,11.9c7.7-0.3,10.5-5.9,11.5-9.3c0.2-0.8,0.4-1.7,0.5-2.6H58.9z"/>
	</g>
</g>
</svg>
