<?xml version="1.0" encoding="utf-8"?>
<!-- Generator: Adobe Illustrator 25.1.0, SVG Export Plug-In . SVG Version: 6.00 Build 0)  -->
<svg version="1.1" id="Layer_1" xmlns="http://www.w3.org/2000/svg" xmlns:xlink="http://www.w3.org/1999/xlink" x="0px" y="0px"
	 viewBox="0 0 69.8 67.8" style="enable-background:new 0 0 69.8 67.8;" xml:space="preserve">
<style type="text/css">
	.st0{fill:none;stroke:#4E1036;stroke-width:1.5734;stroke-linecap:round;stroke-linejoin:round;stroke-miterlimit:10;}
	.st1{fill:#FF6D3B;}
	.st2{fill:none;stroke:#990033;stroke-width:1.5734;stroke-linecap:round;stroke-linejoin:round;stroke-miterlimit:10;}
	.st3{fill:#F47B26;}
</style>
<g>
	<g>
		<path class="st0" d="M38.8,0.8h-7.9c-1.2,0-2.1,1-2.1,2.1v7.9c0,1.2,1,2.1,2.1,2.1h7.9c1.2,0,2.1-1,2.1-2.1V2.9
			C41,1.7,40,0.8,38.8,0.8z"/>
		<path class="st1" d="M38.2,6.9c0-1.8-1.5-3.3-3.3-3.3c-1.8,0-3.3,1.5-3.3,3.3s1.5,3.3,3.3,3.3C36.7,10.1,38.2,8.7,38.2,6.9z"/>
	</g>
	<g>
		<line class="st2" x1="68.8" y1="36.2" x2="20" y2="13.4"/>
		<line class="st2" x1="38.7" y1="18.6" x2="49.7" y2="13.4"/>
		<line class="st2" x1="1" y1="36.2" x2="30.9" y2="22.2"/>
	</g>
	<g>
		<g>
			<path class="st0" d="M42.3,48.3c0-3.8-3.1-6.9-6.9-6.9c-3.8,0-6.9,3.1-6.9,6.9c0,3.8,3.1,6.9,6.9,6.9
				C39.2,55.1,42.3,52.1,42.3,48.3z"/>
			<circle class="st3" cx="35.4" cy="48.3" r="2.5"/>
		</g>
		<g>
			<path class="st0" d="M23.8,48.3c0-3.8-3.1-6.9-6.9-6.9c-3.8,0-6.9,3.1-6.9,6.9c0,3.8,3.1,6.9,6.9,6.9
				C20.7,55.1,23.8,52.1,23.8,48.3z"/>
			<circle class="st3" cx="16.9" cy="48.3" r="2.5"/>
		</g>
		<g>
			<path class="st0" d="M33,38.1c0-3.8-3.1-6.9-6.9-6.9c-3.8,0-6.9,3.1-6.9,6.9"/>
			<path class="st3" d="M28.7,38.1c0-1.4-1.1-2.5-2.5-2.5c-1.4,0-2.5,1.1-2.5,2.5s1.1,2.5,2.5,2.5C27.6,40.7,28.7,39.5,28.7,38.1z"
				/>
		</g>
		<g>
			<path class="st0" d="M51.6,38.1c0-3.8-3.1-6.9-6.9-6.9c-3.8,0-6.9,3.1-6.9,6.9"/>
			<path class="st3" d="M47.2,38.1c0-1.4-1.1-2.5-2.5-2.5c-1.4,0-2.5,1.1-2.5,2.5s1.1,2.5,2.5,2.5C46.1,40.7,47.2,39.5,47.2,38.1z"
				/>
		</g>
		<g>
			<path class="st0" d="M60.8,48.3c0-3.8-3.1-6.9-6.9-6.9c-3.8,0-6.9,3.1-6.9,6.9c0,3.8,3.1,6.9,6.9,6.9
				C57.7,55.1,60.8,52.1,60.8,48.3z"/>
			<circle class="st3" cx="53.9" cy="48.3" r="2.5"/>
		</g>
		<g>
			<path class="st2" d="M63.4,59.2h3.5c1.1,0,2-0.9,2-2l0,0c0-1.1-0.9-2-2-2h-3.5h-57H2.8c-1.1,0-2,0.9-2,2l0,0c0,1.1,0.9,2,2,2h3.5
				l2.3,4.4c1.1,2,3.2,3.3,5.5,3.3h41.5c2.3,0,4.4-1.3,5.5-3.3L63.4,59.2z"/>
		</g>
		<line class="st2" x1="6.4" y1="59.2" x2="16.9" y2="59.2"/>
	</g>
</g>
</svg>
