<?xml version="1.0" encoding="utf-8"?>
<!-- Generator: Adobe Illustrator 25.1.0, SVG Export Plug-In . SVG Version: 6.00 Build 0)  -->
<svg version="1.1" id="Layer_1" xmlns="http://www.w3.org/2000/svg" xmlns:xlink="http://www.w3.org/1999/xlink" x="0px" y="0px"
	 viewBox="0 0 68.1 65" style="enable-background:new 0 0 68.1 65;" xml:space="preserve">
<style type="text/css">
	.st0{fill:none;stroke:#4E1036;stroke-width:1.5734;stroke-linecap:round;stroke-linejoin:round;stroke-miterlimit:10;}
	.st1{fill:none;stroke:#F47B26;stroke-width:1.5734;stroke-linecap:round;stroke-linejoin:round;stroke-miterlimit:10;}
	.st2{fill:none;stroke:#F8AF7C;stroke-width:1.5734;stroke-linecap:round;stroke-linejoin:round;stroke-miterlimit:10;}
	.st3{fill:#CC0033;stroke:#CC0033;stroke-width:1.5734;stroke-linecap:round;stroke-linejoin:round;stroke-miterlimit:10;}
	.st4{fill:#FFFFFF;stroke:#FFFFFF;stroke-linejoin:round;stroke-miterlimit:10;}
	.st5{fill:#6A941B;}
	.st6{fill:#FFFFFF;stroke:#4E1036;stroke-width:1.5734;stroke-linecap:round;stroke-linejoin:round;stroke-miterlimit:10;}
	.st7{fill:#FFFFFF;stroke:#CC0033;stroke-width:3;stroke-linejoin:round;stroke-miterlimit:10;}
</style>
<g>
	<path class="st0" d="M51,13.1c4.6,2.4,8.4,6.1,10.9,10.7"/>
	<path class="st0" d="M53.2,58.7c-4.2,2.7-9.2,4.3-14.6,4.3"/>
	<g>
		<path class="st1" d="M63.3,25.6c-0.6,4.6-4,6.9-4.8,9.3"/>
		<path class="st1" d="M65.7,29.8c0,6.2-6,12.3-6.8,14.7"/>
		<path class="st1" d="M59.2,23.2c-0.8,2.4-2.8,3.5-3.6,6.1"/>
		<path class="st2" d="M46.1,55.5c-2.9-1.3-6.2-2-11.3-0.2c-16.2,5.7-24-3.3-24.3-9.7c-0.3-6.4,1.3-27.6,5.2-28.1
			c3.9-0.5,21-4.1,21-4.1l13.6-5.6c0,0,0.5,8.5,2.8,10.7c2.3,2.2,11.2,2.8,13.8,15.4c1.7,8-1.7,25.6-10.3,25.4
			C52.2,59.1,49.4,57,46.1,55.5"/>
	</g>
	<path class="st3" d="M51.6,33.3c2,3.1,3.1,6.8,3.1,10.8c0,11.1-9,20.1-20.1,20.1c-9.1,0-16.8-6.1-19.3-14.4"/>
	<g>
		<path class="st4" d="M36.1,61c4.9,0,9.2-2.6,11.7-6.4l-0.5-0.3l-11.1-6.5l-0.1,0.4C36.1,48.3,36.1,61,36.1,61z"/>
		<line class="st1" x1="38.5" y1="59.1" x2="38.4" y2="57.9"/>
		<line class="st1" x1="42.2" y1="57.7" x2="41.6" y2="56.7"/>
		<line class="st1" x1="44.9" y1="55.3" x2="43.8" y2="54.7"/>
	</g>
	<g>
		<path class="st4" d="M50.2,51.1c2.5-4.2,2.4-9.3,0.3-13.3L50,38.1l-11.2,6.4l0.3,0.3C39.2,44.8,50.2,51.1,50.2,51.1z"/>
		<line class="st1" x1="49.7" y1="48.1" x2="48.6" y2="47.5"/>
		<line class="st1" x1="50.4" y1="44.2" x2="49.2" y2="44.2"/>
		<line class="st1" x1="49.7" y1="40.6" x2="48.6" y2="41.3"/>
	</g>
	<g>
		<g>
			<path class="st5" d="M53.2,28.1c1.9,0,1.9-3,0-3C51.3,25.1,51.3,28.1,53.2,28.1L53.2,28.1z"/>
		</g>
	</g>
	<g>
		<path class="st4" d="M20.6,53.9c2.5,4.2,6.8,6.7,11.4,6.9l0-0.5l0.1-12.9l-0.4,0.2C31.7,47.6,20.6,53.9,20.6,53.9z"/>
		<line class="st1" x1="23.5" y1="55.1" x2="24.5" y2="54.3"/>
		<line class="st1" x1="26.6" y1="57.6" x2="27.2" y2="56.5"/>
		<line class="st1" x1="30" y1="58.7" x2="30" y2="57.5"/>
	</g>
	<circle class="st6" cx="26.6" cy="26.6" r="25.9"/>
	<g>
		<g>
			<path class="st7" d="M31.5,26.2c-3.1,0.2-5.9,1.4-8.1,3.3"/>
		</g>
		<circle class="st0" cx="26.4" cy="26.4" r="4.7"/>
	</g>
	<g>
		<line class="st0" x1="37.4" y1="26.9" x2="40.5" y2="26.3"/>
		<line class="st0" x1="32.6" y1="47.3" x2="33.2" y2="44.3"/>
		<line class="st0" x1="27.1" y1="38.7" x2="29.7" y2="40.3"/>
		<line class="st0" x1="37.5" y1="42" x2="40.5" y2="41.3"/>
		<line class="st0" x1="10.5" y1="39.9" x2="13.5" y2="39.2"/>
		<line class="st0" x1="43" y1="35.5" x2="43.7" y2="38.5"/>
		<line class="st0" x1="44.5" y1="30.9" x2="47.5" y2="30.1"/>
		<line class="st0" x1="42.5" y1="19.6" x2="45.5" y2="18.9"/>
		<line class="st0" x1="15" y1="34.9" x2="15.6" y2="31.9"/>
		<line class="st0" x1="20.1" y1="40.7" x2="20.8" y2="37.6"/>
		<line class="st0" x1="25.6" y1="47.8" x2="26.2" y2="44.8"/>
		<line class="st0" x1="48.1" y1="25.5" x2="48.7" y2="22.5"/>
		<line class="st0" x1="35.7" y1="37" x2="36.4" y2="34"/>
		<line class="st0" x1="18.8" y1="46" x2="16" y2="44.6"/>
	</g>
	<g>
		<line class="st0" x1="17.1" y1="25.1" x2="14.2" y2="26.1"/>
		<line class="st0" x1="18.4" y1="6.9" x2="18.2" y2="10"/>
		<line class="st0" x1="24.9" y1="14.8" x2="22.1" y2="13.5"/>
		<line class="st0" x1="14.2" y1="12.7" x2="11.3" y2="13.7"/>
		<line class="st0" x1="41.2" y1="11.8" x2="38.3" y2="12.9"/>
		<line class="st0" x1="9.4" y1="19.8" x2="8.4" y2="16.8"/>
		<line class="st0" x1="8.4" y1="24.5" x2="5.5" y2="25.6"/>
		<line class="st0" x1="37.3" y1="17.3" x2="37" y2="20.4"/>
		<line class="st0" x1="31.5" y1="12.1" x2="31.3" y2="15.2"/>
		<line class="st0" x1="25.3" y1="5.6" x2="25" y2="8.7"/>
		<line class="st0" x1="7.6" y1="30.4" x2="7.4" y2="33.5"/>
		<line class="st0" x1="16.4" y1="17.4" x2="16.1" y2="20.5"/>
		<line class="st0" x1="32.3" y1="6.7" x2="35.2" y2="7.7"/>
	</g>
	<g>
		<g>
			<path class="st5" d="M54.6,54c1.9,0,1.9-3,0-3C52.6,51,52.6,54,54.6,54L54.6,54z"/>
		</g>
	</g>
	<g>
		<g>
			<path class="st5" d="M56.4,39.3c1.9,0,1.9-3,0-3C54.5,36.3,54.5,39.3,56.4,39.3L56.4,39.3z"/>
		</g>
	</g>
	<g>
		<g>
			<path class="st5" d="M37.1,55.9c1.9,0,1.9-3,0-3C35.2,52.9,35.2,55.9,37.1,55.9L37.1,55.9z"/>
		</g>
	</g>
	<g>
		<g>
			<path class="st5" d="M62.3,47.8c1.9,0,1.9-3,0-3C60.4,44.8,60.4,47.8,62.3,47.8L62.3,47.8z"/>
		</g>
	</g>
</g>
</svg>
