<?xml version="1.0" encoding="utf-8"?>
<!-- Generator: Adobe Illustrator 25.1.0, SVG Export Plug-In . SVG Version: 6.00 Build 0)  -->
<svg version="1.1" id="Layer_1" xmlns="http://www.w3.org/2000/svg" xmlns:xlink="http://www.w3.org/1999/xlink" x="0px" y="0px"
	 viewBox="0 0 67.5 63.7" style="enable-background:new 0 0 67.5 63.7;" xml:space="preserve">
<style type="text/css">
	.st0{fill:none;stroke:#990033;stroke-width:1.5734;stroke-linecap:round;stroke-linejoin:round;stroke-miterlimit:10;}
	.st1{fill:none;stroke:#F8AF7C;stroke-width:1.5734;stroke-linecap:round;stroke-linejoin:round;stroke-miterlimit:10;}
	.st2{fill:#F47B26;}
	.st3{fill:none;stroke:#681648;stroke-width:1.5734;stroke-linecap:round;stroke-linejoin:round;stroke-miterlimit:10;}
	.st4{fill:none;stroke:#7EB341;stroke-width:1.5734;stroke-linecap:round;stroke-linejoin:round;stroke-miterlimit:10;}
</style>
<g>
	<path class="st0" d="M47.5,48.4c-0.4,1.1-1,2.2-1.6,3.2"/>
	<path class="st0" d="M45.9,51.6c-4,6.5-11.8,10.9-20.7,10.9c-13,0-23.5-9.4-23.5-21s10.5-21,23.5-21c6,0,10.1,1.5,15,4.3"/>
	<path class="st1" d="M36.4,41.4c1.9,0.4,3.6,1.4,4.5,2.9c0.9,1.4,1,3.2,0.4,4.9c-0.3,0.8-0.8,1.5-1.4,2.2"/>
	<path class="st1" d="M32.1,52.5c1-1.5,2.8-1.5,4.3-2.1c1.9-0.8,2.8-3.1,1.8-4.8c-1-1.7-3.7-2.2-5.5-1.2c-0.8,0.5-1.4,1.2-2.1,1.8
		c-0.8,0.7-2.1,1.2-3.1,0.5c-0.7-0.4-0.9-1.1-0.9-1.9c0.1-1.3,1.1-2.2,2-3.2c1.5-1.6,2.8-3.4,3-5.4c0.2-2-1.2-4.3-3.5-4.6
		c-1.9-0.3-4.1,0.8-5.8,0c-1.1-0.5-1.6-1.7-2.5-2.6c-1-1.1-2.3-1.5-3.5-1.6c-2.2-0.2-4.4,0.7-5.9,2c-3.4,3-5.2,7.4-5.2,12
		c0,10.6,10.3,18.7,21.8,17.7C33,58.8,30.7,54.6,32.1,52.5z"/>
	<path class="st2" d="M11.7,44.6c2.7,2.4,7.1,2.4,9.8,0c2.7-2.4,2.7-6.4,0-8.8c-2.7-2.4-7.1-2.4-9.8,0C9,38.3,9,42.2,11.7,44.6z
		 M13.2,37.2c2.7-2.3,5.9-0.4,5.3,0.1c-0.4,0.4-2.3,0.2-3.6,1.3c-1.2,1.1-1,2.8-1.5,3.2C12.8,42.4,10.6,39.6,13.2,37.2z"/>
</g>
<g>
	<line class="st3" x1="50.3" y1="45" x2="50.3" y2="56.4"/>
	<path class="st3" d="M50.3,56.4l-7.5,4.8c-0.8,0.5-0.3,1.5,0.6,1.5h6.8h6.8c1,0,1.4-1,0.6-1.5L50.3,56.4z"/>
	<path class="st4" d="M57.8,11c2.6-0.7,5.7-2.9,5.8-9.4c-7.3,0.1-9.2,3.8-9.6,6.6"/>
	<path class="st4" d="M58.3,13.5c0,0,7.1,0.7,7-6.8"/>
	<path class="st2" d="M56.1,28.8c-0.5-4.3-0.8-7.5-1.3-11.4c-0.1-0.5-0.3-0.8-0.6-0.8h-8c-0.3,0-0.5,0.4-0.6,0.8
		c-0.4,3.9-0.8,7.1-1.3,11.4c-0.3,2.5,0.2,5.1,1.3,6.9c4.4,7.1,4.2,6.9,4.6,6.9c0.4,0,0.1,0.2,4.6-6.9C55.9,34,56.4,31.4,56.1,28.8z
		 M47.5,23.5c-0.4,0-0.7-0.4-0.7-0.9c0-0.5,0.3-0.9,0.7-0.9c0.4,0,0.7,0.4,0.7,0.9C48.2,23.2,47.9,23.5,47.5,23.5z M49.2,33.3
		c-0.5,0-0.9-0.4-0.9-1c0-0.6,0.4-1,0.9-1c0.5,0,0.9,0.4,0.9,1C50.1,32.9,49.7,33.3,49.2,33.3z M52.7,27c-0.6,0-1.1-0.6-1.1-1.3
		c0-0.7,0.5-1.3,1.1-1.3c0.6,0,1.1,0.6,1.1,1.3C53.8,26.4,53.3,27,52.7,27z"/>
	<path class="st3" d="M58.1,28.8c-2.6-20.4-2.3-19.3-2.8-20c-0.4-0.6-0.4-0.6-5.1-0.6c-4.7,0-4.6-0.1-5.1,0.6
		c-0.5,0.7-0.2-0.5-2.8,20c-0.4,3.3,0.3,6.8,1.9,9.1l4.2,6c0.5,0.7,1.1,1.1,1.7,1.1l0,0c0.6,0,1.3-0.4,1.7-1.1l4.2-6
		C57.8,35.6,58.5,32.1,58.1,28.8z"/>
</g>
</svg>
