<?xml version="1.0" encoding="utf-8"?>
<!-- Generator: Adobe Illustrator 25.1.0, SVG Export Plug-In . SVG Version: 6.00 Build 0)  -->
<svg version="1.1" id="Layer_1" xmlns="http://www.w3.org/2000/svg" xmlns:xlink="http://www.w3.org/1999/xlink" x="0px" y="0px"
	 viewBox="0 0 69.3 62.4" style="enable-background:new 0 0 69.3 62.4;" xml:space="preserve">
<style type="text/css">
	.st0{fill:none;stroke:#F47B26;stroke-width:1.5734;stroke-linecap:round;stroke-linejoin:round;stroke-miterlimit:10;}
	.st1{fill:none;stroke:#7EB341;stroke-width:1.5734;stroke-linecap:round;stroke-linejoin:round;stroke-miterlimit:10;}
	.st2{fill:none;stroke:#990033;stroke-width:1.5734;stroke-linecap:round;stroke-linejoin:round;stroke-miterlimit:10;}
	.st3{fill:#F8AF7C;}
</style>
<g>
	<path class="st0" d="M57.9,61.6H11.3c-3.7,0-6.7-3-6.7-6.7v-6.6c0-16.6,13.4-30,30-30l0,0c16.6,0,30,13.4,30,30v6.6
		C64.6,58.6,61.6,61.6,57.9,61.6z"/>
	<g>
		<path class="st0" d="M18.1,35.8c0-0.2-0.2-0.4-0.4-0.4c-0.2,0-0.4,0.2-0.4,0.4s0.2,0.4,0.4,0.4C18,36.1,18.1,36,18.1,35.8z"/>
		<path class="st0" d="M23.7,29.7c0-0.2-0.2-0.4-0.4-0.4c-0.2,0-0.4,0.2-0.4,0.4c0,0.2,0.2,0.4,0.4,0.4C23.6,30,23.7,29.8,23.7,29.7
			z"/>
		<circle class="st0" cx="29" cy="35.8" r="0.4"/>
		<path class="st0" d="M35,29.7c0-0.2-0.2-0.4-0.4-0.4s-0.4,0.2-0.4,0.4c0,0.2,0.2,0.4,0.4,0.4C34.8,30,35,29.8,35,29.7z"/>
		<path class="st0" d="M40.6,35.8c0-0.2-0.2-0.4-0.4-0.4s-0.4,0.2-0.4,0.4s0.2,0.4,0.4,0.4C40.4,36.1,40.6,36,40.6,35.8z"/>
		<path class="st0" d="M46.2,29.7c0-0.2-0.2-0.4-0.4-0.4s-0.4,0.2-0.4,0.4c0,0.2,0.2,0.4,0.4,0.4C46,30,46.2,29.8,46.2,29.7z"/>
		<path class="st0" d="M51.8,35.8c0-0.2-0.2-0.4-0.4-0.4S51,35.6,51,35.8s0.2,0.4,0.4,0.4C51.7,36.1,51.8,36,51.8,35.8z"/>
	</g>
	<path class="st1" d="M3.9,31.1C-2.4,25.5,1.6,16,9.3,16c0.5,0,1,0.1,1.4,0.1c-0.1-0.7-0.2-1.3-0.2-2c0-5.2,4.2-9.4,9.4-9.4
		c2.1,0,4,0.7,5.6,1.8c1.7-3.4,5.2-5.7,9.2-5.7s7.5,2.3,9.2,5.7c1.6-1.1,3.5-1.8,5.6-1.8c5.2,0,9.4,4.2,9.4,9.4c0,0.7-0.1,1.4-0.2,2
		C59,16,59.5,16,60,16c4.7,0,8.5,3.8,8.5,8.5c0,2.6-1.2,5-3.1,6.6"/>
	<path class="st2" d="M7.1,26.6c6.1-8.7,16.2-14.3,27.6-14.3l0,0l0,0c11.4,0,21.5,5.7,27.6,14.3"/>
	<path class="st3" d="M60.7,41.9c-0.3,1-0.8,2-1.4,2.8c-3,3.5-8,3.6-12.3,3.6c-32.9,0-33.3-0.3-36.3,1.2l0,0
		c-1.8,0.9-2.9,2.8-2.9,4.8v0.6c0,2,1.6,3.6,3.6,3.6h46.5c2,0,3.6-1.6,3.6-3.6v-6.6C61.5,46,61.2,43.9,60.7,41.9z"/>
</g>
</svg>
