<?xml version="1.0" encoding="utf-8"?>
<!-- Generator: Adobe Illustrator 25.2.0, SVG Export Plug-In . SVG Version: 6.00 Build 0)  -->
<svg version="1.1" id="Layer_1" xmlns="http://www.w3.org/2000/svg" xmlns:xlink="http://www.w3.org/1999/xlink" x="0px" y="0px"
	 viewBox="0 0 79.2 71.8" style="enable-background:new 0 0 79.2 71.8;" xml:space="preserve">
<style type="text/css">
	.st0{fill:none;stroke:#990033;stroke-width:1.5734;stroke-linecap:round;stroke-linejoin:round;stroke-miterlimit:10;}
	.st1{fill:none;stroke:#F47B26;stroke-width:1.5734;stroke-linecap:round;stroke-linejoin:round;stroke-miterlimit:10;}
</style>
<g>
	<path class="st0" d="M61.4,67.9v1.3c0,1-1.6,1.8-3.7,1.8H21.4c-2,0-3.7-0.8-3.7-1.8v-1.3"/>
	<path class="st1" d="M35,7.7c0,0-8.8,35.3-29.6,45.6"/>
	<path class="st1" d="M44.3,7.7c0,0,8.8,35.3,29.6,45.6"/>
	<g>
		<path class="st1" d="M7.2,58.8l2.6,5.1c1.2,2.3,3.6,3.8,6.2,3.8h47.2c2.6,0,5-1.5,6.2-3.8l2.6-5.1"/>
		<path class="st0" d="M72,58.8h4c1.3,0,2.3-1,2.3-2.3l0,0c0-1.3-1-2.3-2.3-2.3h-4H7.2h-4c-1.3,0-2.3,1-2.3,2.3l0,0
			c0,1.3,1,2.3,2.3,2.3h4H72z"/>
	</g>
	<g>
		<path class="st0" d="M39.6,0.8h7.6c0.5,0,0.7,1,0.4,1.5l-3.3,5.4H35l-3.3-5.4c-0.3-0.6-0.1-1.5,0.4-1.5L39.6,0.8"/>
	</g>
</g>
</svg>
