<?xml version="1.0" encoding="utf-8"?>
<!-- Generator: Adobe Illustrator 25.1.0, SVG Export Plug-In . SVG Version: 6.00 Build 0)  -->
<svg version="1.1" id="Layer_1" xmlns="http://www.w3.org/2000/svg" xmlns:xlink="http://www.w3.org/1999/xlink" x="0px" y="0px"
	 viewBox="0 0 64.9 70.1" style="enable-background:new 0 0 64.9 70.1;" xml:space="preserve">
<style type="text/css">
	.st0{fill:#990033;}
	.st1{fill:#681648;}
	.st2{fill:none;stroke:#F47B26;stroke-width:1.5734;stroke-linecap:round;stroke-linejoin:round;stroke-miterlimit:10;}
	.st3{fill:none;stroke:#F8AF7C;stroke-width:1.5734;stroke-linecap:round;stroke-linejoin:round;stroke-miterlimit:10;}
</style>
<g>
	<path class="st0" d="M41.3,42c0,2.7-2.2,4.9-4.9,4.9s-4.9-2.2-4.9-4.9s2.2-4.9,4.9-4.9S41.3,39.3,41.3,42z"/>
	<path class="st0" d="M28.8,33.2c0,1.5-1.2,2.8-2.8,2.8c-1.5,0-2.8-1.2-2.8-2.8c0-1.5,1.2-2.8,2.8-2.8
		C27.6,30.4,28.8,31.7,28.8,33.2z"/>
	<path class="st0" d="M52.5,43.6c0,1.6-1.3,3-3,3s-3-1.3-3-3c0-1.6,1.3-3,3-3S52.5,42,52.5,43.6z"/>
	<path class="st0" d="M20.8,42.4c0,1.6-1.3,3-3,3c-1.6,0-3-1.3-3-3c0-1.6,1.3-3,3-3S20.8,40.7,20.8,42.4z"/>
	<path class="st1" d="M44.3,27.8c1.5-1.6,1-4.6-1.2-6.7s-5.2-2.5-6.7-0.9c-0.9,0.9-1.1,2.2-0.7,3.6l-2.8,2.9c-0.5,0.5-0.5,1.3,0,1.8
		l3.2,3.1c0.5,0.5,1.3,0.5,1.8,0l2.8-2.9C42.1,29,43.4,28.7,44.3,27.8z"/>
	<path class="st2" d="M58.3,52.5c0,1.6,1.3,2.9,2.9,2.9s2.9-1.3,2.9-2.9c0-20.1-9.7-39.1-25.8-51l0,0c-1.3-1-3.1-0.8-4.1,0.5
		s-0.8,3.1,0.5,4.1l0.1,0.1"/>
	<path class="st3" d="M34.8,6.1l-34,46.4h5c2.2,0,3.9,1.8,3.9,3.9v2.4c0,1.1-0.4,2.1-1.1,3c-0.6,0.9-0.9,2-0.7,3.2
		c0.3,1.6,1.6,3,3.2,3.3c2.6,0.5,4.9-1.5,4.9-4c0-0.9-0.3-1.8-0.9-2.5c-0.7-0.8-1-1.9-1-2.9v-2.4c0-2.2,1.8-3.9,3.9-3.9h2
		c1.2,0,2.2,1,2.2,2.2l0,0c0,1.1-0.4,2.1-1.1,3c-0.6,0.9-0.9,2-0.7,3.2c0.3,1.6,1.6,3,3.2,3.3c2.6,0.5,4.9-1.5,4.9-4
		c0-0.9-0.3-1.7-0.7-2.3c-0.7-1-1.1-2.1-1.1-3.4l0,0c0-1.1,0.9-2,2-2h3.7c2,0,3.5,1.6,3.5,3.5l0,0c0,2.7-0.7,5.3-1.6,7.8
		c-0.3,0.7-0.3,1.4-0.2,2.2c0.3,1.6,1.6,3,3.2,3.3c2.6,0.5,4.9-1.5,4.9-4c0-0.5-0.1-1-0.3-1.5C41,61,40.5,58,40.5,55l0,0
		c0-1.4,1.2-2.6,2.6-2.6h15.2"/>
	<path class="st2" d="M58.3,52.4c0-19-9.2-35.9-23.5-46.3"/>
</g>
</svg>
