<?xml version="1.0" encoding="utf-8"?>
<!-- Generator: Adobe Illustrator 25.1.0, SVG Export Plug-In . SVG Version: 6.00 Build 0)  -->
<svg version="1.1" id="Layer_1" xmlns="http://www.w3.org/2000/svg" xmlns:xlink="http://www.w3.org/1999/xlink" x="0px" y="0px"
	 viewBox="0 0 68 68" style="enable-background:new 0 0 68 68;" xml:space="preserve">
<style type="text/css">
	.st0{fill:none;stroke:#7EB341;stroke-width:1.5734;stroke-linecap:round;stroke-linejoin:round;stroke-miterlimit:10;}
	.st1{fill:none;stroke:#681648;stroke-width:1.5734;stroke-linecap:round;stroke-linejoin:round;stroke-miterlimit:9.9999;}
	.st2{fill:none;stroke:#681648;stroke-width:1.5734;stroke-linecap:round;stroke-linejoin:round;stroke-miterlimit:10;}
	.st3{fill:none;stroke:#F8AF7C;stroke-width:1.5734;stroke-linecap:round;stroke-linejoin:round;stroke-miterlimit:10;}
	.st4{fill:#FF6D3B;}
	.st5{fill:none;stroke:#F47B26;stroke-width:1.5734;stroke-linecap:round;stroke-linejoin:round;stroke-miterlimit:10;}
	.st6{fill:none;stroke:#990033;stroke-width:1.5734;stroke-linecap:round;stroke-linejoin:round;stroke-miterlimit:10;}
	.st7{fill:#F8AF7C;}
</style>
<g>
	<g>
		<path class="st0" d="M17.1,5.4c0,0,5,3.5,13,2.7c0,0-1.8,2-3.3,4.3c0,0,15,2.4,18.9-9.6"/>
		<path class="st0" d="M30.1,8.2c0,0,3.9-0.3,6.5-3.2"/>
	</g>
	<ellipse class="st1" cx="34" cy="34" rx="33.2" ry="33.2"/>
	<path class="st2" d="M62.1,51.6l2.8,2.8c1.2,1.2,1.2,3.2,0,4.5l-6,6c-1.2,1.2-3.2,1.2-4.5,0l-2.8-2.8"/>
	<path class="st2" d="M5.9,16.4l-2.8-2.8c-1.2-1.2-1.2-3.2,0-4.5l6-6c1.2-1.2,3.2-1.2,4.5,0l2.8,2.8"/>
	<g>
		<path class="st3" d="M4,34.1c0.9-0.1,1.9,0,2.9,0.2c4.6,1.1,7.5,5.7,6.4,10.4c-0.6,2.4-2.1,4.4-4.1,5.5"/>
		<path class="st4" d="M8.6,45.1c-0.1-0.3,0.2-0.6,0.5-0.5c1.4,0.2,2-1.1,1.4-2c-0.4-0.6-0.7-1.4-0.7-2.2c0-1-1.2-1.8-2.2-0.9
			c-0.2,0.2-0.6,0.1-0.7-0.1c-0.3-0.7-0.8-1.1-1.5-0.9c-0.6,0.2-1,0.9-0.9,1.6c0.4,2,1.1,3.9,1.9,5.7C6.9,47,8.8,46.5,8.6,45.1
			C8.6,45.1,8.6,45.1,8.6,45.1z"/>
	</g>
	<g>
		<path class="st5" d="M53.4,47.2c-2.6-0.6-6.6-2.2-9.3-6.9"/>
		<path class="st5" d="M43,55.7c-0.2-0.2-0.5-0.4-0.7-0.6c-1.7-1.8-4.6-5.7-3.9-11.5"/>
		<path class="st5" d="M27.7,55.9c-0.3-2.6,0-7,3.6-11"/>
		<path class="st5" d="M36.1,33.3c-0.5,0.9-1.5,1.2-2.4,0.8c-0.9-0.5-1.2-1.5-0.8-2.4"/>
		<path class="st6" d="M57,33.8c0-0.1,0-0.2,0-0.3c0-8.9-7.2-16-16-16s-16,7.2-16,16c0,2.9,0.8,5.7,2.1,8c-5.2,3.3-7.4,9.2-7.4,9.2
			c4,3.9,9.4,6.4,15.4,6.4c12.1,0,21.9-9.8,21.9-21.9V33.8L57,33.8z"/>
		<path class="st6" d="M37.8,30.4c-4.7-2.2-7.4-5.7-8.6-7.7c-2.6,2.9-4.2,6.7-4.2,10.8c0,2.9,0.8,5.7,2.1,8c3.5-2.2,7.3-4,10.6-5.5
			C40.2,35,40.2,31.5,37.8,30.4z"/>
		<g>
			<path class="st7" d="M41,20.6c-2.8,0-5.5,0.9-7.6,2.5c1,1.2,2.4,2.5,4.2,3.6c2.4-1.3,8.6-3.6,15.7,3C51.6,24.5,46.7,20.6,41,20.6
				z"/>
		</g>
	</g>
	<g>
		<path class="st3" d="M9.5,26.3c0,0.1-0.1,0.1-0.1,0.1c-0.1,0-0.1-0.1-0.1-0.1c0-0.1,0.1-0.1,0.1-0.1C9.5,26.1,9.5,26.2,9.5,26.3z"
			/>
		<path class="st3" d="M15.9,25.2c0,0.1-0.1,0.1-0.1,0.1c-0.1,0-0.1-0.1-0.1-0.1c0-0.1,0.1-0.1,0.1-0.1C15.8,25,15.9,25.1,15.9,25.2
			z"/>
		<path class="st3" d="M13,19.4c0,0.1-0.1,0.1-0.1,0.1c-0.1,0-0.1-0.1-0.1-0.1c0-0.1,0.1-0.1,0.1-0.1S13,19.3,13,19.4z"/>
		<path class="st3" d="M19.9,19.5c0,0.1-0.1,0.1-0.1,0.1c-0.1,0-0.1-0.1-0.1-0.1c0-0.1,0.1-0.1,0.1-0.1
			C19.9,19.4,19.9,19.5,19.9,19.5z"/>
		<path class="st3" d="M17.7,13.6c0,0.1-0.1,0.1-0.1,0.1c-0.1,0-0.1-0.1-0.1-0.1c0-0.1,0.1-0.1,0.1-0.1
			C17.6,13.4,17.7,13.5,17.7,13.6z"/>
	</g>
</g>
</svg>
