<?xml version="1.0" encoding="utf-8"?>
<!-- Generator: Adobe Illustrator 25.2.0, SVG Export Plug-In . SVG Version: 6.00 Build 0)  -->
<svg version="1.1" id="Layer_1" xmlns="http://www.w3.org/2000/svg" xmlns:xlink="http://www.w3.org/1999/xlink" x="0px" y="0px"
	 viewBox="0 0 69.8 67.8" style="enable-background:new 0 0 69.8 67.8;" xml:space="preserve">
<style type="text/css">
	.st0{fill:none;stroke:#6A941B;stroke-width:1.5734;stroke-linecap:round;stroke-linejoin:round;stroke-miterlimit:10;}
	.st1{fill:none;stroke:#F47B26;stroke-width:1.5734;stroke-linecap:round;stroke-linejoin:round;stroke-miterlimit:10;}
	.st2{fill:none;stroke:#4E1036;stroke-width:1.5734;stroke-linecap:round;stroke-linejoin:round;stroke-miterlimit:10;}
	.st3{fill:none;stroke:#7EB341;stroke-linecap:round;stroke-linejoin:round;stroke-miterlimit:10;}
	.st4{fill:#990033;}
	.st5{fill:none;stroke:#CC0033;stroke-width:1.5734;stroke-linecap:round;stroke-linejoin:round;stroke-miterlimit:10;}
</style>
<g>
	<line class="st0" x1="52.8" y1="59.2" x2="63.4" y2="59.2"/>
	<g>
		<path class="st0" d="M63.5,59.1h3.5c1.1,0,2-0.9,2-2l0,0c0-1.1-0.9-2-2-2h-3.5h-57H3c-1.1,0-2,0.9-2,2l0,0c0,1.1,0.9,2,2,2h3.5
			l2.3,4.4c1.1,2,3.2,3.3,5.5,3.3h41.5c2.3,0,4.4-1.3,5.5-3.3L63.5,59.1z"/>
	</g>
	<g>
		<g>
			<path class="st1" d="M18,37.4c0-0.3,0-0.6,0-0.9c0-2.2,0.5-4.4,1.4-6.3 M22.2,47.4c-0.6-0.6-1.1-1.3-1.6-2 M26.7,34.7
				c-0.2,0.6-0.3,1.2-0.3,1.8c0,4,2.5,6.7,5.8,8.1 M28.5,31.7c1.2-1.1,2.8-1.8,4.5-1.8c3,0,5.6,2,6.4,4.8 M21.5,26.9
				c2.8-3.3,6.9-5.4,11.5-5.4c6,0,11.2,3.6,13.6,8.7 M47.8,33.7c0.2,0.9,0.3,1.9,0.3,2.8c0,4.6-1.8,8.7-5.1,11.8
				c-1.5,1.4-3.3,2.7-5.5,3.7"/>
			<path class="st1" d="M43.8,36c0,0.2,0,0.3,0,0.5c0,17.4-31.6,15.3-31.6,15.3"/>
			<path class="st1" d="M25,29.3c2-2.2,4.9-3.6,8.1-3.6c4.5,0,8.4,2.8,10,6.7"/>
			<path class="st1" d="M27.2,46.2c-3-2.3-5-5.4-5-9.8c0-1.4,0.3-2.8,0.8-4.1"/>
			<path class="st1" d="M47.2,47.6c3.6,0.2,8.3,0,8.3,0"/>
			<path class="st1" d="M58.1,51.9c0,0-8.3,0.2-13.4-0.2"/>
		</g>
		<line class="st2" x1="39.4" y1="34.7" x2="60.7" y2="21.5"/>
		<line class="st2" x1="33" y1="38.6" x2="5.3" y2="21.5"/>
	</g>
	<path id="XMLID_9_" class="st3" d="M19.2,46.9c0.2,0.7,0.3,1.2,0.3,1.2l0,0l0,0c0,0-3.1,0.2-5.3,1.8c-1,0.7-2.5-0.1-2.3-1.4
		c0,0-0.8,0.3-1.7-0.1c-1-0.5-0.4-2,0.6-1.7c0.4,0.1,1.2-0.2,2-0.7c0,0-0.8-1-2.2-0.7c-2.2,0.5-1.7-2.1-0.1-1.9c0,0-0.3-0.1-0.8-0.6
		c-0.6-0.5-0.6-1.3-0.4-1.5c0.1-0.2,0.8-0.5,1.5-0.2c0.6,0.3,0.8,0.5,0.8,0.5c-0.7-1.4,1.4-2.9,1.8-0.6c0.2,1.4,1.4,1.7,1.4,1.7
		c0.1-0.9,0.1-1.7-0.1-2.1c-0.7-0.9,0.5-2,1.4-1.3c0.1,0.1,0.2,0.2,0.3,0.3"/>
	<path id="XMLID_8_" class="st3" d="M16.5,39.6c0.4,0.6,0.5,1.2,0.5,1.2c1.2-0.7,2.5,0.3,2.2,1.5c-0.4,1.6-0.2,3.3,0.1,4.4"/>
	<g>
		<path class="st4" d="M59,49.6c0.7-0.1,1.5,0.4,1.7,1.1c0.1,0.4,0.1,0.8-0.1,1.2c0,0.1-0.1,0.1-0.1,0.2c0,0,0.1,0,0.1,0
			c0.5-0.1,0.9-0.5,1.1-0.9c0.2-0.4,0.3-0.9,0.1-1.4c-0.3-1-1.3-1.5-2.3-1.2c-0.3,0.1-0.5,0.2-0.7,0.4"/>
		<path class="st5" d="M61.7,53.3c1.3-0.8,2-2.4,1.5-3.9c-0.5-1.8-2.4-2.8-4.2-2.3c-0.3,0.1-0.6,0.3-0.9,0.4"/>
	</g>
</g>
</svg>
