<?xml version="1.0" encoding="utf-8"?>
<!-- Generator: Adobe Illustrator 25.2.0, SVG Export Plug-In . SVG Version: 6.00 Build 0)  -->
<svg version="1.1" id="Layer_1" xmlns="http://www.w3.org/2000/svg" xmlns:xlink="http://www.w3.org/1999/xlink" x="0px" y="0px"
	 viewBox="0 0 77.2 54.7" style="enable-background:new 0 0 77.2 54.7;" xml:space="preserve">
<style type="text/css">
	.st0{fill:none;stroke:#6A941B;stroke-width:1.573;stroke-linecap:round;stroke-linejoin:round;stroke-miterlimit:10;}
	.st1{fill:#4E1036;}
	.st2{fill:none;stroke:#7EB341;stroke-width:1.573;stroke-linecap:round;stroke-linejoin:round;stroke-miterlimit:10;}
	.st3{fill:#681648;}
	.st4{fill:none;stroke:#990033;stroke-width:1.573;stroke-linecap:round;stroke-linejoin:round;stroke-miterlimit:10;}
	.st5{fill:#F7AE7B;}
	.st6{fill:none;stroke:#F47B26;stroke-linecap:round;stroke-linejoin:round;stroke-miterlimit:10;}
	.st7{fill:none;stroke:#7EB342;stroke-linecap:round;stroke-linejoin:round;stroke-miterlimit:10;}
</style>
<g>
	<g>
		<g>
			<path id="XMLID_12_" class="st0" d="M29.8,28.8c-1-1.5-2.4-2.8-4.1-3.9c-2.4-1.4-5.1-1.4-7.5,0c-4.9,3-6.6,8.2-7.1,11.7
				c-0.3,1.9,0.8,3.7,2.5,4.2c2.7,0.7,5.6,1,8.4,1c1.4,0,2.7-0.1,4.1-0.2"/>
			<path id="XMLID_107_" class="st0" d="M18.7,24.7c0,0-5.8-4.1-3.7-10.7c0.2-0.7,1.2-1,1.9-0.5l1.2,0.8c0.4,0.2,0.8,0.2,1.2,0
				l1.8-1.2c0.5-0.3,1-0.3,1.5,0l1.8,1.2c0.4,0.2,0.8,0.2,1.2,0l1.3-0.9c0.7-0.5,1.7-0.2,1.9,0.5c2.1,6.6-3.7,10.8-3.7,10.8"/>
			<path class="st1" d="M24.9,26.2c-1-0.6-2-0.9-3-0.9c-1,0-2.1,0.3-3,0.9c-1.8,1.1-3.1,2.5-4,4c0.3,0.2,0.7,0.3,1.1,0.3
				c0.6,0,1.2-0.3,1.6-0.7c0.4,0.9,1.2,1.6,2.3,1.6c0.9,0,1.6-0.5,2.1-1.2c0.4,0.7,1.2,1.2,2,1.2c1,0,1.9-0.6,2.2-1.6
				c0.4,0.4,1,0.7,1.6,0.7c0.4,0,0.8-0.1,1.2-0.2C28,28.6,26.6,27.2,24.9,26.2z"/>
			<path id="XMLID_102_" class="st0" d="M20.8,23.9c0,0-2-2.7-1.6-5.8"/>
			<path id="XMLID_101_" class="st0" d="M23,23.3c0,0,2-2.7,1.6-5.8"/>
		</g>
		<g>
			<path id="XMLID_13_" class="st2" d="M49.6,27.7c-1-1.2-2.3-2.4-3.9-3.3c-2.8-1.7-6-1.7-8.7,0c-3.4,2.1-5.5,5.2-6.8,8.2
				c0,0-2,4.7-2.1,6.4c-0.1,0.9,0.1,1.6,0.6,2.3"/>
			<path id="XMLID_11_" class="st2" d="M45.2,24c0,0,6.8-4.8,4.3-12.5c-0.3-0.8-1.4-1.1-2.2-0.6l-1.4,1c-0.4,0.3-0.9,0.3-1.3,0
				l-2.1-1.4c-0.5-0.4-1.2-0.4-1.7,0l-2.1,1.4c-0.4,0.3-0.9,0.3-1.4,0l-1.5-1c-0.8-0.5-2-0.2-2.2,0.6C30.9,19.2,37.6,24,37.6,24"/>
			<path class="st3" d="M47.1,30.4c1.8,0.8,2.7,0.3,2.5-0.4c-0.2-0.6-1-1.5-1-1.5c-0.9-1.1-2.4-2-3.7-2.8c-1.1-0.7-2.3-1-3.5-1
				c-1.2,0-2.4,0.3-3.5,1c-1.9,1.2-3.5,2.8-4.8,4.8c0.4,0.2,0.9,0.2,1.4,0.2c0.7,0,1.4-0.3,1.9-0.8c0.5,1.1,1.5,1.8,2.6,1.8
				c1,0,2.1-0.6,2.6-1.5c1.1-1.5,2.1-1.3,2.8-1.1C45.6,29.6,46.9,30.3,47.1,30.4z"/>
			<path id="XMLID_10_" class="st2" d="M42.7,23.1c0,0,2.3-3.2,1.8-6.7"/>
			<path id="XMLID_6_" class="st2" d="M40,23.1c0,0-2.3-3.2-1.8-6.7"/>
		</g>
	</g>
	<g>
		<g>
			<path class="st4" d="M36.9,43.3H14h-3.1c-1,0-1.8,0.7-1.8,1.6l0,0c0,0.9,0.8,1.6,1.8,1.6H14l2,3.6c0.9,1.6,2.7,2.7,4.7,2.7h36.1
				c2,0,3.8-1,4.7-2.7l2-3.6h3.1c1,0,1.8-0.7,1.8-1.6l0,0c0-0.3-0.1-0.6-0.3-0.9"/>
		</g>
		<line class="st4" x1="14" y1="46.6" x2="23.2" y2="46.6"/>
	</g>
	<g>
		<path class="st5" d="M49.3,40c-1.9,0.1-6.7-2.8-4.3-5.1c1.6-1.5,3.8,0.3,4.1,1.2"/>
		<path class="st5" d="M49.5,40.2c-0.2-1.9,2.7-8.1,5.1-5.8c1.6,1.5-0.1,3.8-1,4.2l-1.9,0.4L49.5,40.2z"/>
		<path class="st5" d="M49.3,40.2c-0.8,1.7-6.6,5.4-7.4,2.2c-0.6-2.1,2.1-3.2,3-3l1.8,0.7L49.3,40.2z"/>
		<path class="st5" d="M49.6,40.3c1.4,1.3,3,7.9-0.2,7.8c-2.1-0.1-2.4-3-1.9-3.8l1.3-1.5L49.6,40.3z"/>
		<path class="st5" d="M49.6,40.2c1.7-0.8,8.5-0.1,7.2,2.9c-0.9,2-3.6,1.2-4.3,0.4l-1-1.7L49.6,40.2z"/>
		<path class="st6" d="M49.5,40.1c-3.2,0.6-11.4-3-7.8-8.2c2.4-3.4,7.2-0.1,7.9,1.8"/>
		<path class="st6" d="M49.5,40.1c-1.4-3,0.3-11.8,6.2-9.4c3.9,1.6,1.6,6.5-0.1,7.6"/>
		<path class="st6" d="M49.6,40.1c2.4-2.3,11.3-3.5,10.9,2.9c-0.2,4.2-5.6,3.8-7.1,2.6"/>
		<path class="st6" d="M49.5,40.3c3,1.5,7.2,9.4,1.1,11.2c-4,1.2-5.4-3.8-4.8-5.7"/>
		<path class="st6" d="M49.6,40.3c-0.5,3.3-6.6,9.8-10.3,4.6c-2.4-3.4,1.9-6.3,3.9-6.4"/>
	</g>
	<g>
		<path class="st7" d="M54,29.5c0.8-0.9,1.7-1.8,2.3-2.1c0,0-0.6,0.9-1,2"/>
		<path class="st7" d="M61.4,42.7c0.2,0.2,0.5,0.3,0.7,0.4c0.9,0.2,2.8,0.2,2.8,0.2c-1,0.7-2,0.9-3.1,0.8"/>
		<path class="st7" d="M57.9,30.7c-1-2.7,0.6-4,0.6-4c0.8-0.2,1.7-0.4,2.5-0.6c0,0-1.7,2.9,1.1,3.7c0.6,0.2,1.4-0.6,0.3-1.4
			c-1.1-0.8-0.3-2.5-0.3-2.5c3.2-0.4,6.1-0.3,6.1-0.3s0.7,1,1.2,2.8c0,0-1.3,1.1-2,1.3c-0.8,0.2-2.6,0.9-2.3,1.8
			c0.3,1,2.5,0.9,3.6-0.7c1-1.6,1.1-1.4,1.1-1.4c0.2,0.7,0.3,1.5,0.4,2.3c0,0-1.6,2.8-3.6,3.4c-1.6,0.5-3.2-0.1-3.6,1.1
			c-0.3,1,2.3,2.6,4.4,0.5c2-2.1,2.9-3.4,2.9-3.4c-0.1,1.9-0.5,4-1.6,6.2c-0.5,1-1.1,1.8-1.7,2.4c0,0-1.6,0.6-3.5-1
			c-0.7-0.6-1.4-1-2-1"/>
		<path class="st7" d="M67.2,26.8c-1.6,1.2-6.1,5.9-9,10.4"/>
		<path class="st7" d="M60.2,30.3c0.7-0.6,1.5,1.4,0.9,1.7C60.4,32.4,59.3,31,60.2,30.3z"/>
		<path class="st7" d="M64.5,33.7c0,0.6-1.6,0.6-1.6-0.1S64.6,33,64.5,33.7z"/>
		<path class="st7" d="M62.6,38.2c-0.1,1-2.7,0.3-2.5-0.7C60.2,36.5,62.7,36.9,62.6,38.2z"/>
	</g>
</g>
</svg>
