<?xml version="1.0" encoding="utf-8"?>
<!-- Generator: Adobe Illustrator 25.2.0, SVG Export Plug-In . SVG Version: 6.00 Build 0)  -->
<svg version="1.1" id="Layer_1" xmlns="http://www.w3.org/2000/svg" xmlns:xlink="http://www.w3.org/1999/xlink" x="0px" y="0px"
	 viewBox="0 0 68 68" style="enable-background:new 0 0 68 68;" xml:space="preserve">
<style type="text/css">
	.st0{fill:none;stroke:#CC0033;stroke-width:1.5734;stroke-linecap:round;stroke-linejoin:round;stroke-miterlimit:10;}
	.st1{fill:none;stroke:#990033;stroke-width:1.5734;stroke-linecap:round;stroke-linejoin:round;stroke-miterlimit:10;}
	.st2{fill:none;stroke:#7EB341;stroke-width:1.5734;stroke-linecap:round;stroke-linejoin:round;stroke-miterlimit:10;}
	.st3{fill:none;stroke:#F8AF7C;stroke-width:1.5734;stroke-linecap:round;stroke-linejoin:round;stroke-miterlimit:10;}
	.st4{fill:#FF6D3B;}
</style>
<g>
	<path id="XMLID_558_" class="st0" d="M20.2,24.6c0,0-9.8-3.2-13.9,7.9"/>
	<path id="XMLID_543_" class="st1" d="M20.3,32.6c0,0-4.5-16.2,13.6-21.1"/>
	<path id="XMLID_559_" class="st1" d="M23.5,26.6c0,0-0.3-6.6,6-9.1"/>
	<path id="XMLID_539_" class="st2" d="M29.8,2.7c-2.6-2.6-6.7-2.6-9.3,0c-2.1,2.1-2.5,5.4-1,7.9c-2.5-1.4-5.8-1.1-7.9,1
		c-2.1,2.1-2.5,5.3-1.1,7.8c-2.5-1.4-5.7-1-7.8,1.1c-2.6,2.6-2.6,6.7,0,9.3"/>
	<path id="XMLID_533_" class="st3" d="M29.9,2.8c3.3,3.3,4.6,8,4,12.8c-0.6,4.3-2.7,8.6-6.2,12.1C20.2,35.2,9,36.2,2.8,29.9"/>
	<path class="st4" d="M59.3,59.4c6.3-6.3,6.3-16.5,0-22.7l-9.2-9.2c-0.1,2.5-0.2,5.1-0.3,7.6c-0.3,6.6-0.7,13.4-3.7,19.2
		c-1.5,3-3.8,5.5-6.5,7.5c2.6,1.6,5.5,2.3,8.4,2.3C52.1,64.1,56.2,62.5,59.3,59.4z"/>
	<path id="XMLID_536_" class="st3" d="M2.7,29.9l31.7,31.7c7.5,7.5,19.6,7.5,27.1,0l0,0l0,0l0,0c7.5-7.5,7.5-19.6,0-27.1L29.9,2.8"
		/>
</g>
</svg>
