<?xml version="1.0" encoding="utf-8"?>
<!-- Generator: Adobe Illustrator 25.2.0, SVG Export Plug-In . SVG Version: 6.00 Build 0)  -->
<svg version="1.1" id="Layer_1" xmlns="http://www.w3.org/2000/svg" xmlns:xlink="http://www.w3.org/1999/xlink" x="0px" y="0px"
	 viewBox="0 0 74.4 68.5" style="enable-background:new 0 0 74.4 68.5;" xml:space="preserve">
<style type="text/css">
	.st0{fill:none;stroke:#681648;stroke-width:1.5734;stroke-linecap:round;stroke-linejoin:round;stroke-miterlimit:10;}
	.st1{fill:#F05423;}
	.st2{fill:#FFFFFF;stroke:#F8AF7C;stroke-width:1.5734;stroke-linecap:round;stroke-linejoin:round;stroke-miterlimit:10;}
	.st3{fill:#FFFFFF;stroke:#681648;stroke-width:1.5734;stroke-linecap:round;stroke-linejoin:round;stroke-miterlimit:10;}
	.st4{fill:#FFFFFF;stroke:#CC0033;stroke-width:1.5734;stroke-linecap:round;stroke-linejoin:round;stroke-miterlimit:10;}
	.st5{fill:#990033;}
	.st6{fill:none;stroke:#FFFFFF;stroke-width:1.573;stroke-miterlimit:10;}
	.st7{fill:none;stroke:#FFFFFF;stroke-width:1.5734;stroke-linecap:round;stroke-linejoin:round;stroke-miterlimit:10;}
	.st8{fill:#FF6D3B;stroke:#FFFFFF;stroke-width:1.573;stroke-miterlimit:10;}
	.st9{fill:none;stroke:#4E1036;stroke-width:1.5734;stroke-linecap:round;stroke-linejoin:round;stroke-miterlimit:10;}
</style>
<g>
	<g>
		<path class="st0" d="M71,67.7H51.1c-1.4,0-2.6-1.2-2.6-2.6V19.2c0-1.4,1.2-2.6,2.6-2.6H71c1.4,0,2.6,1.2,2.6,2.6v45.9
			C73.6,66.5,72.4,67.7,71,67.7z"/>
		<path class="st1" d="M70.3,64.4V28.8c-1.3-0.6-2.4-1.5-3.1-2.7c-1.2,1.9-3.3,3.2-5.8,3.2c-2.5,0-4.6-1.3-5.8-3.2
			c-0.9,1.4-2.2,2.5-3.9,2.9v35.3H70.3z"/>
		<path class="st0" d="M68.6,10.5H53.5c-1,0-1.9,0.8-1.9,1.9v4.2h18.9v-4.2C70.5,11.3,69.6,10.5,68.6,10.5z"/>
		<path class="st0" d="M59.1,2l-3.8,8.5H61h5.7L63,2C62.2,0.4,59.8,0.4,59.1,2z"/>
	</g>
	<g>
		<path class="st2" d="M41,32.3c-0.7,0.7-1.6,1.1-2.6,1.1c0,0-0.7,0-0.7,0l1.5,5.9"/>
		<path class="st2" d="M35.2,27.4c0.8-1.2,2.3-1.9,3.9-1.6c0.5,0.1,0.9,0.3,1.3,0.5"/>
	</g>
	<path class="st2" d="M22.8,38.8l1-6.1l0.3,0c1.7,0.3,3.4-0.7,3.8-2.4c0.5-2-0.8-3.9-2.7-4.2c-1.1-0.2-2.2,0.3-2.9,1
		c-0.5-1.1-1.7-1.9-3.1-1.9c-1.3,0-2.5,0.9-3,2.2c-0.7,2,0.6,4.1,2.6,4.4c0,0,0.6,0.1,0.6,0.1l-3.6,4.9"/>
	<g>
		<path class="st2" d="M29.4,32.3c0.7,0.7,1.6,1.1,2.6,1.1c0,0,0.7,0,0.7,0l-1.3,6.4"/>
		<path class="st2" d="M35.2,27.4c-0.8-1.2-2.3-1.9-3.9-1.6c-0.5,0.1-0.9,0.3-1.3,0.5"/>
	</g>
	<path class="st2" d="M47.1,38.2l0.6-6l-0.3,0.1c-1.8,0.3-3.7-0.8-4.2-2.6c-0.6-2.1,0.8-4.2,3-4.6c1.2-0.2,2.4,0.3,3.2,1.1
		c0.6-1.2,1.9-2.1,3.4-2.1c1.5,0,2.8,1,3.3,2.4c0.8,2.2-0.7,4.5-2.9,4.8c0,0-0.7,0.1-0.7,0.1l2.1,5.7l-3,4.9L47.1,38.2z"/>
	<g>
		<path class="st3" d="M61.7,56.6h6c1.1,0,2.1,0.9,2.1,1.9l0,0c0,1.1-0.9,1.9-2.1,1.9h-3.6c0,0,0.3,7.3-10.8,7.3H35.3H17.2
			c-11,0-10.8-7.3-10.8-7.3H2.8c-1.1,0-2.1-0.9-2.1-1.9l0,0c0-1.1,0.9-1.9,2.1-1.9h6.6"/>
	</g>
	<path class="st4" d="M6.4,56.6c0-12.3,4.5-19.5,4.5-19.5c1.7,0.8,3.6,0.3,4.7-0.9c0.2,1.7,1.4,3.2,3.2,3.7c1.8,0.5,3.6-0.2,4.5-1.6
		c0.4,1.6,1.8,3,3.6,3.3c1.8,0.3,3.5-0.7,4.3-2.2c0.6,1.6,2.1,2.7,4,2.7c1.8,0,3.4-1.2,4-2.7c0.8,1.5,2.5,2.4,4.3,2.2
		c1.8-0.2,3.2-1.6,3.6-3.3c1,1.4,2.7,2.1,4.5,1.6c1.8-0.5,3-2,3.2-3.7c1.1,1.2,3,1.7,4.7,0.9c0,0,4.5,7.3,4.5,19.5
		c0,0-14,6.6-27.2,6.6C13.8,63.2,6.4,56.6,6.4,56.6z"/>
	<path class="st5" d="M61,53.3c-0.2-2.5-2.1-8.5-2.6-10.4c-16.3,3.8-30.8,3.8-47.1,0c-0.5,1.9-1.7,7.9-1.9,10.4
		c0,0,10.4,6.5,26.9,6.5S61,53.3,61,53.3z"/>
	<path class="st6" d="M39.5,43.9C40,47,41,55.5,40.2,60.4"/>
	<path class="st6" d="M22.9,42.8c-0.4,2-2.3,11.4-0.5,15.8"/>
	<path class="st7" d="M14.5,41c-1.5,4.6-1.8,13.6-1,16.2"/>
	<path class="st6" d="M48.2,44.2c1.1,3.7,2.8,9.7,2.5,14.8"/>
	<path class="st8" d="M54.9,42.5c0,3.4,4.2,11.6,3.3,13.6"/>
	<path class="st8" d="M31.1,43.8c-0.5,4-1.2,10.4,0,16.1"/>
	<g>
		<path class="st9" d="M27,19.5l0.5-0.5c1.3-1.3,1.3-3.5,0-4.8L27,13.6L26.4,13c-1.3-1.3-1.3-3.5,0-4.8L27,7.6"/>
		<path class="st9" d="M33.5,19.5l0.5-0.5c1.3-1.3,1.3-3.5,0-4.8l-0.5-0.5L33,13c-1.3-1.3-1.3-3.5,0-4.8l0.5-0.5"/>
		<path class="st9" d="M40.1,19.5l0.5-0.5c1.3-1.3,1.3-3.5,0-4.8l-0.5-0.5L39.6,13c-1.3-1.3-1.3-3.5,0-4.8l0.5-0.5"/>
	</g>
</g>
</svg>
