<?xml version="1.0" encoding="utf-8"?>
<!-- Generator: Adobe Illustrator 25.2.0, SVG Export Plug-In . SVG Version: 6.00 Build 0)  -->
<svg version="1.1" id="Layer_1" xmlns="http://www.w3.org/2000/svg" xmlns:xlink="http://www.w3.org/1999/xlink" x="0px" y="0px"
	 viewBox="0 0 70 64.7" style="enable-background:new 0 0 70 64.7;" xml:space="preserve">
<style type="text/css">
	.st0{fill:none;stroke:#CC0033;stroke-width:1.5734;stroke-linecap:round;stroke-linejoin:round;stroke-miterlimit:10;}
	.st1{fill:#990033;}
	.st2{fill:none;stroke:#4E1036;stroke-width:1.5734;stroke-linecap:round;stroke-linejoin:round;stroke-miterlimit:10;}
	.st3{fill:none;stroke:#F8AF7C;stroke-width:1.5734;stroke-linecap:round;stroke-linejoin:round;stroke-miterlimit:10;}
	.st4{fill:none;stroke:#340B24;stroke-width:1.5734;stroke-linecap:round;stroke-linejoin:round;stroke-miterlimit:10;}
	.st5{fill:none;stroke:#6A941B;stroke-width:1.5734;stroke-linecap:round;stroke-linejoin:round;stroke-miterlimit:10;}
</style>
<g>
	<g>
		<path class="st0" d="M64,34.1H4c-1.8,0-3.2-1.4-3.2-3.2l0,0c0-1.8,1.4-3.2,3.2-3.2h60c1.8,0,3.2,1.4,3.2,3.2l0,0
			C67.2,32.7,65.8,34.1,64,34.1z"/>
		<path class="st0" d="M4.1,34.1c0,0,0.6,20.1,15.7,25.5H34h14.2c15.1-5.4,15.7-25.5,15.7-25.5"/>
		<path class="st0" d="M19.8,59.6c0,0,0,0,0,0.1c-0.7,2,0.8,4.1,3,4.1H34h11.3c2.1,0,3.7-2.1,3-4.1c0-0.1,0-0.1,0-0.1"/>
		<path class="st1" d="M20.4,56.4h5.8c0,0-6.2-6.8-6.2-19H7.7C8.6,42.7,11.4,52.9,20.4,56.4z"/>
	</g>
	<line class="st2" x1="18.7" y1="7.9" x2="28.4" y2="10.2"/>
	<line class="st2" x1="42.5" y1="5.2" x2="69.2" y2="5.2"/>
	<polyline class="st2" points="18.7,5.2 25,5.2 26.2,5.2 27.2,5.2 31.2,5.2 	"/>
	<g>
		<path class="st3" d="M26.3,24.9c-0.9-1.5-0.5-3.8,0.3-5.2c1-1.8,2.7-3.2,4.3-4.5c1.9-1.5,3.9-3.1,5.3-5.1c0.6-1,1.1-2.1,1.3-3.2
			c0.1-1.2-0.1-2.4-0.8-3.3c-0.7-0.9-1.8-1.5-3-1.5c-2.1,0-2.5,1.9-2.5,3.2"/>
	</g>
	<path class="st3" d="M35.9,2.1c0.9-1.2,2.6-1.6,4-0.9c1,0.6,1.7,1.6,2.1,2.8c0.6,1.6,0.6,3.3,0.1,5c-0.5,1.6-1.4,3.1-2.8,4.1"/>
	<path class="st3" d="M37.2,24.9c-1.4-0.9-2.3-2.4-2.4-4c-0.1-1.6,0.6-3.3,1.8-4.3"/>
	<g>
		<path class="st4" d="M7.5,17.5c1.9-1.3,4.9-1.2,4.9-1.2s1.9,4.2,0.4,6.5c-1.2,1.8-3.1,2.8-4.7,2.4"/>
		<path class="st4" d="M7.1,17.8c0.1-0.1,0.3-0.2,0.4-0.4"/>
		<line class="st4" x1="10.3" y1="19.6" x2="9" y2="21.6"/>
	</g>
	<g>
		<path class="st5" d="M7.5,25.1c-2.1,1.4-4.3,1.2-5.9-1s-0.2-6.9-0.2-6.9s4.7-0.2,6.4,2S9.6,23.7,7.5,25.1z"/>
		<line class="st5" x1="3.9" y1="20.2" x2="6.4" y2="23.6"/>
	</g>
	<line class="st2" x1="38.4" y1="12.8" x2="69.2" y2="20.1"/>
</g>
</svg>
