<?xml version="1.0" encoding="utf-8"?>
<!-- Generator: Adobe Illustrator 25.1.0, SVG Export Plug-In . SVG Version: 6.00 Build 0)  -->
<svg version="1.1" id="Layer_1" xmlns="http://www.w3.org/2000/svg" xmlns:xlink="http://www.w3.org/1999/xlink" x="0px" y="0px"
	 viewBox="0 0 16 16" style="enable-background:new 0 0 16 16;" xml:space="preserve">
<style type="text/css">
	.st0{fill:#FFFFFF;}
</style>
<path class="st0" d="M5.1,12h3.5c1.8,0,2.9-0.9,2.9-2.4c0-1.1-0.8-1.9-1.9-2V7.5C10.4,7.3,11,6.5,11,5.7c0-1.3-1-2.1-2.5-2.1H5.1V12
	z M6.4,7.1V4.7h1.8c1,0,1.5,0.5,1.5,1.2c0,0.8-0.6,1.2-1.8,1.2H6.4z M6.4,10.9V8.2h1.8c1.2,0,1.9,0.5,1.9,1.3c0,0.9-0.6,1.4-1.8,1.4
	H6.4z"/>
<path class="st0" d="M0,4c0-2.2,1.8-4,4-4h8c2.2,0,4,1.8,4,4v8c0,2.2-1.8,4-4,4H4c-2.2,0-4-1.8-4-4V4z M4,1C2.3,1,1,2.3,1,4v8
	c0,1.7,1.3,3,3,3h8c1.7,0,3-1.3,3-3V4c0-1.7-1.3-3-3-3H4z"/>
</svg>
