<?xml version="1.0" encoding="utf-8"?>
<!-- Generator: Adobe Illustrator 25.0.1, SVG Export Plug-In . SVG Version: 6.00 Build 0)  -->
<svg version="1.1" id="Layer_1" xmlns="http://www.w3.org/2000/svg" xmlns:xlink="http://www.w3.org/1999/xlink" x="0px" y="0px"
	 viewBox="0 0 31.1 8.5" style="enable-background:new 0 0 31.1 8.5;" xml:space="preserve">
<style type="text/css">
	.st0{fill:#FFFFFF;}
</style>
<g>
	<g>
		<path class="st0" d="M19.1,2.7c0,0.1,0.1,0.2,0.2,0.2c0.1,0,0.2-0.1,0.2-0.2c0-0.1-0.1-0.1-0.2-0.1c-0.3,0-0.5-0.2-0.5-0.4
			c0-0.3,0.2-0.4,0.5-0.4c0.1,0,0.1,0,0.2,0l0.1-0.1l0.2,0.1l-0.1,0.1c0.1,0.1,0.1,0.2,0.1,0.2c0,0.1-0.1,0.2-0.2,0.3
			c0.2,0.1,0.2,0.2,0.2,0.3c0,0.3-0.2,0.4-0.5,0.4c-0.3,0-0.5-0.1-0.5-0.4H19.1z M19.1,2.2c0,0.1,0.1,0.2,0.2,0.2
			c0.1,0,0.2-0.1,0.2-0.2c0-0.1-0.1-0.2-0.2-0.2C19.2,1.9,19.1,2,19.1,2.2z"/>
		<path class="st0" d="M19.3,1.7c-0.3,0-0.5,0.2-0.5,0.5c0,0.3,0.2,0.5,0.5,0.5c0.3,0,0.5-0.2,0.5-0.5C19.8,1.9,19.6,1.7,19.3,1.7
			 M19.3,2.4c-0.1,0-0.2-0.1-0.2-0.2c0-0.1,0.1-0.2,0.2-0.2c0.1,0,0.2,0.1,0.2,0.2C19.6,2.3,19.5,2.4,19.3,2.4"/>
		<path class="st0" d="M21,3.2l-0.5-0.7c0-0.6,0-1.5-1.1-2.5c0,0-0.1,0-0.1,0c0,0,0,0,0,0c0,0,0,0,0,0c0,0-0.1,0-0.1,0
			c-1,1-1.1,1.8-1.1,2.5l-0.5,0.7c0,0,0,0.1,0,0.1l0.4,1.3c0,0,0.1,0.1,0.1,0.1c0,0,0,0,0,0c0,0,0.1,0,0.1-0.1l0.4-0.5l0.6,1.8
			c0,0,0.1,0.1,0.1,0.1c0.1,0,0.1,0,0.1-0.1L20,4.1l0.4,0.5c0,0,0.1,0.1,0.1,0.1c0,0,0,0,0,0c0.1,0,0.1,0,0.1-0.1L21,3.2
			C21,3.2,21,3.2,21,3.2z M18.6,3.8l-0.3,0.5l-0.3-1l0.3-0.5L18.6,3.8C18.6,3.8,18.6,3.8,18.6,3.8z M19.3,5.5L19,4.2h0.2l0.2,0.6
			l0.2-0.6h0.2L19.3,5.5z M20,3.2L20,3.5l0,0l-0.1,0.5l0,0h0h-0.4h0h0h-0.4h0l0,0l-0.1-0.5l0,0l-0.1-0.3l-0.2-0.7c0,0,0,0,0,0
			c0-0.6,0-1.3,0.9-2.2c0,0,0,0,0,0c0,0,0,0,0,0c0.9,0.9,1,1.6,0.9,2.2c0,0,0,0,0,0L20,3.2z M20.5,4.3l-0.3-0.5c0,0,0,0,0,0l0.3-1
			l0.3,0.5L20.5,4.3z"/>
	</g>
	<path class="st0" d="M2.7,6.4C2.3,6.7,2,6.8,1.5,6.8C0.7,6.8,0,6.3,0,5.3c0-1,0.7-1.5,1.5-1.5c0.4,0,0.7,0.1,1,0.4L2.1,4.7
		C2,4.5,1.7,4.4,1.5,4.4c-0.5,0-0.8,0.4-0.8,0.9c0,0.6,0.4,0.8,0.8,0.8c0.2,0,0.5-0.1,0.6-0.2L2.7,6.4z"/>
	<path class="st0" d="M6,5.3c0,0.8-0.6,1.5-1.5,1.5C3.6,6.8,3,6.1,3,5.3c0-0.8,0.6-1.5,1.5-1.5C5.4,3.8,6,4.5,6,5.3z M3.7,5.3
		c0,0.4,0.3,0.9,0.8,0.9c0.5,0,0.8-0.4,0.8-0.9c0-0.4-0.3-0.9-0.8-0.9C4,4.4,3.7,4.9,3.7,5.3z"/>
	<path class="st0" d="M9.8,2.6v4.1H9.1l0-0.4C8.8,6.7,8.5,6.8,8.1,6.8c-0.9,0-1.5-0.6-1.5-1.5c0-1,0.6-1.5,1.5-1.5
		c0.3,0,0.8,0.2,1,0.5V2.6H9.8z M7.3,5.3c0,0.5,0.4,0.9,0.8,0.9C8.6,6.1,9,5.8,9,5.3c0-0.5-0.4-0.8-0.8-0.8C7.7,4.4,7.3,4.8,7.3,5.3
		z"/>
	<path class="st0" d="M11.3,5.5c0,0.4,0.4,0.6,0.9,0.6c0.3,0,0.6-0.1,0.8-0.3l0.5,0.5c-0.3,0.3-0.8,0.5-1.2,0.5
		c-1,0-1.6-0.6-1.6-1.5c0-0.9,0.6-1.5,1.5-1.5c1,0,1.6,0.6,1.5,1.8H11.3z M12.9,4.9c0-0.4-0.3-0.6-0.8-0.6c-0.4,0-0.7,0.2-0.8,0.6
		H12.9z"/>
	<path class="st0" d="M15.1,3.8l0.1,0.3c0.2-0.4,0.5-0.4,0.8-0.4c0.3,0,0.6,0.1,0.7,0.3l-0.3,0.6c-0.1-0.1-0.3-0.2-0.5-0.2
		c-0.4,0-0.7,0.2-0.7,0.7v1.5h-0.7V3.8H15.1z"/>
	<path class="st0" d="M17.3,7.3h4v0.5h-4V7.3z"/>
	<path class="st0" d="M24.5,3.5l0.5,0.4l-0.3,0.4c0.2,0.3,0.3,0.5,0.3,0.9c0,0.4-0.1,0.9-0.6,1.1c0.5,0.2,0.6,0.6,0.6,1
		c0,0.8-0.6,1.3-1.5,1.3c-0.8,0-1.5-0.5-1.5-1.3h0.7c0,0.4,0.3,0.6,0.8,0.6c0.4,0,0.7-0.2,0.7-0.6c0-0.4-0.4-0.6-0.7-0.6
		c-0.9,0-1.5-0.6-1.5-1.5s0.7-1.5,1.5-1.5c0.2,0,0.5,0,0.7,0.2L24.5,3.5z M22.8,5.2c0,0.5,0.3,0.8,0.8,0.8c0.4,0,0.8-0.3,0.8-0.8
		c0-0.5-0.3-0.8-0.8-0.8C23.2,4.4,22.8,4.7,22.8,5.2z"/>
	<path class="st0" d="M26.6,3c0,0.6-0.8,0.6-0.8,0C25.8,2.5,26.6,2.5,26.6,3z M25.9,3.8v2.9h0.7V3.8H25.9z"/>
	<path class="st0" d="M28.2,3.8l0.1,0.3c0.2-0.4,0.5-0.4,0.8-0.4c0.3,0,0.6,0.1,0.7,0.3l-0.3,0.6c-0.1-0.1-0.3-0.2-0.5-0.2
		c-0.4,0-0.7,0.2-0.7,0.7v1.5h-0.7V3.8H28.2z"/>
	<path class="st0" d="M31.1,2.6v4.1h-0.7V2.6H31.1z"/>
</g>
</svg>
