<?xml version="1.0" encoding="utf-8"?>
<!-- Generator: Adobe Illustrator 25.1.0, SVG Export Plug-In . SVG Version: 6.00 Build 0)  -->
<svg version="1.1" id="Layer_1" xmlns="http://www.w3.org/2000/svg" xmlns:xlink="http://www.w3.org/1999/xlink" x="0px" y="0px"
	 viewBox="0 0 70.7 56.9" style="enable-background:new 0 0 70.7 56.9;" xml:space="preserve">
<style type="text/css">
	.st0{fill:#FFFFFF;stroke:#F47B26;stroke-linecap:round;stroke-linejoin:round;stroke-miterlimit:10;}
	.st1{fill:#FFFFFF;stroke:#F47B26;stroke-width:0.75;stroke-linecap:round;stroke-linejoin:round;stroke-miterlimit:10;}
	.st2{fill:#FFFFFF;stroke:#681648;stroke-linecap:round;stroke-linejoin:round;stroke-miterlimit:10;}
</style>
<path class="st0" d="M32.9,23c0.1,0,0.1,0,0.2,0.1c0.7,0.4,0.8,1.2,1.2,1.8c0.5,0.7,1.3,1.5,2,2.1c0.4,0.3,0.9,0.5,1.4,0.5
	c0.5,0,1.1-0.4,1.6-0.5c0.7-0.1,1.1,0.1,1.6,0.2c0.7,0.1,1.2,0.1,1.8,0.5c0.4,0.3,0.5,1,1,1.4c0.5,0.4,1.3,0.4,2.1,0.3
	c0.1,0,0.2,0,0.3,0c0.1,0,0.1,0.1,0.2,0.2c0.5,0.9,0.1,1.9,1.1,2.6c0.9,0.8,2.3,0.7,3.4,1c0.8,0.2,1.5,0.8,1.9,1.5
	c0.4,1.2-0.5,2.5-0.9,3.8c-0.1,0.7-0.1,1.2-0.3,1.9c-0.2,0.8-0.7,1.3-1.1,2c-0.9,1.3-1.5,2.8-2.3,4.3c-0.7,1.1-1.5,2.2-2,3.4
	c-0.3,1-0.2,2-0.1,3s0.3,2,1,2.7c0.2,0.2,0.3,0.5,0.1,0.7c0,0-0.1,0-0.2,0c-1,0-1.9-0.5-2.5-1.2c-0.7-0.7-1.1-1.5-1.4-2.4
	c-0.5-1.5-1-3.1-1.1-4.7c-0.2-2.2-0.1-4.7-1.1-6.7c-0.7-1.4-2-2.4-3-3.5c-1.1-1.1-2-2.5-1.9-4c0.1-1.2,1-2.4,0.8-3.6
	c-0.1-0.7-0.5-1.2-1.1-1.8c-1.2-1.3-2.8-2.2-4.6-2.7c-0.1,0-0.1,0-0.2-0.1"/>
<path class="st1" d="M38.4,20.8c0.3,0,0.3,0,0.7,0.1s0.6,0.1,0.6,0.1"/>
<path class="st1" d="M41.2,21.5c0.4,0.1,0.7,0.3,0.7,0.3"/>
<line class="st1" x1="43.1" y1="22.7" x2="43.3" y2="22.7"/>
<line class="st1" x1="44.2" y1="23.8" x2="44.3" y2="23.8"/>
<line class="st1" x1="43.9" y1="25.1" x2="43.8" y2="25.2"/>
<path class="st2" d="M30.8,25.8c-1.3-0.4-2.8-0.7-3.6-1.9c-0.4-0.7-0.4-1.4-0.9-2.1c-0.4-0.7-1.1-1.3-1.4-2.1
	c-0.2-0.4-0.2-0.9-0.3-1.3c-0.3-1.3-1.5-1.5-2.2-2.6c-0.4-0.8-0.2-1.8,0.2-2.5c0.4-0.8,1.1-1.4,1.4-2.2c0.5-1.1,0.7-2.5,0.1-3.6
	c-0.4-1-1.4-1.8-2.4-2c-1-0.2-1.9,0.3-2.7,0.2c-0.9-0.2-1.4-0.7-0.9-1.5c0.3-0.8,1.6-1.2,2.4-1.4c3.7-1.2,7.8-0.7,11.7-0.4
	c0.5,0,1.3,0,1.6-0.5C34,1.6,34.1,1.2,34.2,1c0.4-1,1.9-0.7,2.7-0.1c0.9,0.5,1.9,1.3,2.8,1c0.4-0.1,0.7-0.4,1-0.7
	c1.6-1,3.8-0.5,5.7,0.2c1,0.3,2.5,1.6,1.1,2.5c-1.3,0.9-1.8-0.9-2.8-1.2c-0.8-0.2-1.5,0.8-2.2,1C42,4,41.4,4,40.9,4.1
	c-1,0.2-2,0.7-2.6,1.4c-1.1,1.5,0.4,1.6,1.2,2.7c0.3,0.4,0.3,1.1,0.8,1.3c0.7,0.3,1.4-0.2,1.6-0.9c0.2-0.4,0.1-0.9,0.2-1.2
	c0.2-0.9,1.1-1.5,2.1-1.6c1,0,1.9,0.4,2.5,1.1c0.9,0.9,1.4,2.2,1,3.3c-0.3,1-1.3,1.6-2.4,2.1c-1.1,0.4-2.1,0.8-3,1.4
	c-1.9,1.4-2.5,4.2-4.6,5.1c-1.3,0.7-2.8,0.3-4.4,0.4c-1.4,0.1-3.2,0.8-3.4,2.3c-0.2,1.3,1.3,2.7,2.5,1.6c0.1-0.1,0.2-0.2,0.4-0.2"/>
</svg>
