<?xml version="1.0" encoding="utf-8"?>
<!-- Generator: Adobe Illustrator 25.1.0, SVG Export Plug-In . SVG Version: 6.00 Build 0)  -->
<svg version="1.1" id="Layer_1" xmlns="http://www.w3.org/2000/svg" xmlns:xlink="http://www.w3.org/1999/xlink" x="0px" y="0px"
	 viewBox="0 0 87.3 55.3" style="enable-background:new 0 0 87.3 55.3;" xml:space="preserve">
<style type="text/css">
	.st0{fill:#FFFFFF;stroke:#F47B26;stroke-linecap:round;stroke-linejoin:round;stroke-miterlimit:10;}
	.st1{fill:none;stroke:#681648;stroke-linecap:round;stroke-linejoin:round;stroke-miterlimit:10;}
</style>
<g>
	<g>
		<path class="st0" d="M35.7,12.9c-0.1,0.7-0.3,0.9-0.7,1.4c-0.7,0.8-0.8,2.4,0.8,2.5c0.9,0,1.7-0.7,2.3-1.4c0.6-0.7,1-1.5,1.8-2
			s2-0.4,2.4,0.4c0.2,0.4,0.2,0.9,0.5,1.3c0.5,0.6,1.4,0.4,2-0.1c0.5-0.5,0.9-1.2,1.4-1.8c0.8-0.8,2-1.1,3.1-1.2
			c0.8,0,2.3,0.7,1.3,1.5c-0.9,0.7-2.6,0.2-3.1,1.6c-0.2,0.6,0.5,1.5,1.1,1.1c0.6,0.8,0.2,1.9,0.5,2.8c0.2,0.8,0.8,1.4,1.2,2
			c0.5,0.7,0.9,1.6,1.1,2.5c0.2,0.7,0.1,2,0.8,2.5c1.3,1,4.1-1.1,5-2c0.4-0.4,0.7-0.9,0.7-1.4c-0.1-0.6-0.6-1-1.1-1.3
			s-2.2-0.9-1.8-1.5c0.2-0.3,1.4-0.4,1.7-0.4c0.9,0,1.9,0.4,2.6,1c1.3,1,2.2,2.5,2.8,4c0.3,0.7,0.5,1.7,1.4,1.8
			c1.3,0.2,1.8-1.7,2-2.6c0.2-0.5,0.3-1.6,0.8-1.9c0.6-0.3,2,0.1,2.4,0.5c0.8,0.7,1.2,2.1,1.2,3.1c0,1.1-0.4,2.1-0.6,3.1
			s0,2.2,0.8,2.9c0.6,0.5,1.4,0.7,2.2,0.7c1.9,0,4.2-1,4.5-2.9c0-0.3,0-0.7-0.3-0.8c-0.1,0-0.3,0-0.4,0.1c-0.9,0.4-1.9,0.8-2.8,1.1
			c-0.3,0.1-0.5,0.2-0.8,0.2c-0.8-0.1-1.1-1.1-0.8-1.8c0.3-0.7,1-1.2,1.5-1.8c0.5-0.6,0.9-1.4,0.6-2.1c-0.2-0.4-0.7-0.7-0.8-1.2
			c-0.2-0.8,0.7-1.3,1.5-1.4c0.8,0,1.6,0.2,2.3-0.1c1-0.4,1.3-1.7,1.1-2.7c-0.2-1-0.9-1.9-1.5-2.8c-0.3-0.4-0.5-1-0.1-1.3
			c0.3-0.2,0.6-0.1,1-0.1c1.1,0.1,2.3-0.6,2.8-1.6c0.4-1.1,0.1-2.4-0.9-3.1c-0.4-0.3-0.9-0.5-1.2-0.9c-1.1-1.8,2-3,3.3-2.6
			c1.2,0.3,1,1.4,1.4,2.4c0.3,0.7,0.7,1.7,1.6,2C85.5,11,85,9.3,85,8.7c-0.1-1,0.2-1.7,1.1-2.2C88.2,5,85.4,4.3,84,4
			c-1.8-0.3-3.5-0.6-5.3-0.7c-4.5-0.4-9.3-0.1-13.4-2c-0.9-0.4-1.8-0.9-2.8-0.9c-0.7,0-1.4,0.3-2,0.5c-1,0.4-2,0.9-3,1.2
			c-0.5,0.2-1.2,0.2-1.6,0.5c-1,0.8-0.8,2.1-2.5,2c-0.8-0.1-1.5-0.4-2.3-0.3c-1.5,0.1-2.6,1.2-4.1,1.3c-0.5,0-1.5-0.3-0.9-1
			c0.4-0.5,1-0.4,1-1.2c0-0.5-0.3-0.8-0.8-1c-0.6-0.3-1.4-0.3-2.1-0.2c-1.1,0.2-2,0.9-2.9,1.5c-1,0.7-3.3,2.2-2.6,3.7
			c0.4,0,3.1-0.3,3.1-0.7c0,0.5-0.3,0.9-0.6,1.3c-0.9,1.1-2.1,2.1-3.5,2.8C36.7,11.3,35.9,11.6,35.7,12.9z"/>
		<path class="st1" d="M45.2,14.6c0.4-0.5,0.6-1,1-1.4c0.8-0.8,2-1.1,3.1-1.2c0.8,0,2.3,0.7,1.3,1.5c-0.9,0.7-2.6,0.2-3.1,1.6
			c-0.2,0.6,0.5,1.5,1.1,1.1c0.6,0.8,0.2,1.9,0.5,2.8c0.2,0.8,0.8,1.4,1.2,2c0.5,0.7,0.9,1.6,1.1,2.5c0.2,0.7,0.1,2,0.8,2.5
			c1.3,1,4.1-1.1,5-2c0.4-0.4,0.7-0.9,0.7-1.4c-0.1-0.6-0.6-1-1.1-1.3s-2.2-0.9-1.8-1.5c0.2-0.3,1.4-0.4,1.7-0.4
			c0.9,0,1.9,0.4,2.6,1c0.1,0.1,0.2,0.2,0.4,0.3"/>
		<path class="st0" d="M49.1,41.9c0.3-0.7,0.5-1.4,1-1.9s1-0.6,0.9-1.5c-0.1-1-0.8-2-0.7-3c0-1,0.6-1.8,1.2-2.6
			c0.5-0.6,1-1.3,1.4-1.9c0.5-0.7,1.1-1.5,0.9-2.4c-3.4,0.4-4.6-3.9-5.5-6.4c-0.2-0.6-0.4-1.2-0.9-1.7c-0.4-0.5-1.2-0.6-1.7-0.2
			c-0.2,0.2-0.3,0.4-0.5,0.6C45,21,44.6,21,44.3,21c-0.9-0.1-1.8,0-2.7,0c-0.6,0-0.9,0-1.1-0.6c-0.2-0.8,0.8-2-0.6-2.1
			c-1.7-0.1-3.2,0.8-4.4,2c-1.4,1.3-2.6,3.1-2.9,5s0.3,4.1,1.9,5.3c0.8,0.6,1.9,0.9,2.7,0.4c0.3-0.2,0.6-0.6,1-0.7
			c0.6-0.2,1.6,0.4,2,0.8c0.8,0.7,0.2,1.6,0.4,2.4c0.3,1.1,1.3,1.6,1.3,2.9c0,0.9-0.3,1.7-0.4,2.5c-0.1,0.4-0.1,0.8,0,1.2
			s0.4,0.8,0.6,1.2c0.8,1.5,0.8,3.3,1.3,4.9c0.1,0.2,0.1,0.4,0.3,0.5c0.4,0.3,0.9,0,1.3-0.3C46.6,45.3,48.3,43.9,49.1,41.9z"/>
		<path class="st0" d="M81.1,17.6c0.4-0.5,1.3-1.4,2-1.5c1.1-0.1,1.4,1.4,1.1,2.2c-0.5,1-1.7,1.8-2.6,2.3
			C79.2,21.6,80.3,18.4,81.1,17.6z"/>
		<path class="st0" d="M52.7,39.7c0.1-0.5,0.3-1.5,0.8-1.9c0.8-0.5,1.6,0.3,1.6,1c0.1,0.9-0.4,2-0.9,2.7
			C53.1,43.2,52.6,40.6,52.7,39.7z"/>
		<path class="st0" d="M81.7,32.3c-0.3-0.3-0.9-0.4-1.1,0.1c-0.2,0.5,0.4,1.1,0.7,1.5c0.4,0.7,0.3,1.7,1,2.1c0.6,0.4,1.3,0,2-0.1
			c0.5-0.1,1.7,0.3,2.1,0c0.5-0.4,0.2-1.3-0.2-1.7c-0.6-0.6-1.5-0.5-2.4-0.7C82.9,33.2,82.2,32.9,81.7,32.3z"/>
		<path class="st0" d="M85.9,43.9C85.8,42.8,85,42,84.8,41c-0.2-0.7,0.2-2.6-0.6-3.1c-1.1-0.7-1.9,2.9-2.7,1
			c-0.3-0.7-0.1-2.4-1.5-1.5c-0.4,0.2-0.7,0.6-1.1,0.8c-0.8,0.4-2,0.1-2.4,0.8c-0.1,0.2-0.1,0.5-0.2,0.7s-0.4,0.4-0.6,0.5
			c-0.7,0.3-1.6,0.5-2,1.2c-0.2,0.4-0.2,1-0.2,1.5c0,0.9,0.1,1.9-0.2,2.8c-0.3,1.1-0.4,2.3,1,1.1c0.9-0.7,1.8-1.4,2.9-1.9
			c0.3-0.2,0.7-0.3,1.1-0.2c0.5,0.1,0.8,0.6,0.9,1.1s0.2,1,0.4,1.4c0.6,0.9,1.9,0.9,2.9,0.6c0.9-0.2,1.8-0.7,2.5-1.3
			C85.5,45.8,86,44.8,85.9,43.9z"/>
		<path class="st0" d="M26.5,4.4c0.9,0.3,2.3,1.5,1,2.3c-1.2,0.8-1.6-0.8-2.6-1.1c-0.7-0.2-1.4,0.7-2,0.9c-0.5,0.2-1,0.2-1.5,0.3
			C20.5,7,19.6,7.4,19,8.1c-1,1.4,0.4,1.5,1.1,2.5c0.3,0.4,0.3,1,0.7,1.2c0.6,0.3,1.3-0.2,1.5-0.8c0.2-0.4,0.1-0.8,0.2-1.1
			c0.2-0.8,1-1.4,1.9-1.5c0.9,0,1.7,0.4,2.3,1c0.8,0.8,1.3,2,0.9,3c-0.3,0.9-1.2,1.5-2.2,1.9s-1.9,0.7-2.7,1.3
			c-1.7,1.3-2.3,3.8-4.2,4.7c-1.2,0.6-2.6,0.3-4,0.4c-1.3,0.1-2.9,0.7-3.1,2.1c-0.2,1.2,1.2,2.5,2.3,1.5c0.1-0.1,0.2-0.2,0.4-0.2
			c0.1,0,0.1,0,0.2,0.1c0.6,0.4,0.7,1.1,1.1,1.6c0.5,0.6,1.2,1.4,1.8,1.9c0.4,0.3,0.8,0.5,1.3,0.5s1-0.4,1.5-0.5
			c0.6-0.1,1,0.1,1.5,0.2c0.6,0.1,1.1,0.1,1.6,0.5c0.4,0.3,0.5,0.9,0.9,1.3c0.5,0.4,1.2,0.4,1.9,0.3c0.1,0,0.2,0,0.3,0
			c0.1,0,0.1,0.1,0.2,0.2c0.5,0.8,0.1,1.7,1,2.4c0.8,0.7,2.1,0.6,3.1,0.9c0.7,0.2,1.4,0.7,1.7,1.4c0.4,1.1-0.5,2.3-0.8,3.5
			c-0.1,0.6-0.1,1.1-0.3,1.7c-0.2,0.7-0.6,1.2-1,1.8c-0.8,1.2-1.4,2.6-2.1,3.9c-0.6,1-1.4,2-1.8,3.1c-0.3,0.9-0.2,1.8-0.1,2.7
			s0.3,1.8,0.9,2.5c0.2,0.2,0.3,0.5,0.1,0.6c0,0-0.1,0-0.2,0c-0.9,0-1.7-0.5-2.3-1.1c-0.6-0.6-1-1.4-1.3-2.2c-0.5-1.4-0.9-2.8-1-4.3
			c-0.2-2-0.1-4.3-1-6.1c-0.6-1.3-1.8-2.2-2.7-3.2c-1-1-1.8-2.3-1.7-3.7c0.1-1.1,0.9-2.2,0.7-3.3c-0.1-0.6-0.5-1.1-1-1.6
			c-1.1-1.2-2.6-2-4.2-2.5c-1.3-0.4-2.9-0.6-3.7-1.7c-0.4-0.6-0.4-1.3-0.8-1.9c-0.4-0.6-1-1.2-1.3-1.9c-0.2-0.4-0.2-0.8-0.3-1.2
			c-0.3-1.2-1.4-1.4-2-2.4c-0.4-0.7-0.2-1.6,0.2-2.3c0.4-0.7,1-1.3,1.3-2c0.5-1,0.6-2.3,0.1-3.3c-0.2-1-1-1.7-2-1.9
			C3.1,8,2.3,8.5,1.4,8.3C0.6,8.2,0.2,7.7,0.6,6.9C1,6.2,2.1,5.8,2.8,5.6c3.4-1.1,7.1-0.5,10.7-0.4c0.5,0,1.2,0,1.5-0.5
			c0.1-0.2,0.2-0.5,0.3-0.7c0.4-0.9,1.7-0.6,2.5-0.1s1.7,1.2,2.6,0.9c0.4-0.1,0.6-0.4,0.9-0.6C22.9,3.3,24.9,3.8,26.5,4.4z"/>
	</g>
</g>
</svg>
