<?xml version="1.0" encoding="utf-8"?>
<!-- Generator: Adobe Illustrator 25.0.1, SVG Export Plug-In . SVG Version: 6.00 Build 0)  -->
<svg version="1.1" id="Layer_1" xmlns="http://www.w3.org/2000/svg" xmlns:xlink="http://www.w3.org/1999/xlink" x="0px" y="0px"
	 viewBox="0 0 560 288" style="enable-background:new 0 0 560 288;" xml:space="preserve">
<style type="text/css">
	.st0{fill:url(#SVGID_1_);}
	.st1{fill:#2A323B;}
	.st2{fill:url(#SVGID_2_);}
	.st3{fill:url(#SVGID_3_);}
	.st4{fill:url(#SVGID_4_);}
	.st5{fill:url(#SVGID_5_);}
	.st6{fill:url(#SVGID_6_);}
	.st7{fill:none;stroke:#2A323B;stroke-width:1.5;stroke-miterlimit:10;}
	.st8{fill:#2A323B;stroke:#2A323B;stroke-miterlimit:10;}
	.st9{fill:url(#SVGID_7_);stroke:#2A323B;stroke-width:0.75;stroke-miterlimit:10;}
	.st10{fill:none;stroke:#2A323B;stroke-width:0.75;stroke-linecap:round;stroke-linejoin:round;stroke-miterlimit:10;}
	.st11{fill:#FFFFFF;}
	.st12{fill:#A81E33;stroke:#2A323B;stroke-width:0.75;stroke-linecap:round;stroke-linejoin:round;stroke-miterlimit:10;}
	.st13{fill:#B9D544;stroke:#2A323B;stroke-width:0.75;stroke-linecap:round;stroke-linejoin:round;stroke-miterlimit:10;}
</style>
<g>
	<g>
		<linearGradient id="SVGID_1_" gradientUnits="userSpaceOnUse" x1="171.4" y1="125.1" x2="171.4" y2="162.7">
			<stop  offset="1.118836e-07" style="stop-color:#F47B26"/>
			<stop  offset="1" style="stop-color:#F05423"/>
		</linearGradient>
		<path class="st0" d="M172.8,162.7c-10.3,0-18.8-8.4-18.8-18.8c0-10.4,8.4-18.8,18.8-18.8c6.4,0,12.5,3.3,15.9,8.8l-5.1,3.5
			c-2.3-3.8-6.4-6.1-10.8-6.1c-7,0-12.6,5.7-12.6,12.6c0,6.9,5.7,12.6,12.6,12.6c4.4,0,8.4-2.3,10.7-5.9l5.3,3.2
			C185.3,159.4,179.4,162.7,172.8,162.7z"/>
		<path class="st1" d="M172.8,125.6c6.1,0,11.8,3.1,15.2,8.1l-4.2,3c-2.4-3.7-6.5-5.9-11-5.9c-7.2,0-13.1,5.9-13.1,13.1
			c0,7.2,5.9,13.1,13.1,13.1c4.4,0,8.5-2.2,10.9-5.7l4.5,2.7c-3.4,5.2-9.1,8.3-15.3,8.3c-10.1,0-18.3-8.2-18.3-18.3
			C154.6,133.8,162.8,125.6,172.8,125.6 M172.8,124.6c-10.7,0-19.3,8.7-19.3,19.3s8.6,19.3,19.3,19.3c7.1,0,13.3-3.9,16.7-9.6
			l-6.2-3.7c-2.1,3.7-6,6.1-10.5,6.1c-6.7,0-12.1-5.4-12.1-12.1s5.4-12.1,12.1-12.1c4.6,0,8.6,2.6,10.7,6.3l5.9-4.1
			C186.1,128.4,179.9,124.6,172.8,124.6L172.8,124.6z"/>
	</g>
	<g>
		<path class="st1" d="M213.5,162.7c-10.3,0-18.8-8.4-18.8-18.7s8.4-18.8,18.8-18.8c10.3,0,18.7,8.4,18.7,18.8
			C232.2,154.3,223.8,162.7,213.5,162.7z M213.5,131.2c-7.1,0-12.9,5.8-12.9,12.9c0,7,5.8,12.8,12.9,12.8c7,0,12.8-5.7,12.8-12.8
			C226.3,136.9,220.6,131.2,213.5,131.2z"/>
		<path class="st1" d="M213.5,125.7c10,0,18.2,8.2,18.2,18.3c0,10-8.2,18.2-18.2,18.2c-10.1,0-18.3-8.2-18.3-18.2
			C195.2,133.9,203.4,125.7,213.5,125.7 M213.5,157.3c7.3,0,13.3-6,13.3-13.3c0-7.4-6-13.4-13.3-13.4c-7.4,0-13.4,6-13.4,13.4
			C200.2,151.3,206.1,157.3,213.5,157.3 M213.5,124.7c-10.7,0-19.3,8.6-19.3,19.3c0,10.6,8.6,19.2,19.3,19.2
			c10.6,0,19.2-8.6,19.2-19.2C232.7,133.3,224.1,124.7,213.5,124.7L213.5,124.7z M213.5,156.3c-6.8,0-12.4-5.5-12.4-12.3
			s5.5-12.4,12.4-12.4c6.8,0,12.3,5.5,12.3,12.4C225.8,150.8,220.3,156.3,213.5,156.3L213.5,156.3z"/>
	</g>
	<g>
		<linearGradient id="SVGID_2_" gradientUnits="userSpaceOnUse" x1="256.7" y1="125.2383" x2="256.7" y2="162.6963">
			<stop  offset="1.118836e-07" style="stop-color:#F47B26"/>
			<stop  offset="1" style="stop-color:#F05423"/>
		</linearGradient>
		<polygon class="st2" points="269.3,162.7 269.3,140.6 260.6,159.6 252.9,159.6 244.1,140.5 244.1,162.7 237.5,162.7 237.5,125.2 
			244.3,125.2 256.7,152.3 269.1,125.2 275.9,125.2 275.9,162.7 		"/>
		<path class="st1" d="M275.4,125.7v36.5h-5.6v-19.3v-4.6l-1.9,4.2l-7.6,16.6h-3.5h-3.6l-7.7-16.7l-1.9-4.2v4.6v19.4H238v-36.5h3.6
			h2.4l11.9,25.7l0.9,2l0.9-2l11.8-25.7h2.4H275.4 M276.4,124.7h-4.6h-2.9h-0.1L256.7,151l-12.1-26.3h-3H237v38.5h7.6v-20.4
			l7.9,17.3h4.2h4.2l7.9-17.2v20.3h7.6L276.4,124.7L276.4,124.7z"/>
	</g>
	<g>
		<linearGradient id="SVGID_3_" gradientUnits="userSpaceOnUse" x1="295.9" y1="125.2383" x2="295.9" y2="162.6963">
			<stop  offset="1.118836e-07" style="stop-color:#F47B26"/>
			<stop  offset="1" style="stop-color:#F05423"/>
		</linearGradient>
		<path class="st3" d="M282,162.7v-37.5h10.7c9.5,0,17.1,7.7,17.1,17.1c0,9.5-7.7,17.2-17.1,17.2h-4.1v3.1L282,162.7L282,162.7z
			 M288.5,153.6h4.1c6.2,0,11.2-5,11.2-11.2s-5-11.2-11.2-11.2h-4.1V153.6z"/>
		<path class="st1" d="M292.6,125.7c9.2,0,16.6,7.5,16.6,16.6c0,9.2-7.5,16.7-16.6,16.7H289h-1v1v2.1h-5.6v-36.5h4.5h2.1
			L292.6,125.7 M288,154.1h1h3.6c6.5,0,11.7-5.3,11.7-11.7c0-6.5-5.3-11.7-11.7-11.7H289h-1v1v21.5V154.1 M292.6,124.7H289h-2h-5.5
			v38.5h7.6v-3.1h3.6c9.7,0,17.6-7.9,17.6-17.7C310.3,132.7,302.3,124.7,292.6,124.7L292.6,124.7z M289,153.1v-21.5h3.6
			c5.9,0,10.7,4.9,10.7,10.7c0,6-4.9,10.7-10.7,10.7H289V153.1z"/>
	</g>
	<g>
		<linearGradient id="SVGID_4_" gradientUnits="userSpaceOnUse" x1="328.95" y1="125.2383" x2="328.95" y2="162.6963">
			<stop  offset="1.118836e-07" style="stop-color:#F47B26"/>
			<stop  offset="1" style="stop-color:#F05423"/>
		</linearGradient>
		<path class="st4" d="M341.1,162.7l-1.4-3.3l-0.5,0.3c-3,2-6.4,3-10.2,3c-3.6,0-7.1-1-10.1-3l-0.5-0.3l-1.4,3.3h-6.5l15-37.5h6.9
			l15,37.5H341.1z M320.8,153.5l0.3,0.2c2.2,1.9,5,2.9,8,2.9s5.8-1,8-2.8l0.3-0.2l-8.3-20.7L320.8,153.5z"/>
		<path class="st1" d="M332.2,125.7l14.6,36.5h-5.4l-1-2.5l-0.5-1.1l-1,0.7c-2.9,1.9-6.3,2.9-9.9,2.9c-3.5,0-6.9-1-9.8-2.9l-1-0.7
			l-0.5,1.1l-1,2.5h-5.4l14.6-36.5H332.2 M329,157.1c3.1,0,6-1,8.4-2.9l0.6-0.5l-0.3-0.7l-5.4-13.5l-2.3-5.7l-0.9-2.3l-0.9,2.3
			l-7.6,19.1l-0.3,0.7l0.5,0.5C323,156.1,326,157.1,329,157.1 M332.9,124.7h-7.6l-15.4,38.5h7.6l1.3-3.1c3,2,6.5,3.1,10.4,3.1
			s7.4-1.1,10.4-3.1l1.3,3.1h7.6L332.9,124.7L332.9,124.7z M329,156.1c-2.9,0-5.6-1-7.6-2.8l7.6-19.1l2.3,5.7l5.4,13.5
			C334.7,155.1,332,156.1,329,156.1L329,156.1z"/>
	</g>
	<g>
		<linearGradient id="SVGID_5_" gradientUnits="userSpaceOnUse" x1="360.903" y1="125.165" x2="360.903" y2="162.6963">
			<stop  offset="1.118836e-07" style="stop-color:#F47B26"/>
			<stop  offset="1" style="stop-color:#F05423"/>
		</linearGradient>
		<path class="st5" d="M361,162.7c-6.6,0-10.3-2.9-12.3-5.4l4.9-4c2,2.5,4.2,3.6,7.1,3.6c3.4,0,5.8-1.8,5.8-4.3c0-3-2.5-4.1-6-5.6
			l-1.9-0.8c-5.4-2.3-9-5.1-9-11.2c0-5.7,4.5-9.7,10.8-9.7c4.2,0,7.2,1.4,9.4,4.3l-4.7,3.9c-1.2-1.7-2.7-2.4-4.7-2.4
			c-2.5,0-4.3,1.6-4.3,3.8c0,2.8,1.9,3.8,5.1,5.2l1.9,0.8c6.5,2.8,10,5.4,10,11.7C373.3,158.6,368.5,162.7,361,162.7z"/>
		<path class="st1" d="M360.6,125.7c3.8,0,6.6,1.2,8.7,3.7l-4,3.3c-1.3-1.5-2.7-2.2-4.7-2.2c-2.8,0-4.8,1.8-4.8,4.3
			c0,3,2,4.1,5.4,5.6l1.9,0.8c6.3,2.7,9.7,5.3,9.7,11.2c0,7.2-6.1,9.8-11.8,9.8c-6.1,0-9.6-2.5-11.6-4.9l4.1-3.4
			c1.4,1.6,3.6,3.4,7.2,3.4c3.7,0,6.3-2,6.3-4.8c0-3.3-2.6-4.5-6.3-6.1l-1.9-0.8c-5.3-2.3-8.7-4.9-8.7-10.8
			C350.2,129.5,354.5,125.7,360.6,125.7 M360.6,124.7c-6.9,0-11.3,4.4-11.3,10.2c0,6.3,3.7,9.3,9.3,11.7l1.9,0.8
			c3.5,1.5,5.7,2.5,5.7,5.1c0,2.2-2.1,3.8-5.3,3.8c-3.4,0-5.4-1.6-7.1-3.8l-5.7,4.6c2.5,3.5,6.8,6,12.9,6c7.3,0,12.8-3.8,12.8-10.8
			c0-6.5-3.8-9.3-10.3-12.1l-1.9-0.8c-3.3-1.5-4.8-2.4-4.8-4.7c0-1.9,1.5-3.3,3.8-3.3c2,0,3.3,0.7,4.6,2.6l5.5-4.6
			C368.2,126.1,364.9,124.7,360.6,124.7L360.6,124.7z"/>
	</g>
	<g>
		<linearGradient id="SVGID_6_" gradientUnits="userSpaceOnUse" x1="393.003" y1="125.165" x2="393.003" y2="162.6963">
			<stop  offset="1.118836e-07" style="stop-color:#F47B26"/>
			<stop  offset="1" style="stop-color:#F05423"/>
		</linearGradient>
		<path class="st6" d="M393.1,162.7c-6.6,0-10.3-2.9-12.3-5.4l4.9-4c2,2.5,4.2,3.6,7.1,3.6c3.4,0,5.8-1.8,5.8-4.3c0-3-2.5-4.1-6-5.6
			l-1.9-0.8c-5.4-2.3-9-5.1-9-11.2c0-5.7,4.5-9.7,10.8-9.7c4.2,0,7.2,1.4,9.4,4.3l-4.7,3.9c-1.2-1.7-2.7-2.4-4.7-2.4
			c-2.5,0-4.3,1.6-4.3,3.8c0,2.8,1.9,3.8,5.1,5.2l1.9,0.8c6.5,2.8,10,5.4,10,11.7C405.4,158.6,400.6,162.7,393.1,162.7z"/>
		<path class="st1" d="M392.7,125.7c3.8,0,6.6,1.2,8.7,3.7l-4,3.3c-1.3-1.5-2.7-2.2-4.7-2.2c-2.8,0-4.8,1.8-4.8,4.3
			c0,3,2,4.1,5.4,5.6l1.9,0.8c6.3,2.7,9.7,5.3,9.7,11.2c0,7.2-6.1,9.8-11.8,9.8c-6.1,0-9.6-2.5-11.6-4.9l4.1-3.4
			c1.4,1.6,3.6,3.4,7.2,3.4c3.7,0,6.3-2,6.3-4.8c0-3.3-2.6-4.5-6.3-6.1l-1.9-0.8c-5.3-2.3-8.7-4.9-8.7-10.8
			C382.4,129.5,386.6,125.7,392.7,125.7 M392.7,124.7c-6.9,0-11.3,4.4-11.3,10.2c0,6.3,3.7,9.3,9.3,11.7l1.9,0.8
			c3.5,1.5,5.7,2.5,5.7,5.1c0,2.2-2.1,3.8-5.3,3.8c-3.4,0-5.4-1.6-7.1-3.8l-5.7,4.6c2.5,3.5,6.8,6,12.9,6c7.3,0,12.8-3.8,12.8-10.8
			c0-6.5-3.8-9.3-10.3-12.1l-1.9-0.8c-3.3-1.5-4.8-2.4-4.8-4.7c0-1.9,1.5-3.3,3.8-3.3c2,0,3.3,0.7,4.6,2.6l5.5-4.6
			C400.4,126.1,397,124.7,392.7,124.7L392.7,124.7z"/>
	</g>
</g>
<circle class="st7" cx="213.7" cy="122" r="2.7"/>
<circle class="st8" cx="213.7" cy="124.8" r="1.3"/>
<g>
	
		<linearGradient id="SVGID_7_" gradientUnits="userSpaceOnUse" x1="220.8124" y1="154.4781" x2="210.7593" y2="138.0196" gradientTransform="matrix(1 0 0 -1 0 288)">
		<stop  offset="1.118836e-07" style="stop-color:#F47B26"/>
		<stop  offset="0.1942" style="stop-color:#F07727"/>
		<stop  offset="0.4081" style="stop-color:#E56928"/>
		<stop  offset="0.6314" style="stop-color:#D4532C"/>
		<stop  offset="0.8597" style="stop-color:#BB3530"/>
		<stop  offset="1" style="stop-color:#A81E33"/>
	</linearGradient>
	<path class="st9" d="M213.2,149.2c0.2-0.1,0.8-0.2,1-0.4l1.9-1.3c0,0,9.5-6.5,7.3-16.9c-0.1-0.4-0.7-0.5-0.9-0.1
		c-0.9,2.1-2.8,6.2-9.2,9.9c-1.1,0.6-2.2,1.3-3.3,2.1l-0.1,0.1c-0.1,0.1-0.3,0.2-0.4,0.3"/>
	<path class="st10" d="M208.7,148.8c0,0-1.7,0.2-2,1.7c-0.1,0.3-0.3,0.5-0.6,0.6l0,0c-0.6,0.1-1-0.5-0.9-1c0.2-0.6,0.8-1.7,2.8-2.3"
		/>
	<path class="st11" d="M218.2,143.8c0.5-0.4,3.3-2.5,3.9-5.9l0,0c0.1-0.7,0.2-1.4,0.1-2.1c-0.3,0.5-0.6,1.1-1.1,1.7
		c-0.8,1.1-1.5,2.3-1.9,3.6C219,142.1,218.6,143,218.2,143.8z"/>
	<polyline class="st12" points="209.5,142.9 209,145.8 210.4,147.8 213.6,149 	"/>
	<path class="st13" d="M209,147.7c-2-2.9,0.5-4.8,0.5-4.8s-0.1,2.6,2.7,2.6c-1,2.6,1.4,3.5,1.4,3.5S211,150.7,209,147.7z"/>
</g>
<g>
	<g>
		<path class="st11" d="M172.8,114.3c-10.3,0-18.8-8.4-18.8-18.8s8.4-18.8,18.8-18.8c6.4,0,12.5,3.3,15.9,8.8l-5.1,3.5
			c-2.3-3.8-6.4-6.1-10.8-6.1c-7,0-12.6,5.7-12.6,12.6s5.7,12.6,12.6,12.6c4.4,0,8.4-2.3,10.7-5.9l5.3,3.2
			C185.3,110.9,179.4,114.3,172.8,114.3z"/>
		<path class="st1" d="M172.8,77.2c6.1,0,11.8,3.1,15.2,8.1l-4.2,3c-2.4-3.7-6.5-5.9-11-5.9c-7.2,0-13.1,5.9-13.1,13.1
			s5.9,13.1,13.1,13.1c4.4,0,8.5-2.2,10.9-5.7l4.5,2.6c-3.4,5.2-9.1,8.3-15.3,8.3c-10.1,0-18.3-8.2-18.3-18.3
			C154.6,85.4,162.8,77.2,172.8,77.2 M172.8,76.2c-10.7,0-19.3,8.7-19.3,19.3c0,10.7,8.6,19.3,19.3,19.3c7.1,0,13.3-3.9,16.7-9.6
			l-6.2-3.7c-2.1,3.7-6,6.1-10.5,6.1c-6.7,0-12.1-5.4-12.1-12.1s5.4-12.1,12.1-12.1c4.6,0,8.6,2.6,10.7,6.3l5.9-4.1
			C186.1,80,179.9,76.2,172.8,76.2L172.8,76.2z"/>
	</g>
	<g>
		<path class="st11" d="M219.4,114.3l-3-5.2l-0.4,0.2c-2.3,1.2-4.9,1.9-7.7,1.9h-3.1v3.1h-6.6V76.8h9.6c9.5,0,17.2,7.7,17.2,17.1
			c0,4.1-1.5,8.1-4.2,11.3l-0.2,0.3l5,8.7L219.4,114.3L219.4,114.3z M205.1,105.2h3.1c6.2,0,11.2-5,11.2-11.2s-5-11.2-11.2-11.2
			h-3.1V105.2z"/>
		<path class="st1" d="M208.2,77.3c9.2,0,16.7,7.5,16.7,16.6c0,4-1.5,7.9-4.1,11l-0.5,0.5l0.4,0.6l4.4,7.7h-5.5l-2.7-4.5l-0.5-0.8
			l-0.8,0.4c-2.2,1.2-4.8,1.8-7.5,1.8h-2.6h-1v1v2.1H199V77.3h4.5h2.1H208.2 M204.6,105.7h1h2.6c6.5,0,11.7-5.3,11.7-11.7
			s-5.3-11.7-11.7-11.7h-2.6h-1v1v21.5V105.7 M208.2,76.3h-2.6h-2.1H198v38.5h7.6v-3.1h2.6c2.9,0,5.6-0.7,7.9-1.9l2.9,5h7.8
			l-5.3-9.2c2.6-3.1,4.3-7.1,4.3-11.6C225.9,84.3,218,76.3,208.2,76.3L208.2,76.3z M205.6,104.7V83.2h2.6c5.9,0,10.7,4.9,10.7,10.7
			c0,6-4.9,10.7-10.7,10.7h-2.6V104.7z"/>
	</g>
	<g>
		<path class="st11" d="M263.6,114.3l-1.4-3.3l-0.5,0.3c-3,2-6.4,3-10.2,3c-3.6,0-7.1-1-10.1-3l-0.5-0.3l-1.4,3.3H233l15-37.5h6.9
			l15,37.5H263.6z M243.3,105.1l0.3,0.2c2.2,1.9,5,2.9,8,2.9s5.8-1,8-2.8l0.3-0.2l-8.3-20.7L243.3,105.1z"/>
		<path class="st1" d="M254.7,77.3l14.6,36.5h-5.4l-1-2.5l-0.5-1.1l-1,0.7c-2.9,1.9-6.3,2.9-9.9,2.9c-3.5,0-6.9-1-9.8-2.9l-1-0.7
			l-0.5,1.1l-1,2.5h-5.4l14.6-36.5H254.7 M251.6,108.7c3.1,0,6-1,8.4-2.9l0.6-0.5l-0.3-0.7l-5.4-13.5l-2.3-5.7l-0.9-2.3l-0.9,2.3
			l-7.6,19.1l-0.3,0.7l0.5,0.5C245.6,107.6,248.5,108.7,251.6,108.7 M255.4,76.3h-7.6l-15.4,38.5h7.6l1.3-3.1c3,2,6.5,3.1,10.4,3.1
			s7.4-1.1,10.4-3.1l1.3,3.1h7.6L255.4,76.3L255.4,76.3z M251.6,107.7c-2.9,0-5.6-1-7.6-2.8l7.6-19.1l2.3,5.7l5.4,13.5
			C257.2,106.7,254.5,107.7,251.6,107.7L251.6,107.7z"/>
	</g>
	<g>
		<polygon class="st11" points="282.8,114.3 269.2,76.7 276.1,76.7 286.4,105.1 296.8,76.7 303.7,76.7 290.1,114.3 		"/>
		<path class="st1" d="M303,77.2l-13.2,36.5h-6.6L270,77.2h5.9l9.7,26.8l0.9,2.6l0.9-2.6l9.8-26.8H303 M304.4,76.2h-8l-10,27.4
			l-9.9-27.4h-8l14,38.5h8L304.4,76.2L304.4,76.2z"/>
	</g>
	<g>
		<rect x="312.4" y="77" class="st11" width="6.6" height="37.5"/>
		<path class="st1" d="M318.5,77.5V114h-5.6V77.5H318.5 M319.5,76.5h-7.6V115h7.6V76.5L319.5,76.5z"/>
	</g>
	<g>
		<polygon class="st11" points="354.4,114.3 354.4,111.1 336.7,87.5 336.7,114.3 330.1,114.3 330.1,76.8 336.9,76.8 354.4,100.2 
			354.4,76.8 361,76.8 361,114.3 		"/>
		<path class="st1" d="M360.5,77.3v35.1v1.4h-5.6v-2.1v-0.4V111l-0.2-0.3L338,88.4l-1.8-2.4v3v0.9v23.9h-5.6V77.3h6.1l16.4,22
			l1.8,2.4v-3v-0.5V77.3H360.5 M361.5,76.3h-7.6v21.8v0.5l-16.7-22.4h-7.6v38.5h7.6V89.8V89l16.7,22.4v0.4v3.1h0.1h7.5v-2.4V76.3
			L361.5,76.3z"/>
	</g>
	<g>
		<path class="st11" d="M388.5,114.3c-10.3,0-18.8-8.4-18.8-18.8s8.4-18.8,18.8-18.8c4.3,0,8.4,1.5,11.6,4.1l-4.2,4.5
			c-2.2-1.6-4.8-2.5-7.4-2.5c-7,0-12.6,5.7-12.6,12.6s5.7,12.6,12.6,12.6c3.6,0,7-1.5,9.5-4.4l0.1-0.1v-4.4h-7.6v-6.2h14.1v12.2
			C401.2,110.7,395,114.3,388.5,114.3z"/>
		<path class="st1" d="M388.5,77.2c4,0,7.8,1.3,10.9,3.7l-3.5,3.8c-2.2-1.5-4.8-2.3-7.4-2.3c-7.2,0-13.1,5.9-13.1,13.1
			s5.9,13.1,13.1,13.1c3.8,0,7.3-1.6,9.9-4.5l0.3-0.3v-0.4v-3.8v-1h-1H391v-5.2h7h6.1v2v0.1v4.7v4.7l0,0c-3.4,5.5-9.3,8.8-15.6,8.8
			c-10.1,0-18.3-8.2-18.3-18.3C370.3,85.4,378.4,77.2,388.5,77.2 M388.5,76.2c-10.7,0-19.3,8.6-19.3,19.3c0,10.6,8.6,19.3,19.3,19.3
			c7.1,0,13.2-3.9,16.6-9.6v-0.3v-4.7v-4.7v-0.1v-3H398h-8v7.2h7.6v3.8c-2.3,2.6-5.5,4.2-9.1,4.2c-6.7,0-12.1-5.4-12.1-12.1
			s5.4-12.1,12.1-12.1c2.8,0,5.4,1,7.5,2.6l4.9-5.2C397.6,77.9,393.2,76.2,388.5,76.2L388.5,76.2z"/>
	</g>
</g>
</svg>
