<?xml version="1.0" encoding="utf-8"?>
<!-- Generator: Adobe Illustrator 25.2.0, SVG Export Plug-In . SVG Version: 6.00 Build 0)  -->
<svg version="1.1" id="Layer_1" xmlns="http://www.w3.org/2000/svg" xmlns:xlink="http://www.w3.org/1999/xlink" x="0px" y="0px"
	 viewBox="0 0 252.4 87" style="enable-background:new 0 0 252.4 87;" xml:space="preserve">
<style type="text/css">
	.st0{fill:url(#SVGID_1_);}
	.st1{fill:#2A323B;}
	.st2{fill:#FFFFFF;}
	.st3{fill:url(#SVGID_2_);}
	.st4{fill:url(#SVGID_3_);}
	.st5{fill:url(#SVGID_4_);}
	.st6{fill:url(#SVGID_5_);}
	.st7{fill:url(#SVGID_6_);}
	.st8{fill:#FFFFFF;stroke:#2A323B;stroke-width:0.75;stroke-miterlimit:10;}
	.st9{fill:url(#SVGID_7_);stroke:#2A323B;stroke-width:0.75;stroke-miterlimit:10;}
	.st10{fill:none;stroke:#2A323B;stroke-width:0.75;stroke-linecap:round;stroke-linejoin:round;stroke-miterlimit:10;}
	.st11{fill:#A81E33;stroke:#2A323B;stroke-width:0.75;stroke-linecap:round;stroke-linejoin:round;stroke-miterlimit:10;}
	.st12{fill:#B9D544;stroke:#2A323B;stroke-width:0.75;stroke-linecap:round;stroke-linejoin:round;stroke-miterlimit:10;}
</style>
<g>
	<g>
		
			<linearGradient id="SVGID_1_" gradientUnits="userSpaceOnUse" x1="17.9" y1="46.9" x2="17.9" y2="84.5" gradientTransform="matrix(1 0 0 1 0 2)">
			<stop  offset="1.118836e-07" style="stop-color:#F47B26"/>
			<stop  offset="1" style="stop-color:#F05423"/>
		</linearGradient>
		<path class="st0" d="M19.3,86.5C9,86.5,0.5,78.1,0.5,67.7c0-10.4,8.4-18.8,18.8-18.8c6.4,0,12.5,3.3,15.9,8.8l-5.1,3.5
			c-2.3-3.8-6.4-6.1-10.8-6.1c-7,0-12.6,5.7-12.6,12.6c0,6.9,5.7,12.6,12.6,12.6c4.4,0,8.4-2.3,10.7-5.9l5.3,3.2
			C31.8,83.2,25.9,86.5,19.3,86.5z"/>
		<path class="st1" d="M19.3,49.4c6.1,0,11.8,3.1,15.2,8.1l-4.2,3c-2.4-3.7-6.5-5.9-11-5.9c-7.2,0-13.1,5.9-13.1,13.1
			c0,7.2,5.9,13.1,13.1,13.1c4.4,0,8.5-2.2,10.9-5.7l4.5,2.7c-3.4,5.2-9.1,8.3-15.3,8.3c-10.1,0-18.3-8.2-18.3-18.3
			C1.1,57.6,9.3,49.4,19.3,49.4 M19.3,48.4C8.6,48.4,0,57.1,0,67.7S8.6,87,19.3,87c7.1,0,13.3-3.9,16.7-9.6l-6.2-3.7
			c-2.1,3.7-6,6.1-10.5,6.1c-6.7,0-12.1-5.4-12.1-12.1s5.4-12.1,12.1-12.1c4.6,0,8.6,2.6,10.7,6.3l5.9-4.1
			C32.6,52.2,26.4,48.4,19.3,48.4L19.3,48.4z"/>
	</g>
	<g>
		<path class="st2" d="M60,86.5c-10.3,0-18.8-8.4-18.8-18.7S49.6,49,60,49c10.3,0,18.7,8.4,18.7,18.8C78.7,78.1,70.3,86.5,60,86.5z
			 M60,55c-7.1,0-12.9,5.8-12.9,12.9c0,7,5.8,12.8,12.9,12.8c7,0,12.8-5.7,12.8-12.8C72.8,60.7,67.1,55,60,55z"/>
		<path class="st1" d="M60,49.5c10,0,18.2,8.2,18.2,18.3C78.2,77.8,70,86,60,86c-10.1,0-18.3-8.2-18.3-18.2
			C41.7,57.7,49.9,49.5,60,49.5 M60,81.1c7.3,0,13.3-6,13.3-13.3c0-7.4-6-13.4-13.3-13.4c-7.4,0-13.4,6-13.4,13.4
			C46.7,75.1,52.6,81.1,60,81.1 M60,48.5c-10.7,0-19.3,8.6-19.3,19.3C40.7,78.4,49.3,87,60,87c10.6,0,19.2-8.6,19.2-19.2
			C79.2,57.1,70.6,48.5,60,48.5L60,48.5z M60,80.1c-6.8,0-12.4-5.5-12.4-12.3S53.1,55.4,60,55.4c6.8,0,12.3,5.5,12.3,12.4
			C72.3,74.6,66.8,80.1,60,80.1L60,80.1z"/>
	</g>
	<g>
		
			<linearGradient id="SVGID_2_" gradientUnits="userSpaceOnUse" x1="103.2" y1="47.0383" x2="103.2" y2="84.4963" gradientTransform="matrix(1 0 0 1 0 2)">
			<stop  offset="1.118836e-07" style="stop-color:#F47B26"/>
			<stop  offset="1" style="stop-color:#F05423"/>
		</linearGradient>
		<polygon class="st3" points="115.8,86.5 115.8,64.4 107.1,83.4 99.4,83.4 90.6,64.3 90.6,86.5 84,86.5 84,49 90.8,49 103.2,76.1 
			115.6,49 122.4,49 122.4,86.5 		"/>
		<path class="st1" d="M121.9,49.5V86h-5.6V66.7v-4.6l-1.9,4.2l-7.6,16.6h-3.5h-3.6L92,66.2L90.1,62v4.6V86h-5.6V49.5h3.6h2.4
			l11.9,25.7l0.9,2l0.9-2L116,49.5h2.4H121.9 M122.9,48.5h-4.6h-2.9h-0.1l-12.1,26.3L91.1,48.5h-3h-4.6V87h7.6V66.6L99,83.9h4.2h4.2
			l7.9-17.2V87h7.6L122.9,48.5L122.9,48.5z"/>
	</g>
	<g>
		
			<linearGradient id="SVGID_3_" gradientUnits="userSpaceOnUse" x1="142.4" y1="47.0383" x2="142.4" y2="84.4963" gradientTransform="matrix(1 0 0 1 0 2)">
			<stop  offset="1.118836e-07" style="stop-color:#F47B26"/>
			<stop  offset="1" style="stop-color:#F05423"/>
		</linearGradient>
		<path class="st4" d="M128.5,86.5V49h10.7c9.5,0,17.1,7.7,17.1,17.1c0,9.5-7.7,17.2-17.1,17.2h-4.1v3.1L128.5,86.5L128.5,86.5z
			 M135,77.4h4.1c6.2,0,11.2-5,11.2-11.2s-5-11.2-11.2-11.2H135V77.4z"/>
		<path class="st1" d="M139.1,49.5c9.2,0,16.6,7.5,16.6,16.6c0,9.2-7.5,16.7-16.6,16.7h-3.6h-1v1v2.1h-5.6V49.4h4.5h2.1L139.1,49.5
			 M134.5,77.9h1h3.6c6.5,0,11.7-5.3,11.7-11.7c0-6.5-5.3-11.7-11.7-11.7h-3.6h-1v1V77V77.9 M139.1,48.5h-3.6h-2H128V87h7.6v-3.1
			h3.6c9.7,0,17.6-7.9,17.6-17.7C156.8,56.5,148.8,48.5,139.1,48.5L139.1,48.5z M135.5,76.9V55.4h3.6c5.9,0,10.7,4.9,10.7,10.7
			c0,6-4.9,10.7-10.7,10.7h-3.6V76.9z"/>
	</g>
	<g>
		
			<linearGradient id="SVGID_4_" gradientUnits="userSpaceOnUse" x1="175.45" y1="47.0383" x2="175.45" y2="84.4963" gradientTransform="matrix(1 0 0 1 0 2)">
			<stop  offset="1.118836e-07" style="stop-color:#F47B26"/>
			<stop  offset="1" style="stop-color:#F05423"/>
		</linearGradient>
		<path class="st5" d="M187.6,86.5l-1.4-3.3l-0.5,0.3c-3,2-6.4,3-10.2,3c-3.6,0-7.1-1-10.1-3l-0.5-0.3l-1.4,3.3H157L172,49h6.9
			l15,37.5H187.6z M167.3,77.3l0.3,0.2c2.2,1.9,5,2.9,8,2.9s5.8-1,8-2.8l0.3-0.2l-8.3-20.7L167.3,77.3z"/>
		<path class="st1" d="M178.7,49.5L193.3,86h-5.4l-1-2.5l-0.5-1.1l-1,0.7c-2.9,1.9-6.3,2.9-9.9,2.9c-3.5,0-6.9-1-9.8-2.9l-1-0.7
			l-0.5,1.1l-1,2.5h-5.4l14.6-36.5H178.7 M175.5,80.9c3.1,0,6-1,8.4-2.9l0.6-0.5l-0.3-0.7l-5.4-13.5l-2.3-5.7l-0.9-2.3l-0.9,2.3
			l-7.6,19.1l-0.3,0.7l0.5,0.5C169.5,79.9,172.5,80.9,175.5,80.9 M179.4,48.5h-7.6L156.4,87h7.6l1.3-3.1c3,2,6.5,3.1,10.4,3.1
			s7.4-1.1,10.4-3.1l1.3,3.1h7.6L179.4,48.5L179.4,48.5z M175.5,79.9c-2.9,0-5.6-1-7.6-2.8l7.6-19.1l2.3,5.7l5.4,13.5
			C181.2,78.9,178.5,79.9,175.5,79.9L175.5,79.9z"/>
	</g>
	<g>
		
			<linearGradient id="SVGID_5_" gradientUnits="userSpaceOnUse" x1="207.403" y1="46.965" x2="207.403" y2="84.4963" gradientTransform="matrix(1 0 0 1 0 2)">
			<stop  offset="1.118836e-07" style="stop-color:#F47B26"/>
			<stop  offset="1" style="stop-color:#F05423"/>
		</linearGradient>
		<path class="st6" d="M207.5,86.5c-6.6,0-10.3-2.9-12.3-5.4l4.9-4c2,2.5,4.2,3.6,7.1,3.6c3.4,0,5.8-1.8,5.8-4.3c0-3-2.5-4.1-6-5.6
			l-1.9-0.8c-5.4-2.3-9-5.1-9-11.2c0-5.7,4.5-9.7,10.8-9.7c4.2,0,7.2,1.4,9.4,4.3l-4.7,3.9c-1.2-1.7-2.7-2.4-4.7-2.4
			c-2.5,0-4.3,1.6-4.3,3.8c0,2.8,1.9,3.8,5.1,5.2l1.9,0.8c6.5,2.8,10,5.4,10,11.7C219.8,82.4,215,86.5,207.5,86.5z"/>
		<path class="st1" d="M207.1,49.5c3.8,0,6.6,1.2,8.7,3.7l-4,3.3c-1.3-1.5-2.7-2.2-4.7-2.2c-2.8,0-4.8,1.8-4.8,4.3
			c0,3,2,4.1,5.4,5.6l1.9,0.8c6.3,2.7,9.7,5.3,9.7,11.2c0,7.2-6.1,9.8-11.8,9.8c-6.1,0-9.6-2.5-11.6-4.9l4.1-3.4
			c1.4,1.6,3.6,3.4,7.2,3.4c3.7,0,6.3-2,6.3-4.8c0-3.3-2.6-4.5-6.3-6.1l-1.9-0.8c-5.3-2.3-8.7-4.9-8.7-10.8
			C196.7,53.3,201,49.5,207.1,49.5 M207.1,48.5c-6.9,0-11.3,4.4-11.3,10.2c0,6.3,3.7,9.3,9.3,11.7l1.9,0.8c3.5,1.5,5.7,2.5,5.7,5.1
			c0,2.2-2.1,3.8-5.3,3.8c-3.4,0-5.4-1.6-7.1-3.8l-5.7,4.6c2.5,3.5,6.8,6,12.9,6c7.3,0,12.8-3.8,12.8-10.8c0-6.5-3.8-9.3-10.3-12.1
			l-1.9-0.8c-3.3-1.5-4.8-2.4-4.8-4.7c0-1.9,1.5-3.3,3.8-3.3c2,0,3.3,0.7,4.6,2.6l5.5-4.6C214.7,49.9,211.4,48.5,207.1,48.5
			L207.1,48.5z"/>
	</g>
	<g>
		
			<linearGradient id="SVGID_6_" gradientUnits="userSpaceOnUse" x1="239.503" y1="46.965" x2="239.503" y2="84.4963" gradientTransform="matrix(1 0 0 1 0 2)">
			<stop  offset="1.118836e-07" style="stop-color:#F47B26"/>
			<stop  offset="1" style="stop-color:#F05423"/>
		</linearGradient>
		<path class="st7" d="M239.6,86.5c-6.6,0-10.3-2.9-12.3-5.4l4.9-4c2,2.5,4.2,3.6,7.1,3.6c3.4,0,5.8-1.8,5.8-4.3c0-3-2.5-4.1-6-5.6
			l-1.9-0.8c-5.4-2.3-9-5.1-9-11.2c0-5.7,4.5-9.7,10.8-9.7c4.2,0,7.2,1.4,9.4,4.3l-4.7,3.9c-1.2-1.7-2.7-2.4-4.7-2.4
			c-2.5,0-4.3,1.6-4.3,3.8c0,2.8,1.9,3.8,5.1,5.2l1.9,0.8c6.5,2.8,10,5.4,10,11.7C251.9,82.4,247.1,86.5,239.6,86.5z"/>
		<path class="st1" d="M239.2,49.5c3.8,0,6.6,1.2,8.7,3.7l-4,3.3c-1.3-1.5-2.7-2.2-4.7-2.2c-2.8,0-4.8,1.8-4.8,4.3
			c0,3,2,4.1,5.4,5.6l1.9,0.8c6.3,2.7,9.7,5.3,9.7,11.2c0,7.2-6.1,9.8-11.8,9.8c-6.1,0-9.6-2.5-11.6-4.9l4.1-3.4
			c1.4,1.6,3.6,3.4,7.2,3.4c3.7,0,6.3-2,6.3-4.8c0-3.3-2.6-4.5-6.3-6.1l-1.9-0.8c-5.3-2.3-8.7-4.9-8.7-10.8
			C228.9,53.3,233.1,49.5,239.2,49.5 M239.2,48.5c-6.9,0-11.3,4.4-11.3,10.2c0,6.3,3.7,9.3,9.3,11.7l1.9,0.8
			c3.5,1.5,5.7,2.5,5.7,5.1c0,2.2-2.1,3.8-5.3,3.8c-3.4,0-5.4-1.6-7.1-3.8l-5.7,4.6c2.5,3.5,6.8,6,12.9,6c7.3,0,12.8-3.8,12.8-10.8
			c0-6.5-3.8-9.3-10.3-12.1l-1.9-0.8c-3.3-1.5-4.8-2.4-4.8-4.7c0-1.9,1.5-3.3,3.8-3.3c2,0,3.3,0.7,4.6,2.6l5.5-4.6
			C246.9,49.9,243.5,48.5,239.2,48.5L239.2,48.5z"/>
	</g>
</g>
<g>
	<path class="st8" d="M60.2,49.3c-1.9,0-3.5-1.5-3.5-3.5s1.5-3.5,3.5-3.5s3.4,1.5,3.4,3.5S62.1,49.3,60.2,49.3z M60.2,43.8
		c-1.1,0-2,0.9-2,2s0.9,2,2,2s1.9-0.9,1.9-2S61.3,43.8,60.2,43.8z"/>
</g>
<circle class="st8" cx="60.2" cy="48.6" r="1.3"/>
<g>
	
		<linearGradient id="SVGID_7_" gradientUnits="userSpaceOnUse" x1="67.3124" y1="-713.7219" x2="57.2593" y2="-730.1804" gradientTransform="matrix(1 0 0 -1 0 -656.4)">
		<stop  offset="1.118836e-07" style="stop-color:#F47B26"/>
		<stop  offset="0.1942" style="stop-color:#F07727"/>
		<stop  offset="0.4081" style="stop-color:#E56928"/>
		<stop  offset="0.6314" style="stop-color:#D4532C"/>
		<stop  offset="0.8597" style="stop-color:#BB3530"/>
		<stop  offset="1" style="stop-color:#A81E33"/>
	</linearGradient>
	<path class="st9" d="M59.7,73c0.2-0.1,0.8-0.2,1-0.4l1.9-1.3c0,0,9.5-6.5,7.3-16.9c-0.1-0.4-0.7-0.5-0.9-0.1
		c-0.9,2.1-2.8,6.2-9.2,9.9c-1.1,0.6-2.2,1.3-3.3,2.1l-0.1,0.1c-0.1,0.1-0.3,0.2-0.4,0.3"/>
	<path class="st10" d="M55.2,72.6c0,0-1.7,0.2-2,1.7c-0.1,0.3-0.3,0.5-0.6,0.6l0,0c-0.6,0.1-1-0.5-0.9-1c0.2-0.6,0.8-1.7,2.8-2.3"/>
	<path class="st2" d="M64.7,67.6c0.5-0.4,3.3-2.5,3.9-5.9l0,0c0.1-0.7,0.2-1.4,0.1-2.1c-0.3,0.5-0.6,1.1-1.1,1.7
		c-0.8,1.1-1.5,2.3-1.9,3.6C65.5,65.9,65.1,66.8,64.7,67.6z"/>
	<polyline class="st11" points="56,66.7 55.5,69.6 56.9,71.6 60.1,72.8 	"/>
	<path class="st12" d="M55.5,71.5c-2-2.9,0.5-4.8,0.5-4.8s-0.1,2.6,2.7,2.6c-1,2.6,1.4,3.5,1.4,3.5S57.5,74.5,55.5,71.5z"/>
</g>
<g>
	<g>
		<path class="st2" d="M19.3,38.1C9,38.1,0.5,29.7,0.5,19.3S8.9,0.5,19.3,0.5c6.4,0,12.5,3.3,15.9,8.8l-5.1,3.5
			C27.8,9,23.7,6.7,19.3,6.7c-7,0-12.6,5.7-12.6,12.6s5.7,12.6,12.6,12.6c4.4,0,8.4-2.3,10.7-5.9l5.3,3.2
			C31.8,34.7,25.9,38.1,19.3,38.1z"/>
		<path class="st1" d="M19.3,1c6.1,0,11.8,3.1,15.2,8.1l-4.2,3c-2.4-3.7-6.5-5.9-11-5.9c-7.2,0-13.1,5.9-13.1,13.1
			s5.9,13.1,13.1,13.1c4.4,0,8.5-2.2,10.9-5.7l4.5,2.6c-3.4,5.2-9.1,8.3-15.3,8.3c-10.1,0-18.3-8.2-18.3-18.3C1.1,9.2,9.3,1,19.3,1
			 M19.3,0C8.6,0,0,8.7,0,19.3C0,30,8.6,38.6,19.3,38.6c7.1,0,13.3-3.9,16.7-9.6l-6.2-3.7c-2.1,3.7-6,6.1-10.5,6.1
			c-6.7,0-12.1-5.4-12.1-12.1S12.6,7.2,19.3,7.2c4.6,0,8.6,2.6,10.7,6.3l5.9-4.1C32.6,3.8,26.4,0,19.3,0L19.3,0z"/>
	</g>
	<g>
		<path class="st2" d="M65.9,38.1l-3-5.2l-0.4,0.2c-2.3,1.2-4.9,1.9-7.7,1.9h-3.1v3.1h-6.6V0.6h9.6c9.5,0,17.2,7.7,17.2,17.1
			c0,4.1-1.5,8.1-4.2,11.3l-0.2,0.3l5,8.7L65.9,38.1L65.9,38.1z M51.6,29h3.1c6.2,0,11.2-5,11.2-11.2s-5-11.2-11.2-11.2h-3.1V29z"/>
		<path class="st1" d="M54.7,1.1c9.2,0,16.7,7.5,16.7,16.6c0,4-1.5,7.9-4.1,11l-0.5,0.5l0.4,0.6l4.4,7.7h-5.5L63.4,33l-0.5-0.8
			l-0.8,0.4c-2.2,1.2-4.8,1.8-7.5,1.8H52h-1v1v2.1h-5.5V1.1H50h2.1H54.7 M51.1,29.5h1h2.6c6.5,0,11.7-5.3,11.7-11.7
			S61.1,6.1,54.7,6.1h-2.6h-1v1v21.5V29.5 M54.7,0.1h-2.6H50h-5.5v38.5h7.6v-3.1h2.6c2.9,0,5.6-0.7,7.9-1.9l2.9,5h7.8L68,29.4
			c2.6-3.1,4.3-7.1,4.3-11.6C72.4,8.1,64.5,0.1,54.7,0.1L54.7,0.1z M52.1,28.5V7h2.6c5.9,0,10.7,4.9,10.7,10.7
			c0,6-4.9,10.7-10.7,10.7h-2.6V28.5z"/>
	</g>
	<g>
		<path class="st2" d="M110.1,38.1l-1.4-3.3l-0.5,0.3c-3,2-6.4,3-10.2,3c-3.6,0-7.1-1-10.1-3l-0.5-0.3L86,38.1h-6.5l15-37.5h6.9
			l15,37.5H110.1z M89.8,28.9l0.3,0.2c2.2,1.9,5,2.9,8,2.9s5.8-1,8-2.8l0.3-0.2L98.1,8.3L89.8,28.9z"/>
		<path class="st1" d="M101.2,1.1l14.6,36.5h-5.4l-1-2.5l-0.5-1.1l-1,0.7c-2.9,1.9-6.3,2.9-9.9,2.9c-3.5,0-6.9-1-9.8-2.9l-1-0.7
			l-0.5,1.1l-1,2.5h-5.4L94.9,1.1H101.2 M98.1,32.5c3.1,0,6-1,8.4-2.9l0.6-0.5l-0.3-0.7l-5.4-13.5l-2.3-5.7l-0.9-2.3l-0.9,2.3
			l-7.6,19.1L89.4,29l0.5,0.5C92.1,31.4,95,32.5,98.1,32.5 M101.9,0.1h-7.6L78.9,38.6h7.6l1.3-3.1c3,2,6.5,3.1,10.4,3.1
			s7.4-1.1,10.4-3.1l1.3,3.1h7.6L101.9,0.1L101.9,0.1z M98.1,31.5c-2.9,0-5.6-1-7.6-2.8l7.6-19.1l2.3,5.7l5.4,13.5
			C103.7,30.5,101,31.5,98.1,31.5L98.1,31.5z"/>
	</g>
	<g>
		<polygon class="st2" points="129.3,38.1 115.7,0.5 122.6,0.5 132.9,28.9 143.3,0.5 150.2,0.5 136.6,38.1 		"/>
		<path class="st1" d="M149.5,1l-13.2,36.5h-6.6L116.5,1h5.9l9.7,26.8l0.9,2.6l0.9-2.6L143.7,1H149.5 M150.9,0h-8l-10,27.4L123,0h-8
			l14,38.5h8L150.9,0L150.9,0z"/>
	</g>
	<g>
		<rect x="158.9" y="0.8" class="st2" width="6.6" height="37.5"/>
		<path class="st1" d="M165,1.3v36.5h-5.6V1.3H165 M166,0.3h-7.6v38.5h7.6V0.3L166,0.3z"/>
	</g>
	<g>
		<polygon class="st2" points="200.9,38.1 200.9,34.9 183.2,11.3 183.2,38.1 176.6,38.1 176.6,0.6 183.4,0.6 200.9,24 200.9,0.6 
			207.5,0.6 207.5,38.1 		"/>
		<path class="st1" d="M207,1.1v35.1v1.4h-5.6v-2.1v-0.4v-0.3l-0.2-0.3l-16.7-22.3l-1.8-2.4v3v0.9v23.9h-5.6V1.1h6.1l16.4,22
			l1.8,2.4v-3V22V1.1H207 M208,0.1h-7.6v21.8v0.5L183.7,0h-7.6v38.5h7.6V13.6v-0.8l16.7,22.4v0.4v3.1h0.1h7.5v-2.4V0.1L208,0.1z"/>
	</g>
	<g>
		<path class="st2" d="M235,38.1c-10.3,0-18.8-8.4-18.8-18.8S224.6,0.5,235,0.5c4.3,0,8.4,1.5,11.6,4.1l-4.2,4.5
			c-2.2-1.6-4.8-2.5-7.4-2.5c-7,0-12.6,5.7-12.6,12.6s5.7,12.6,12.6,12.6c3.6,0,7-1.5,9.5-4.4l0.1-0.1v-4.4H237v-6.2h14.1v12.2
			C247.7,34.5,241.5,38.1,235,38.1z"/>
		<path class="st1" d="M235,1c4,0,7.8,1.3,10.9,3.7l-3.5,3.8c-2.2-1.5-4.8-2.3-7.4-2.3c-7.2,0-13.1,5.9-13.1,13.1
			s5.9,13.1,13.1,13.1c3.8,0,7.3-1.6,9.9-4.5l0.3-0.3v-0.4v-3.8v-1h-1h-6.7v-5.2h7h6.1v2v0.1V24v4.7l0,0c-3.4,5.5-9.3,8.8-15.6,8.8
			c-10.1,0-18.3-8.2-18.3-18.3C216.8,9.2,224.9,1,235,1 M235,0c-10.7,0-19.3,8.6-19.3,19.3c0,10.6,8.6,19.3,19.3,19.3
			c7.1,0,13.2-3.9,16.6-9.6v-0.3V24v-4.7v-0.1v-3h-7.1h-8v7.2h7.6v3.8c-2.3,2.6-5.5,4.2-9.1,4.2c-6.7,0-12.1-5.4-12.1-12.1
			S228.3,7.2,235,7.2c2.8,0,5.4,1,7.5,2.6l4.9-5.2C244.1,1.7,239.7,0,235,0L235,0z"/>
	</g>
</g>
</svg>
